<svg width="79" height="77" viewBox="0 0 79 77" fill="none" xmlns="http://www.w3.org/2000/svg">
<rect opacity="0.1" width="79" height="77" rx="15" fill="#473BF0"/>
<path fill-rule="evenodd" clip-rule="evenodd" d="M28.9187 30.3964C28.9187 25.3965 33.1811 20 40.0671 20C46.9531 20 51.2155 25.3965 51.2155 30.3964C51.2155 37.8059 45.4286 42.3923 40.0671 42.3923C34.7057 42.3923 28.9187 37.8059 28.9187 30.3964ZM30.8164 31.2392C31.2196 37.1603 35.7997 40.7927 40.0668 40.7927C44.3339 40.7927 48.9131 37.1611 49.3181 31.2416C46.5542 30.9185 43.9715 29.9004 41.8989 28.3042C39.3384 30.2827 36.0729 31.3647 32.6076 31.3647C32.0158 31.3647 31.4193 31.3144 30.8164 31.2392Z" fill="#473BF0"/>
<path opacity="0.5" d="M56.7647 46.4647L47.1046 41.4189C44.8405 43.1205 42.1342 44.0563 39.5097 44.0563C36.8852 44.0563 34.1789 43.1205 31.9149 41.4189L22.2548 46.4647C20.864 47.191 20 48.5197 20 49.9318V56.1874C20 56.6347 20.4162 56.9962 20.929 56.9962H38.5807V48.9087C38.5807 48.4615 38.996 48.1 39.5097 48.1C40.0235 48.1 40.4388 48.4615 40.4388 48.9087V56.9962H58.0904C58.6032 56.9962 59.0194 56.6347 59.0194 56.1874V49.9318C59.0194 48.5197 58.1554 47.191 56.7647 46.4647Z" fill="#473BF0"/>
</svg>
