<svg width="79" height="79" viewBox="0 0 79 79" fill="none" xmlns="http://www.w3.org/2000/svg">
<rect opacity="0.1" width="79" height="79" rx="15" fill="#68D585"/>
<path opacity="0.5" d="M54.1416 39C52.8158 45.7571 46.4076 50.8988 38.72 50.8988C37.6301 50.8988 36.5421 50.7875 35.4692 50.5762C38.1052 53.1631 42.1862 54.468 46.4035 53.761L52.0482 56.9199C52.1443 56.9733 52.2486 57 52.3529 57C52.4777 57 52.6017 56.9619 52.7115 56.8864C52.9119 56.7476 53.0346 56.502 53.0346 56.2374V50.4191C54.7953 48.6315 55.7612 46.3771 55.7612 44.035C55.7612 42.2443 55.1906 40.5146 54.1416 39Z" fill="#68D585"/>
<path d="M38.5573 23C30.53 23 24 28.8198 24 35.9737C24 38.7233 24.9573 41.3448 26.7728 43.5747V51.2368C26.7728 51.5017 26.8976 51.7466 27.1014 51.8863C27.213 51.9618 27.3392 52 27.466 52C27.5721 52 27.6781 51.9733 27.7759 51.9199L34.2435 48.3597C35.6541 48.7497 37.1036 48.9474 38.5573 48.9474C46.5845 48.9474 53.1145 43.1275 53.1145 35.9737C53.1145 28.8198 46.5845 23 38.5573 23Z" fill="#68D585"/>
</svg>
