<svg width="79" height="77" viewBox="0 0 79 77" fill="none" xmlns="http://www.w3.org/2000/svg">
<rect opacity="0.1" width="79" height="77" rx="15" fill="#161C2D"/>
<path d="M46.9963 54.754C46.9963 55.0855 46.86 55.4035 46.6174 55.6379C46.3747 55.8723 46.0456 56.004 45.7024 56.004H32.7635C32.4204 56.004 32.0913 55.8723 31.8486 55.6379C31.606 55.4035 31.4697 55.0855 31.4697 54.754C31.4697 54.4225 31.606 54.1045 31.8486 53.8701C32.0913 53.6357 32.4204 53.504 32.7635 53.504H45.7024C46.0456 53.504 46.3747 53.6357 46.6174 53.8701C46.86 54.1045 46.9963 54.4225 46.9963 54.754ZM53.4658 34.754C53.4713 36.8378 52.9841 38.8953 52.0411 40.7695C51.0982 42.6436 49.7245 44.2849 48.025 45.5681C47.7072 45.8034 47.4493 46.1058 47.271 46.4521C47.0927 46.7985 46.9988 47.1797 46.9963 47.5665V48.504C46.9963 49.167 46.7237 49.8029 46.2384 50.2718C45.7531 50.7406 45.0949 51.004 44.4085 51.004H34.0574C33.3711 51.004 32.7129 50.7406 32.2276 50.2718C31.7423 49.8029 31.4697 49.167 31.4697 48.504V47.5665C31.4694 47.1843 31.3784 46.8073 31.2037 46.4643C31.0291 46.1214 30.7753 45.8217 30.462 45.5884C28.7667 44.3128 27.394 42.6814 26.4477 40.8176C25.5014 38.9538 25.0065 36.9065 25.0002 34.8306C24.9582 27.3837 31.1882 21.1821 38.8901 21.004C40.7878 20.9598 42.6755 21.2828 44.4421 21.954C46.2087 22.6252 47.8184 23.631 49.1766 24.9123C50.5348 26.1935 51.6139 27.7243 52.3505 29.4144C53.0871 31.1046 53.4663 32.9201 53.4658 34.754ZM50.878 34.754C50.8784 33.2535 50.5682 31.768 49.9654 30.3851C49.3627 29.0021 48.4797 27.7496 47.3684 26.7014C46.257 25.6531 44.9399 24.8301 43.4944 24.281C42.0489 23.7319 40.5043 23.4677 38.9516 23.504C32.6439 23.6477 27.554 28.7212 27.588 34.8149C27.5939 36.5127 27.9994 38.187 28.7739 39.711C29.5484 41.2351 30.6716 42.569 32.0584 43.6118C32.6818 44.08 33.186 44.6798 33.5325 45.3652C33.879 46.0507 34.0586 46.8037 34.0574 47.5665V48.504H44.4085V47.5665C44.4103 46.8015 44.593 46.047 44.9425 45.3605C45.292 44.6741 45.7992 44.0738 46.4254 43.6056C47.8165 42.5553 48.9408 41.2118 49.7125 39.6778C50.4841 38.1437 50.8828 36.4596 50.878 34.754ZM48.2724 33.2946C47.9369 31.4841 47.0353 29.8164 45.6889 28.516C44.3426 27.2156 42.6161 26.3449 40.742 26.0212C40.5744 25.9939 40.4029 25.9988 40.2373 26.0355C40.0716 26.0722 39.9151 26.1401 39.7766 26.2353C39.6382 26.3305 39.5205 26.4511 39.4302 26.5902C39.34 26.7293 39.279 26.8843 39.2508 27.0462C39.2225 27.2081 39.2276 27.3738 39.2656 27.5338C39.3036 27.6938 39.3739 27.845 39.4724 27.9788C39.571 28.1126 39.6958 28.2263 39.8398 28.3134C39.9838 28.4006 40.1442 28.4595 40.3118 28.4868C42.9917 28.9227 45.2658 31.1196 45.7202 33.7134C45.7714 34.0045 45.9277 34.2687 46.1612 34.4592C46.3948 34.6497 46.6907 34.7541 46.9963 34.754C47.0695 34.7536 47.1424 34.7478 47.2147 34.7368C47.5529 34.681 47.8543 34.4978 48.0527 34.2273C48.251 33.9569 48.3301 33.6214 48.2724 33.2946Z" fill="#444444"/>
<path d="M50.9963 54.754C50.9963 55.0855 50.86 55.4035 50.6174 55.6379C50.3747 55.8723 50.0456 56.004 49.7024 56.004H36.7635C36.4204 56.004 36.0913 55.8723 35.8486 55.6379C35.606 55.4035 35.4697 55.0855 35.4697 54.754C35.4697 54.4225 35.606 54.1045 35.8486 53.8701C36.0913 53.6357 36.4204 53.504 36.7635 53.504H49.7024C50.0456 53.504 50.3747 53.6357 50.6174 53.8701C50.86 54.1045 50.9963 54.4225 50.9963 54.754ZM57.4658 34.754C57.4713 36.8378 56.9841 38.8953 56.0411 40.7695C55.0982 42.6436 53.7245 44.2849 52.025 45.5681C51.7072 45.8034 51.4493 46.1058 51.271 46.4521C51.0927 46.7985 50.9988 47.1797 50.9963 47.5665V48.504C50.9963 49.167 50.7237 49.8029 50.2384 50.2718C49.7531 50.7406 49.0949 51.004 48.4085 51.004H38.0574C37.3711 51.004 36.7129 50.7406 36.2276 50.2718C35.7423 49.8029 35.4697 49.167 35.4697 48.504V47.5665C35.4694 47.1843 35.3784 46.8073 35.2037 46.4643C35.0291 46.1214 34.7753 45.8217 34.462 45.5884C32.7667 44.3128 31.394 42.6814 30.4477 40.8176C29.5014 38.9538 29.0065 36.9065 29.0002 34.8306C28.9582 27.3837 35.1882 21.1821 42.8901 21.004C44.7878 20.9598 46.6755 21.2828 48.4421 21.954C50.2087 22.6252 51.8184 23.631 53.1766 24.9123C54.5348 26.1935 55.6139 27.7243 56.3505 29.4144C57.0871 31.1046 57.4663 32.9201 57.4658 34.754ZM54.878 34.754C54.8784 33.2535 54.5682 31.768 53.9654 30.3851C53.3627 29.0021 52.4797 27.7496 51.3684 26.7014C50.257 25.6531 48.9399 24.8301 47.4944 24.281C46.0489 23.7319 44.5043 23.4677 42.9516 23.504C36.6439 23.6477 31.554 28.7212 31.588 34.8149C31.5939 36.5127 31.9994 38.187 32.7739 39.711C33.5484 41.2351 34.6716 42.569 36.0584 43.6118C36.6818 44.08 37.186 44.6798 37.5325 45.3652C37.879 46.0507 38.0586 46.8037 38.0574 47.5665V48.504H48.4085V47.5665C48.4103 46.8015 48.593 46.047 48.9425 45.3605C49.292 44.6741 49.7992 44.0738 50.4254 43.6056C51.8165 42.5553 52.9408 41.2118 53.7125 39.6778C54.4841 38.1437 54.8828 36.4596 54.878 34.754ZM52.2724 33.2946C51.9369 31.4841 51.0353 29.8164 49.6889 28.516C48.3426 27.2156 46.6161 26.3449 44.742 26.0212C44.5744 25.9939 44.4029 25.9988 44.2373 26.0355C44.0716 26.0722 43.9151 26.1401 43.7766 26.2353C43.6382 26.3305 43.5205 26.4511 43.4302 26.5902C43.34 26.7293 43.279 26.8843 43.2508 27.0462C43.2225 27.2081 43.2276 27.3738 43.2656 27.5338C43.3036 27.6938 43.3739 27.845 43.4724 27.9788C43.571 28.1126 43.6958 28.2263 43.8398 28.3134C43.9838 28.4006 44.1442 28.4595 44.3118 28.4868C46.9917 28.9227 49.2658 31.1196 49.7202 33.7134C49.7714 34.0045 49.9277 34.2687 50.1612 34.4592C50.3948 34.6497 50.6907 34.7541 50.9963 34.754C51.0695 34.7536 51.1424 34.7478 51.2147 34.7368C51.5529 34.681 51.8543 34.4978 52.0527 34.2273C52.251 33.9569 52.3301 33.6214 52.2724 33.2946Z" fill="#444444" fill-opacity="0.1"/>
</svg>
