<svg xmlns="http://www.w3.org/2000/svg" width="100" height="100" viewBox="0 0 154 130" fill="none">
    <g filter="url(#filter0_d_867_502)">
        <path d="M96.1128 39.4072H118.437V33.9033" stroke="#1A1A1A" stroke-opacity="0.9" stroke-width="0.5" stroke-miterlimit="10" stroke-linecap="round" stroke-linejoin="round"/>
        <path d="M92.7399 15H37.3622C34.8143 15 32.7178 16.9142 32.4226 19.384H97.6752C97.3843 16.9142 95.2878 15 92.7399 15Z" fill="#1C0903" fill-opacity="0.9" stroke="#8200FF" stroke-opacity="0.5" stroke-width="0.5" stroke-miterlimit="10" stroke-linecap="round" stroke-linejoin="round"/>
        <path d="M38.6995 17.7782C39.0231 17.7782 39.2855 17.5158 39.2855 17.1922C39.2855 16.8686 39.0231 16.6062 38.6995 16.6062C38.3759 16.6062 38.1135 16.8686 38.1135 17.1922C38.1135 17.5158 38.3759 17.7782 38.6995 17.7782Z" fill="white" fill-opacity="0.9" stroke="#8200FF" stroke-opacity="0.5" stroke-width="0.5" stroke-miterlimit="10" stroke-linecap="round" stroke-linejoin="round"/>
        <path d="M42.2549 17.7782C42.5786 17.7782 42.8409 17.5158 42.8409 17.1922C42.8409 16.8686 42.5786 16.6062 42.2549 16.6062C41.9313 16.6062 41.6689 16.8686 41.6689 17.1922C41.6689 17.5158 41.9313 17.7782 42.2549 17.7782Z" fill="white" fill-opacity="0.9" stroke="#8200FF" stroke-opacity="0.5" stroke-width="0.5" stroke-miterlimit="10" stroke-linecap="round" stroke-linejoin="round"/>
        <path d="M45.8096 17.7782C46.1332 17.7782 46.3956 17.5158 46.3956 17.1922C46.3956 16.8686 46.1332 16.6062 45.8096 16.6062C45.486 16.6062 45.2236 16.8686 45.2236 17.1922C45.2236 17.5158 45.486 17.7782 45.8096 17.7782Z" fill="white" fill-opacity="0.9" stroke="#8200FF" stroke-opacity="0.5" stroke-width="0.5" stroke-miterlimit="10" stroke-linecap="round" stroke-linejoin="round"/>
        <path d="M32.4234 19.3833C32.4017 19.5786 32.3887 19.774 32.3887 19.9736V52.5543C32.3887 55.302 34.6154 57.5287 37.363 57.5287H92.7407C95.4883 57.5287 97.715 55.302 97.715 52.5543V19.978C97.715 19.7783 97.702 19.5786 97.6803 19.3876H32.4234V19.3833Z" fill="white" fill-opacity="0.9" stroke="#8200FF" stroke-opacity="0.5" stroke-width="0.5" stroke-miterlimit="10" stroke-linecap="round" stroke-linejoin="round"/>
        <path d="M62.2432 39.3945V39.9197H61.718" stroke="#1A1A1A" stroke-opacity="0.9" stroke-width="0.5" stroke-linecap="round" stroke-linejoin="round"/>
        <path d="M60.6288 39.9197H37.1721" stroke="#8200FF" stroke-opacity="0.5" stroke-width="0.5" stroke-linecap="round" stroke-linejoin="round" stroke-dasharray="25.14 25.14"/>
        <path d="M36.6243 39.9197H36.0991V39.3945" stroke="#1A1A1A" stroke-opacity="0.9" stroke-width="0.5" stroke-linecap="round" stroke-linejoin="round"/>
        <path d="M36.0991 38.3913V22.8606" stroke="#8200FF" stroke-opacity="0.5" stroke-width="0.5" stroke-linecap="round" stroke-linejoin="round" stroke-dasharray="23.09 23.09"/>
        <path d="M36.0991 22.357V21.8318H36.6243" stroke="#1A1A1A" stroke-opacity="0.9" stroke-width="0.5" stroke-linecap="round" stroke-linejoin="round"/>
        <path d="M37.719 21.8318H61.1757" stroke="#8200FF" stroke-opacity="0.5" stroke-width="0.5" stroke-linecap="round" stroke-linejoin="round" stroke-dasharray="25.14 25.14"/>
        <path d="M61.718 21.8318H62.2432V22.357" stroke="#1A1A1A" stroke-opacity="0.9" stroke-width="0.5" stroke-linecap="round" stroke-linejoin="round"/>
        <path d="M62.2437 23.3594V38.8945" stroke="#8200FF" stroke-opacity="0.5" stroke-width="0.5" stroke-linecap="round" stroke-linejoin="round" stroke-dasharray="23.09 23.09"/>
        <path d="M84.5109 39.3945V39.9197H83.99" stroke="#1A1A1A" stroke-opacity="0.9" stroke-width="0.5" stroke-linecap="round" stroke-linejoin="round"/>
        <path d="M82.9829 39.9197H65.3904" stroke="#8200FF" stroke-opacity="0.5" stroke-width="0.5" stroke-linecap="round" stroke-linejoin="round" stroke-dasharray="23.16 23.16"/>
        <path d="M64.8912 39.9197H64.366V39.3945" stroke="#1A1A1A" stroke-opacity="0.9" stroke-width="0.5" stroke-linecap="round" stroke-linejoin="round"/>
        <path d="M64.366 38.3913V22.8606" stroke="#8200FF" stroke-opacity="0.5" stroke-width="0.5" stroke-linecap="round" stroke-linejoin="round" stroke-dasharray="23.09 23.09"/>
        <path d="M64.366 22.357V21.8318H64.8912" stroke="#1A1A1A" stroke-opacity="0.9" stroke-width="0.5" stroke-linecap="round" stroke-linejoin="round"/>
        <path d="M65.8936 21.8318H83.4861" stroke="#8200FF" stroke-opacity="0.5" stroke-width="0.5" stroke-linecap="round" stroke-linejoin="round" stroke-dasharray="23.16 23.16"/>
        <path d="M83.99 21.8318H84.5109V22.357" stroke="#1A1A1A" stroke-opacity="0.9" stroke-width="0.5" stroke-linecap="round" stroke-linejoin="round"/>
        <path d="M84.5103 23.3594V38.8945" stroke="#8200FF" stroke-opacity="0.5" stroke-width="0.5" stroke-linecap="round" stroke-linejoin="round" stroke-dasharray="23.09 23.09"/>
        <path d="M94.5853 54.1438V54.669H94.0601" stroke="#1A1A1A" stroke-opacity="0.9" stroke-width="0.5" stroke-linecap="round" stroke-linejoin="round"/>
        <path d="M93.1269 54.6689H87.9702" stroke="#8200FF" stroke-opacity="0.5" stroke-width="0.5" stroke-linecap="round" stroke-linejoin="round" stroke-dasharray="21.59 21.59"/>
        <path d="M87.5015 54.669H86.9763V54.1438" stroke="#1A1A1A" stroke-opacity="0.9" stroke-width="0.5" stroke-linecap="round" stroke-linejoin="round"/>
        <path d="M86.9763 53.1194V22.8696" stroke="#8200FF" stroke-opacity="0.5" stroke-width="0.5" stroke-linecap="round" stroke-linejoin="round" stroke-dasharray="23.62 23.62"/>
        <path d="M86.9763 22.357V21.8318H87.5015" stroke="#1A1A1A" stroke-opacity="0.9" stroke-width="0.5" stroke-linecap="round" stroke-linejoin="round"/>
        <path d="M88.439 21.8318H93.5913" stroke="#8200FF" stroke-opacity="0.5" stroke-width="0.5" stroke-linecap="round" stroke-linejoin="round" stroke-dasharray="21.59 21.59"/>
        <path d="M94.0601 21.8318H94.5853V22.357" stroke="#1A1A1A" stroke-opacity="0.9" stroke-width="0.5" stroke-linecap="round" stroke-linejoin="round"/>
        <path d="M94.585 23.3811V53.6309" stroke="#8200FF" stroke-opacity="0.5" stroke-width="0.5" stroke-linecap="round" stroke-linejoin="round" stroke-dasharray="23.62 23.62"/>
        <path d="M62.2432 53.4539V53.9791H61.718" stroke="#1A1A1A" stroke-opacity="0.9" stroke-width="0.5" stroke-linecap="round" stroke-linejoin="round"/>
        <path d="M60.6288 53.979H37.1721" stroke="#8200FF" stroke-opacity="0.5" stroke-width="0.5" stroke-linecap="round" stroke-linejoin="round" stroke-dasharray="25.14 25.14"/>
        <path d="M36.6243 53.9791H36.0991V53.4539" stroke="#1A1A1A" stroke-opacity="0.9" stroke-width="0.5" stroke-linecap="round" stroke-linejoin="round"/>
        <path d="M36.0991 52.4944V43.3748" stroke="#8200FF" stroke-opacity="0.5" stroke-width="0.5" stroke-linecap="round" stroke-linejoin="round" stroke-dasharray="22.12 22.12"/>
        <path d="M36.0991 42.8929V42.3677H36.6243" stroke="#1A1A1A" stroke-opacity="0.9" stroke-width="0.5" stroke-linecap="round" stroke-linejoin="round"/>
        <path d="M37.719 42.3677H61.1757" stroke="#8200FF" stroke-opacity="0.5" stroke-width="0.5" stroke-linecap="round" stroke-linejoin="round" stroke-dasharray="25.14 25.14"/>
        <path d="M61.718 42.3677H62.2432V42.8929" stroke="#1A1A1A" stroke-opacity="0.9" stroke-width="0.5" stroke-linecap="round" stroke-linejoin="round"/>
        <path d="M62.2437 43.8521V52.976" stroke="#8200FF" stroke-opacity="0.5" stroke-width="0.5" stroke-linecap="round" stroke-linejoin="round" stroke-dasharray="22.12 22.12"/>
        <path d="M60.7807 53.4537H37.541C37.146 53.4537 36.8291 53.1368 36.8291 52.7418V43.8522C36.8291 43.4572 37.146 43.1404 37.541 43.1404H60.785C61.18 43.1404 61.4969 43.4572 61.4969 43.8522V52.7418C61.4925 53.1368 61.1756 53.4537 60.7807 53.4537Z" fill="white" fill-opacity="0.9" stroke="#8200FF" stroke-opacity="0.5" stroke-width="0.5" stroke-miterlimit="10" stroke-linecap="round" stroke-linejoin="round"/>
        <path d="M46.4651 49.2095L47.7499 51.7184L49.2518 49.331L46.4651 49.2095Z" fill="#1C0903" fill-opacity="0.9" stroke="#8200FF" stroke-opacity="0.5" stroke-width="0.5" stroke-miterlimit="10" stroke-linecap="round" stroke-linejoin="round"/>
        <path d="M48.1843 50.3159C48.3406 50.3984 48.4925 50.4852 48.6401 50.572" stroke="#8200FF" stroke-opacity="0.5" stroke-width="0.5" stroke-linecap="round" stroke-linejoin="round"/>
        <path d="M49.5078 51.1536C53.2929 53.9619 55.1637 59.2488 53.7834 63.7848C52.5767 67.7564 49.3646 70.7254 46.4911 73.7161C45.0283 75.2397 43.5352 77.0193 43.5048 79.1289C43.4744 80.9693 44.5682 82.6231 45.7055 84.0642C48.0103 86.9811 50.6972 89.5898 53.6748 91.8122" stroke="#8200FF" stroke-opacity="0.5" stroke-width="0.5" stroke-linecap="round" stroke-linejoin="round" stroke-dasharray="24.06 24.06"/>
        <path d="M54.0959 92.1248C54.2392 92.2289 54.3781 92.3288 54.5213 92.4286" stroke="#8200FF" stroke-opacity="0.5" stroke-width="0.5" stroke-linecap="round" stroke-linejoin="round"/>
        <path d="M61.6922 88.9512H24.836C22.5919 88.9512 20.7732 90.7699 20.7732 93.014V93.7953H61.6922V88.9512Z" fill="white" fill-opacity="0.9" stroke="#8200FF" stroke-opacity="0.5" stroke-width="0.5" stroke-miterlimit="10" stroke-linecap="round" stroke-linejoin="round"/>
        <path d="M61.6922 93.7952H20.7732V98.5655H61.6922V93.7952Z" fill="#1C0903" fill-opacity="0.9" stroke="#8200FF" stroke-opacity="0.5" stroke-width="0.5" stroke-miterlimit="10" stroke-linecap="round" stroke-linejoin="round"/>
        <path d="M61.6922 98.5662H20.7732V115H61.6922V98.5662Z" fill="white" fill-opacity="0.9" stroke="#8200FF" stroke-opacity="0.5" stroke-width="0.5" stroke-miterlimit="10" stroke-linecap="round" stroke-linejoin="round"/>
        <path d="M28.9244 110.338H24.3711V112.708H28.9244V110.338Z" fill="white" fill-opacity="0.9" stroke="#8200FF" stroke-opacity="0.5" stroke-width="0.5" stroke-miterlimit="10" stroke-linecap="round" stroke-linejoin="round"/>
        <path d="M34.6935 110.338H30.1401V112.708H34.6935V110.338Z" fill="white" fill-opacity="0.9" stroke="#8200FF" stroke-opacity="0.5" stroke-width="0.5" stroke-miterlimit="10" stroke-linecap="round" stroke-linejoin="round"/>
        <path d="M40.4664 110.338H35.9131V112.708H40.4664V110.338Z" fill="white" fill-opacity="0.9" stroke="#8200FF" stroke-opacity="0.5" stroke-width="0.5" stroke-miterlimit="10" stroke-linecap="round" stroke-linejoin="round"/>
        <path d="M39.3856 112.138C37.6885 107.676 38.4871 102.685 41.4908 99.2033C45.0588 95.0711 51.1574 93.7385 56.4573 96.0434C56.7959 94.3722 57.5164 91.8807 59.2397 89.4239C67.1266 78.1904 90.2534 75.9159 102.555 87.093C104.682 89.0246 108.779 93.4433 110.676 101.682C114.708 96.5686 122.109 96.4861 125.79 100.401C129.31 104.147 129.015 111.105 124.175 114.99C96.2 114.99 68.2247 114.99 40.2494 114.99C39.963 114.044 39.6721 113.093 39.3856 112.138Z" fill="white" fill-opacity="0.9" stroke="#8200FF" stroke-opacity="0.5" stroke-width="0.5" stroke-miterlimit="10" stroke-linecap="round" stroke-linejoin="round"/>
        <path d="M91.0295 79.6882H59.5166V84.5063H91.0295V79.6882Z" fill="white" fill-opacity="0.9" stroke="#8200FF" stroke-opacity="0.5" stroke-width="0.5" stroke-miterlimit="10" stroke-linecap="round" stroke-linejoin="round"/>
        <path d="M91.0295 84.5063H59.5166V110.029H91.0295V84.5063Z" fill="white" fill-opacity="0.9" stroke="#8200FF" stroke-opacity="0.5" stroke-width="0.5" stroke-miterlimit="10" stroke-linecap="round" stroke-linejoin="round"/>
        <path d="M91.0295 110.025H59.5166V110.836H91.0295V110.025Z" fill="white" fill-opacity="0.9" stroke="#8200FF" stroke-opacity="0.5" stroke-width="0.5" stroke-miterlimit="10" stroke-linecap="round" stroke-linejoin="round"/>
        <path d="M91.0295 110.836H59.5166V114.99H91.0295V110.836Z" fill="white" fill-opacity="0.9" stroke="#8200FF" stroke-opacity="0.5" stroke-width="0.5" stroke-miterlimit="10" stroke-linecap="round" stroke-linejoin="round"/>
        <path d="M79.7356 87.3887H71.1282V89.0468H79.7356V87.3887Z" fill="#1C0903" fill-opacity="0.9" stroke="#8200FF" stroke-opacity="0.5" stroke-width="0.5" stroke-miterlimit="10" stroke-linecap="round" stroke-linejoin="round"/>
        <path d="M59.5174 79.6882L56.6353 83.3604L56.6873 86.7548L59.5174 84.6018V79.6882Z" fill="#1C0903" fill-opacity="0.9" stroke="#8200FF" stroke-opacity="0.5" stroke-width="0.5" stroke-miterlimit="10" stroke-linecap="round" stroke-linejoin="round"/>
        <path d="M59.5171 84.6013L56.687 86.7543L57.0429 110.506L59.5171 109.99V84.6013Z" fill="white" fill-opacity="0.9" stroke="#8200FF" stroke-opacity="0.5" stroke-width="0.5" stroke-miterlimit="10" stroke-linecap="round" stroke-linejoin="round"/>
        <path d="M57.0432 110.507L57.0562 111.431L59.5174 110.815V109.99L57.0432 110.507Z" fill="white" fill-opacity="0.9" stroke="#8200FF" stroke-opacity="0.5" stroke-width="0.5" stroke-miterlimit="10" stroke-linecap="round" stroke-linejoin="round"/>
        <path d="M57.0562 111.432L57.1082 114.995H59.5173V110.815L57.0562 111.432Z" fill="#1C0903" fill-opacity="0.9" stroke="#8200FF" stroke-opacity="0.5" stroke-width="0.5" stroke-miterlimit="10" stroke-linecap="round" stroke-linejoin="round"/>
        <path d="M15 114.995H139.576" stroke="#8200FF" stroke-opacity="0.5" stroke-width="0.5" stroke-miterlimit="10" stroke-linecap="round" stroke-linejoin="round"/>
        <path d="M118.519 34.7061C122.074 34.7061 124.956 31.8241 124.956 28.2689C124.956 24.7138 122.074 21.8318 118.519 21.8318C114.964 21.8318 112.082 24.7138 112.082 28.2689C112.082 31.8241 114.964 34.7061 118.519 34.7061Z" fill="white" fill-opacity="0.9" stroke="#8200FF" stroke-opacity="0.5" stroke-width="0.5" stroke-miterlimit="10" stroke-linecap="round" stroke-linejoin="round"/>
        <path d="M119.466 26.958C119.913 26.6976 120.217 26.2115 120.217 25.6559C120.217 24.8225 119.539 24.1497 118.71 24.1497C117.877 24.1497 117.204 24.8268 117.204 25.6559C117.204 26.2115 117.504 26.6976 117.955 26.958C116.636 27.2966 115.659 28.4946 115.659 29.9183V31.3942H121.775V29.9183C121.766 28.4903 120.785 27.2923 119.466 26.958Z" fill="#1C0903" fill-opacity="0.9" stroke="#8200FF" stroke-opacity="0.5" stroke-width="0.5" stroke-miterlimit="10" stroke-linecap="round" stroke-linejoin="round"/>
        <path d="M80.292 45.0935C80.292 45.0935 85.6093 57.0649 88.2701 56.9825C90.9309 56.9 81.312 60.4593 81.312 60.4593L80.292 52.2034V45.0935Z" fill="#8200FF" fill-opacity="0.15" stroke="#8200FF" stroke-opacity="0.5" stroke-width="0.5" stroke-miterlimit="10" stroke-linecap="round" stroke-linejoin="round"/>
        <path d="M64.9083 62.1827C64.9083 62.1827 61.6485 54.0571 64.9083 48.488C68.1681 42.919 72.3524 40.944 72.3524 40.944C72.3524 40.944 77.0924 40.0368 79.1846 42.4459C81.2768 44.8549 84.9099 53.0283 81.7889 63.2982C74.7224 65.8679 64.9083 62.1827 64.9083 62.1827ZM64.4655 59.5349C64.4655 59.5349 68.5414 56.223 72.8907 56.223Z" fill="#8200FF" fill-opacity="0.15"/>
        <path d="M64.4655 59.5349C64.4655 59.5349 68.5414 56.223 72.8907 56.223M64.9083 62.1827C64.9083 62.1827 61.6485 54.0571 64.9083 48.488C68.1681 42.919 72.3524 40.944 72.3524 40.944C72.3524 40.944 77.0924 40.0368 79.1846 42.4459C81.2768 44.8549 84.9099 53.0283 81.7889 63.2982C74.7224 65.8679 64.9083 62.1827 64.9083 62.1827Z" stroke="#8200FF" stroke-opacity="0.5" stroke-width="0.5" stroke-miterlimit="10" stroke-linecap="round" stroke-linejoin="round"/>
        <path d="M95.327 61.974C91.594 65.7938 91.5072 72.9341 91.5072 72.9341L97.0893 77.2487C97.0893 77.2487 98.8255 73.0904 101.816 68.1334C104.62 63.4846 109.399 55.6975 101.816 54.7512C94.2331 53.805 80.9074 61.7396 80.9074 61.7396C80.9074 61.7396 74.8913 68.7975 75.0085 68.8279C75.1257 68.8582 85.8514 70.6249 85.8514 70.6249C85.8514 70.6249 91.4378 67.096 92.7052 66.4449" fill="white" fill-opacity="0.9"/>
        <path d="M95.327 61.974C91.594 65.7938 91.5072 72.9341 91.5072 72.9341L97.0893 77.2487C97.0893 77.2487 98.8255 73.0904 101.816 68.1334C104.62 63.4846 109.399 55.6975 101.816 54.7512C94.2331 53.805 80.9074 61.7396 80.9074 61.7396C80.9074 61.7396 74.8913 68.7975 75.0085 68.8279C75.1257 68.8582 85.8514 70.6249 85.8514 70.6249C85.8514 70.6249 91.4378 67.096 92.7052 66.4449" stroke="#8200FF" stroke-opacity="0.5" stroke-width="0.5" stroke-miterlimit="10" stroke-linecap="round" stroke-linejoin="round"/>
        <path d="M98.2923 104.95C98.6352 104.911 98.8913 104.725 99.104 104.469C99.0389 104.408 98.9911 104.36 98.9694 104.33C98.6569 103.887 98.2966 103.323 98.2966 103.323L94.8589 104.152C94.8589 104.152 94.8502 104.542 94.8849 105.081C95.9093 105.58 97.2332 105.102 98.2923 104.95Z" fill="#1C0903" fill-opacity="0.9" stroke="#8200FF" stroke-opacity="0.5" stroke-width="0.5" stroke-miterlimit="10" stroke-linecap="round" stroke-linejoin="round"/>
        <path d="M104.994 109.426C104.317 108.454 99.9718 105.272 99.1081 104.473C98.8954 104.729 98.6349 104.916 98.2964 104.955C97.2372 105.107 95.9134 105.585 94.8933 105.085C94.9541 106.071 95.1581 107.56 95.7962 108.146C96.7815 109.053 101.048 110.971 102.689 110.989C104.321 111.006 105.723 110.472 104.994 109.426Z" fill="white" fill-opacity="0.9" stroke="#8200FF" stroke-opacity="0.5" stroke-width="0.5" stroke-miterlimit="10" stroke-linecap="round" stroke-linejoin="round"/>
        <path d="M66.9832 64.21C66.9832 64.21 65.0863 65.4731 64.8216 69.41C64.5568 73.3513 65.1124 79.8449 73.2337 80.1227C81.355 80.4005 85.7 80.2789 86.2946 79.5714C86.5724 81.7808 93.3655 103.028 94.429 104.135C95.4967 105.242 99.247 104.608 99.2861 102.711C99.3252 100.814 99.0083 81.7417 98.5742 79.0549C98.1402 76.368 97.4674 70.1306 80.2091 67.9993M73.4724 70.3042C73.4724 70.3042 74.1192 71.8451 73.2337 73.4251Z" fill="white" fill-opacity="0.9"/>
        <path d="M66.9832 64.21C66.9832 64.21 65.0863 65.4731 64.8216 69.41C64.5568 73.3513 65.1124 79.8449 73.2337 80.1227C81.355 80.4005 85.7 80.2789 86.2946 79.5714C86.5724 81.7808 93.3655 103.028 94.429 104.135C95.4967 105.242 99.247 104.608 99.2861 102.711C99.3252 100.814 99.0083 81.7417 98.5742 79.0549C98.1402 76.368 97.4674 70.1306 80.2091 67.9993M73.4724 70.3042C73.4724 70.3042 74.1192 71.8451 73.2337 73.4251" stroke="#8200FF" stroke-opacity="0.5" stroke-width="0.5" stroke-miterlimit="10" stroke-linecap="round" stroke-linejoin="round"/>
        <path d="M69.6352 70.4998C69.6352 70.4998 68.8191 75.9299 79.6143 75.1789C90.4094 74.428 92.8445 76.8501 93.2178 83.2178C93.5911 89.5898 96.1173 103.627 96.1173 103.627" stroke="#8200FF" stroke-opacity="0.5" stroke-width="0.5" stroke-miterlimit="10" stroke-linecap="round" stroke-linejoin="round" stroke-dasharray="24.2 24.2"/>
        <path d="M66.2021 65.6326C66.2021 65.6326 68.3247 68.224 71.3805 68.5669C74.4363 68.9098 77.8263 68.7362 81.3118 65.9582C82.9135 64.5128 82.3015 64.1047 82.3015 64.1047H66.5798L66.0242 65.3027L66.2021 65.6326ZM93.0619 59.4429C93.0619 59.4429 100.645 53.6959 101.787 52.958C102.928 52.2158 102.216 51.5213 102.216 51.5213C102.216 51.5213 99.3081 48.4525 98.1448 47.4628C96.9815 46.4775 96.2783 47.198 96.2783 47.198L86.9763 54.2472C86.9763 54.2472 86.4859 54.6726 87.1109 55.3801C87.736 56.0876 91.751 59.8336 91.751 59.8336C91.751 59.8336 92.1156 60.3197 93.0619 59.4429Z" fill="#1C0903" fill-opacity="0.9" stroke="#8200FF" stroke-opacity="0.5" stroke-width="0.5" stroke-miterlimit="10" stroke-linecap="round" stroke-linejoin="round"/>
        <path d="M93.2746 58.6189C93.2746 58.6189 99.8116 53.6663 100.793 53.0282C101.774 52.3901 101.161 51.7911 101.161 51.7911C101.161 51.7911 98.6569 49.1433 97.6499 48.2926C96.6472 47.4418 96.0396 48.0625 96.0396 48.0625L88.0224 54.1394C88.0224 54.1394 87.6014 54.504 88.1396 55.116C88.6779 55.7281 92.1417 58.9532 92.1417 58.9532C92.1417 58.9532 92.4585 59.3742 93.2746 58.6189Z" fill="white" fill-opacity="0.9" stroke="#8200FF" stroke-opacity="0.5" stroke-width="0.5" stroke-miterlimit="10" stroke-linecap="round" stroke-linejoin="round"/>
        <path d="M72.9082 53.0716L73.2338 57.0216C73.2338 57.0216 76.9363 63.1028 84.515 58.1284C89.7281 54.3955 92.7492 51.14 95.7703 50.9621C98.7913 50.7841 97.8147 51.7043 96.035 52.1167C94.2597 52.5334 94.7893 53.51 94.8501 54.0135C94.9108 54.517 94.7329 56.1752 92.2153 56.3531C89.6977 56.5311 89.5502 58.1024 88.0396 59.6694C86.5291 61.2407 81.1207 67.7646 74.0498 68.1205C66.9789 68.4765 65.1645 62.9031 64.9084 62.1869C64.9084 62.1869 67.5432 58.6319 72.5783 57.269L73.2338 57.0216M102.099 52.7157C102.099 52.7157 102.39 53.3407 103.492 52.2252C104.599 51.1096 103.896 49.7771 103.019 48.6311C102.142 47.4852 101.044 47.368 101.044 47.368C101.044 47.368 98.4788 48.158 98.8347 49.3517C99.1907 50.5454 100.384 51.5046 101.539 51.2659C102.155 50.9013 102.407 51.6652 102.477 51.8041C102.477 51.8041 102.659 52.3033 102.099 52.7157ZM77.5527 39.3596C80.717 41.3085 81.7935 39.2684 82.6052 37.7275C83.4169 36.1866 83.0088 33.8079 83.0088 33.8079C82.7441 32.7401 81.5287 31.3511 78.4772 32.089C75.4258 32.8313 74.8789 37.7145 74.8789 37.7145L72.3917 41.3129C72.3917 41.3129 72.3352 42.5022 74.2321 42.7192C76.129 42.9363 77.0231 42.411 77.3096 41.8685C77.9216 40.5836 78.2602 39.8327 78.2602 39.8327" fill="white" fill-opacity="0.9"/>
        <path d="M72.9082 53.0716L73.2338 57.0216M73.2338 57.0216C73.2338 57.0216 76.9363 63.1028 84.515 58.1284C89.7281 54.3955 92.7492 51.14 95.7703 50.9621C98.7913 50.7841 97.8147 51.7043 96.035 52.1167C94.2597 52.5334 94.7893 53.51 94.8501 54.0135C94.9108 54.517 94.7329 56.1752 92.2153 56.3531C89.6977 56.5311 89.5502 58.1024 88.0396 59.6694C86.5291 61.2407 81.1207 67.7646 74.0498 68.1205C66.9789 68.4765 65.1645 62.9031 64.9084 62.1869C64.9084 62.1869 67.5432 58.6319 72.5783 57.269L73.2338 57.0216ZM77.5527 39.3596C80.717 41.3085 81.7935 39.2684 82.6052 37.7275C83.4169 36.1866 83.0088 33.8079 83.0088 33.8079C82.7441 32.7401 81.5287 31.3511 78.4772 32.089C75.4258 32.8313 74.8789 37.7145 74.8789 37.7145L72.3917 41.3129C72.3917 41.3129 72.3352 42.5022 74.2321 42.7192C76.129 42.9363 77.0231 42.411 77.3096 41.8685C77.9216 40.5836 78.2602 39.8327 78.2602 39.8327M102.099 52.7157C102.099 52.7157 102.39 53.3407 103.492 52.2252C104.599 51.1096 103.896 49.7771 103.019 48.6311C102.142 47.4852 101.044 47.368 101.044 47.368C101.044 47.368 98.4788 48.158 98.8347 49.3517C99.1907 50.5454 100.384 51.5046 101.539 51.2659C102.155 50.9013 102.407 51.6652 102.477 51.8041C102.477 51.8041 102.659 52.3033 102.099 52.7157Z" stroke="#8200FF" stroke-opacity="0.5" stroke-width="0.5" stroke-miterlimit="10" stroke-linecap="round" stroke-linejoin="round"/>
        <path d="M77.5698 39.407L78.1211 40.032L78.1992 39.802L77.5698 39.407Z" fill="#1C0903" fill-opacity="0.9" stroke="#8200FF" stroke-opacity="0.5" stroke-width="0.5" stroke-miterlimit="10" stroke-linecap="round" stroke-linejoin="round"/>
        <path d="M77.2443 36.7118C77.2443 36.7118 77.0533 38.1486 76.0723 38.1616C75.0913 38.1746 73.5243 36.638 73.6893 35.2143C73.8542 33.7906 75.0653 31.1124 77.4526 30.0316C79.8356 28.9508 82.6353 30.4483 83.6727 30.8303C84.7101 31.2123 85.6434 30.9952 85.9819 30.7869C86.3205 30.5785 86.1729 31.6767 85.6564 32.1325C85.1399 32.5926 84.2327 33.9555 81.1552 33.1699C80.6516 33.0223 79.497 33.7342 79.497 34.0901C79.497 34.446 79.0369 34.5328 79.0369 34.5328C79.0369 34.5328 78.2209 32.7705 77.4656 33.4954C76.7104 34.2203 77.8042 35.6744 78.0733 35.9522C78.3424 36.23 77.2443 36.7118 77.2443 36.7118Z" fill="#1C0903" fill-opacity="0.9" stroke="#8200FF" stroke-opacity="0.5" stroke-width="0.5" stroke-miterlimit="10" stroke-linecap="round" stroke-linejoin="round"/>
        <path d="M36.6855 21.4932H35.5396V22.6391H36.6855V21.4932Z" fill="#1C0903" fill-opacity="0.9" stroke="#8200FF" stroke-opacity="0.5" stroke-width="0.5" stroke-miterlimit="10" stroke-linecap="round" stroke-linejoin="round"/>
        <path d="M36.6855 39.2119H35.5396V40.3578H36.6855V39.2119Z" fill="#1C0903" fill-opacity="0.9" stroke="#8200FF" stroke-opacity="0.5" stroke-width="0.5" stroke-miterlimit="10" stroke-linecap="round" stroke-linejoin="round"/>
        <path d="M62.7206 21.4932H61.5747V22.6391H62.7206V21.4932Z" fill="#1C0903" fill-opacity="0.9" stroke="#8200FF" stroke-opacity="0.5" stroke-width="0.5" stroke-miterlimit="10" stroke-linecap="round" stroke-linejoin="round"/>
        <path d="M62.7206 39.2119H61.5747V40.3578H62.7206V39.2119Z" fill="#1C0903" fill-opacity="0.9" stroke="#8200FF" stroke-opacity="0.5" stroke-width="0.5" stroke-miterlimit="10" stroke-linecap="round" stroke-linejoin="round"/>
        <path d="M29.3589 76.6936C33.0818 76.6936 36.0999 73.6756 36.0999 69.9527C36.0999 66.2297 33.0818 63.2117 29.3589 63.2117C25.636 63.2117 22.6179 66.2297 22.6179 69.9527C22.6179 73.6756 25.636 76.6936 29.3589 76.6936Z" fill="white" fill-opacity="0.9" stroke="#8200FF" stroke-opacity="0.5" stroke-width="0.5" stroke-miterlimit="10" stroke-linecap="round" stroke-linejoin="round"/>
        <path d="M29.3583 75.9556C32.6737 75.9556 35.3614 73.268 35.3614 69.9525C35.3614 66.6371 32.6737 63.9495 29.3583 63.9495C26.0429 63.9495 23.3552 66.6371 23.3552 69.9525C23.3552 73.268 26.0429 75.9556 29.3583 75.9556Z" fill="white" fill-opacity="0.9" stroke="#8200FF" stroke-opacity="0.5" stroke-width="0.5" stroke-miterlimit="10" stroke-linecap="round" stroke-linejoin="round"/>
        <path d="M27.9656 66.4673V73.434L31.7506 69.9528L27.9656 66.4673Z" fill="#1C0903" fill-opacity="0.9" stroke="#8200FF" stroke-opacity="0.5" stroke-width="0.5" stroke-miterlimit="10" stroke-linecap="round" stroke-linejoin="round"/>
        <path d="M121.766 60.5368C124.417 60.5368 126.567 58.3874 126.567 55.736C126.567 53.0847 124.417 50.9353 121.766 50.9353C119.115 50.9353 116.965 53.0847 116.965 55.736C116.965 58.3874 119.115 60.5368 121.766 60.5368Z" fill="white" fill-opacity="0.9" stroke="#8200FF" stroke-opacity="0.5" stroke-width="0.5" stroke-miterlimit="10" stroke-linecap="round" stroke-linejoin="round"/>
        <path d="M121.766 60.016C124.13 60.016 126.046 58.0998 126.046 55.7362C126.046 53.3725 124.13 51.4563 121.766 51.4563C119.402 51.4563 117.486 53.3725 117.486 55.7362C117.486 58.0998 119.402 60.016 121.766 60.016Z" fill="white" fill-opacity="0.9" stroke="#8200FF" stroke-opacity="0.5" stroke-width="0.5" stroke-miterlimit="10" stroke-linecap="round" stroke-linejoin="round"/>
        <path d="M120.677 58.0843L120.872 56.6172H120.26V56.1745H120.941L121.085 55.0893H120.442V54.6466H121.154L121.35 53.2185H121.784L121.597 54.6466H122.374L122.569 53.2185H123.012L122.825 54.6466H123.437V55.0893H122.756L122.621 56.1745H123.264V56.6172H122.552L122.357 58.0843H121.909L122.105 56.6172H121.328L121.132 58.0843H120.677ZM122.166 56.1745L122.309 55.0893H121.532L121.389 56.1745H122.166Z" fill="black" fill-opacity="0.9"/>
        <path d="M99.8856 105.598L98.9307 106.93L100.884 106.431L100.632 107.907L102.047 107.408L101.8 108.198" stroke="#1A1A1A" stroke-opacity="0.9" stroke-width="0.5" stroke-miterlimit="10" stroke-linecap="round" stroke-linejoin="round"/>
        <path d="M27.1492 30.6133H19.5662V38.1963H27.1492V30.6133Z" fill="white" fill-opacity="0.9" stroke="#8200FF" stroke-opacity="0.5" stroke-width="0.5" stroke-miterlimit="10" stroke-linecap="round" stroke-linejoin="round"/>
        <path d="M23.3552 31.9072V36.8989" stroke="#8200FF" stroke-opacity="0.5" stroke-width="0.5" stroke-miterlimit="10" stroke-linecap="round" stroke-linejoin="round"/>
        <path d="M20.8687 34.4021H25.7822" stroke="#8200FF" stroke-opacity="0.5" stroke-width="0.5" stroke-miterlimit="10" stroke-linecap="round" stroke-linejoin="round"/>
        <path d="M118.437 40.3928C118.981 40.3928 119.422 39.9516 119.422 39.4074C119.422 38.8633 118.981 38.4221 118.437 38.4221C117.893 38.4221 117.451 38.8633 117.451 39.4074C117.451 39.9516 117.893 40.3928 118.437 40.3928Z" fill="white" fill-opacity="0.9" stroke="#8200FF" stroke-opacity="0.5" stroke-width="0.5" stroke-miterlimit="10" stroke-linecap="round" stroke-linejoin="round"/>
        <path d="M120.507 74.0063H109.069V81.4245H120.507V74.0063Z" fill="white" fill-opacity="0.9" stroke="#8200FF" stroke-opacity="0.5" stroke-width="0.5" stroke-miterlimit="10" stroke-linecap="round" stroke-linejoin="round"/>
        <path d="M114.786 77.6091L109.069 74.0063H120.507L114.786 77.6091Z" fill="white" fill-opacity="0.9" stroke="#8200FF" stroke-opacity="0.5" stroke-width="0.5" stroke-miterlimit="10" stroke-linecap="round" stroke-linejoin="round"/>
        <path d="M109.069 81.4244L113.327 76.6931" stroke="#8200FF" stroke-opacity="0.5" stroke-width="0.5" stroke-miterlimit="10" stroke-linecap="round" stroke-linejoin="round"/>
        <path d="M116.406 76.6931L120.508 81.4244" stroke="#8200FF" stroke-opacity="0.5" stroke-width="0.5" stroke-miterlimit="10" stroke-linecap="round" stroke-linejoin="round"/>
    </g>
    <defs>
        <filter id="filter0_d_867_502" x="0.75" y="0.75" width="153.076" height="128.5" filterUnits="userSpaceOnUse" color-interpolation-filters="sRGB">
            <feFlood flood-opacity="0" result="BackgroundImageFix"/>
            <feColorMatrix in="SourceAlpha" type="matrix" values="0 0 0 0 0 0 0 0 0 0 0 0 0 0 0 0 0 0 127 0" result="hardAlpha"/>
            <feOffset/>
            <feGaussianBlur stdDeviation="7"/>
            <feComposite in2="hardAlpha" operator="out"/>
            <feColorMatrix type="matrix" values="0 0 0 0 0 0 0 0 0 0 0 0 0 0 0 0 0 0 0.25 0"/>
            <feBlend mode="normal" in2="BackgroundImageFix" result="effect1_dropShadow_867_502"/>
            <feBlend mode="normal" in="SourceGraphic" in2="effect1_dropShadow_867_502" result="shape"/>
        </filter>
    </defs>
</svg>