<svg xmlns="http://www.w3.org/2000/svg" width="100" height="100" viewBox="0 0 119 102" fill="none">
    <path d="M9.70506 68.5038C13.6382 64.1552 21.75 64.9181 28.2179 68.3241C34.9421 55.1674 49.1883 51.315 57.1555 56.2817C62.4609 59.5891 65.0934 66.8766 64.5247 74.4351C65.2261 74.4648 67.4949 74.6507 69.3776 76.4122C72.4143 79.2535 71.5892 83.5212 71.5344 83.7814C75.4404 75.1322 85.6458 71.6589 93.2825 75.5135C99.9842 78.8963 103.453 87.2894 100.831 95.1048H14.1983C10.7835 95.1111 -3.05623 82.6131 9.70506 68.5038Z" stroke="#FF4200" stroke-width="0.5" stroke-linecap="round" stroke-linejoin="round"/>
    <path d="M73.9964 61.8599L72.1296 58.0811L71.2834 58.4686L73.2148 62.2862L73.9964 61.8599Z" fill="white" stroke="#FF4200" stroke-width="0.5" stroke-linecap="round" stroke-linejoin="round"/>
    <path d="M73.0918 63.6294C73.0918 63.6294 74.7455 66.3682 74.668 67.04C74.5905 67.7118 73.6086 67.531 73.6086 67.531C73.6086 67.531 72.2909 65.0763 71.7224 63.8103C71.154 62.5442 72.6009 62.26 72.6009 62.26L74.0995 61.459C74.0995 61.459 78.1303 69.598 78.3628 70.1664L76.5283 70.709L74.6299 67.1914" fill="white"/>
    <path d="M73.0918 63.6294C73.0918 63.6294 74.7455 66.3682 74.668 67.04C74.5905 67.7118 73.6086 67.531 73.6086 67.531C73.6086 67.531 72.2909 65.0763 71.7224 63.8103C71.154 62.5442 72.6009 62.26 72.6009 62.26L74.0995 61.459C74.0995 61.459 78.1303 69.598 78.3628 70.1664L76.5283 70.709L74.6299 67.1914" stroke="#FF4200" stroke-width="0.5" stroke-linecap="round" stroke-linejoin="round"/>
    <path d="M73.9188 62.4151C73.9188 62.4151 73.6862 62.5701 73.2987 62.8027C72.9111 63.0352 73.092 63.6295 73.092 63.6295M78.5955 55.8005L78.3629 69.7015C78.3629 69.7015 82.3679 70.2441 82.4195 69.7015C82.4712 69.1589 83.0655 55.9297 83.0655 55.9297L78.5955 55.8005Z" fill="white"/>
    <path d="M73.9188 62.4151C73.9188 62.4151 73.6862 62.5701 73.2987 62.8027C72.9111 63.0352 73.092 63.6295 73.092 63.6295M78.5955 55.8005L78.3629 69.7015C78.3629 69.7015 82.3679 70.2441 82.4195 69.7015C82.4712 69.1589 83.0655 55.9297 83.0655 55.9297L78.5955 55.8005Z" stroke="#FF4200" stroke-width="0.5" stroke-linecap="round" stroke-linejoin="round"/>
    <path d="M78.2078 58.5654L83.3238 58.7463L83.0654 63.578H78.1045L78.2078 58.5654Z" fill="#1C0903" stroke="#FF4200" stroke-width="0.5" stroke-linecap="round" stroke-linejoin="round"/>
    <path d="M87.2515 58.0809L86.6831 55.8007L87.6391 53.3978L90.2229 51.5632L90.6622 51.6666L91.1531 54.4829L90.1454 57.2993L88.621 58.3845L87.2515 58.0809Z" fill="#1C0903" stroke="#FF4200" stroke-width="0.5" stroke-linecap="round" stroke-linejoin="round"/>
    <path d="M89.8612 53.2947L87.9233 58.3848" stroke="white" stroke-width="0.5" stroke-linecap="round" stroke-linejoin="round"/>
    <path d="M86.9155 57.8157L83.324 69.8046L85.236 69.9424L89.1117 58.0805L86.9155 57.8157Z" fill="white" stroke="#FF4200" stroke-width="0.5" stroke-linecap="round" stroke-linejoin="round"/>
    <path d="M86.4312 70.0373L90.055 61.459L93.0005 62.3827L94.0469 63.8792L91.7021 69.2621C91.7021 69.2621 90.8689 68.952 90.8882 68.8939C90.9076 68.8358 92.5548 65.1926 92.5548 65.1926L92.0716 64.5162L89.2927 70.4248" fill="white"/>
    <path d="M86.4312 70.0373L90.055 61.459L93.0005 62.3827L94.0469 63.8792L91.7021 69.2621C91.7021 69.2621 90.8689 68.952 90.8882 68.8939C90.9076 68.8358 92.5548 65.1926 92.5548 65.1926L92.0716 64.5162L89.2927 70.4248" stroke="#FF4200" stroke-width="0.5" stroke-linecap="round" stroke-linejoin="round"/>
    <path d="M93.0006 62.3828L92.0718 64.5163" stroke="#FF4200" stroke-width="0.5" stroke-linecap="round" stroke-linejoin="round"/>
    <path d="M72.8853 71.2004L74.9523 89.0804H87.613L89.4733 71.2004H72.8853Z" fill="white" stroke="#FF4200" stroke-width="0.5" stroke-linecap="round" stroke-linejoin="round"/>
    <path d="M90.4554 69.5981H71.2834V71.8202H90.4554V69.5981Z" fill="white" stroke="#FF4200" stroke-width="0.5" stroke-linecap="round" stroke-linejoin="round"/>
    <path d="M18.482 95.1048L98.2713 95.0745C99.7374 87.4529 95.6865 80.4264 90.1323 78.5639C83.3604 76.2931 73.9413 81.5602 72.459 91.3538C71.7917 90.0157 70.4587 89.1542 69.0096 89.1317C67.1161 89.1023 65.9822 90.5202 65.8573 90.682C65.4327 85.1755 61.7769 80.4913 56.7106 78.8998C50.9884 77.1022 44.542 79.5879 41.3111 84.9976C36.108 77.9095 26.7561 76.9381 21.6741 81.2252C17.9656 84.3536 16.6245 89.6294 18.482 95.1048Z" fill="white" stroke="#FF4200" stroke-width="0.5" stroke-linecap="round" stroke-linejoin="round"/>
    <path d="M19.5046 95.0796H72.8856C72.8856 95.0796 73.6015 101.227 48.4384 101.126C23.2753 101.025 19.5046 95.0796 19.5046 95.0796Z" fill="white" stroke="#FF4200" stroke-width="0.5" stroke-linecap="round" stroke-linejoin="round"/>
    <path d="M0.53833 95.1047H118.266" stroke="#FF4200" stroke-width="0.5" stroke-linecap="round" stroke-linejoin="round"/>
    <path d="M25.1659 5.31299C25.1464 5.48672 25.1365 5.6614 25.1362 5.83622V43.6245C25.1362 44.8734 25.6324 46.0712 26.5155 46.9543C27.3986 47.8374 28.5963 48.3335 29.8452 48.3335H83.9116C85.1605 48.3335 86.3582 47.8374 87.2413 46.9543C88.1244 46.0712 88.6206 44.8734 88.6206 43.6245V5.83622C88.6203 5.6614 88.6105 5.48672 88.591 5.31299H25.1659Z" fill="white" stroke="#FF4200" stroke-width="0.5" stroke-linecap="round" stroke-linejoin="round"/>
    <path d="M83.9117 1.12695H29.8454C28.6872 1.12708 27.5696 1.55405 26.7064 2.32624C25.8431 3.09843 25.2947 4.16167 25.166 5.31271H88.5911C88.4624 4.16167 87.914 3.09843 87.0508 2.32624C86.1875 1.55405 85.07 1.12709 83.9117 1.12695Z" fill="#1C0903" stroke="#FF4200" stroke-width="0.5" stroke-linecap="round" stroke-linejoin="round"/>
    <path d="M55.6169 9.61499H29.5549V44.4965H55.6169V9.61499Z" fill="white" stroke="#FF4200" stroke-width="0.5" stroke-linecap="round" stroke-linejoin="round"/>
    <path d="M79.0865 9.61499H59.6133V44.4965H79.0865V9.61499Z" fill="white" stroke="#FF4200" stroke-width="0.5" stroke-linecap="round" stroke-linejoin="round"/>
    <path d="M81.7998 5.31299V48.3335" stroke="#FF4200" stroke-width="0.5" stroke-linecap="round" stroke-linejoin="round"/>
    <path d="M85.1716 11.2814C85.7067 11.2814 86.1405 10.8476 86.1405 10.3124C86.1405 9.77731 85.7067 9.34351 85.1716 9.34351C84.6364 9.34351 84.2026 9.77731 84.2026 10.3124C84.2026 10.8476 84.6364 11.2814 85.1716 11.2814Z" fill="white" stroke="#FF4200" stroke-width="0.5" stroke-linecap="round" stroke-linejoin="round"/>
    <path d="M85.1716 19.0975C85.7067 19.0975 86.1405 18.6637 86.1405 18.1286C86.1405 17.5935 85.7067 17.1597 85.1716 17.1597C84.6364 17.1597 84.2026 17.5935 84.2026 18.1286C84.2026 18.6637 84.6364 19.0975 85.1716 19.0975Z" fill="white" stroke="#FF4200" stroke-width="0.5" stroke-linecap="round" stroke-linejoin="round"/>
    <path d="M85.1716 26.9137C85.7067 26.9137 86.1405 26.4799 86.1405 25.9448C86.1405 25.4096 85.7067 24.9758 85.1716 24.9758C84.6364 24.9758 84.2026 25.4096 84.2026 25.9448C84.2026 26.4799 84.6364 26.9137 85.1716 26.9137Z" fill="white" stroke="#FF4200" stroke-width="0.5" stroke-linecap="round" stroke-linejoin="round"/>
    <path d="M85.1716 34.7296C85.7067 34.7296 86.1405 34.2958 86.1405 33.7607C86.1405 33.2256 85.7067 32.7917 85.1716 32.7917C84.6364 32.7917 84.2026 33.2256 84.2026 33.7607C84.2026 34.2958 84.6364 34.7296 85.1716 34.7296Z" fill="#1C0903" stroke="#FF4200" stroke-width="0.5" stroke-linecap="round" stroke-linejoin="round"/>
    <path d="M76.8772 12.0178H66.9941V12.9092H76.8772V12.0178Z" fill="white" stroke="#FF4200" stroke-width="0.5" stroke-linecap="round" stroke-linejoin="round"/>
    <path d="M76.8527 15.22H62.4614V16.1114H76.8527V15.22Z" fill="white" stroke="#FF4200" stroke-width="0.5" stroke-linecap="round" stroke-linejoin="round"/>
    <path d="M76.8527 18.1287H62.4614V19.0201H76.8527V18.1287Z" fill="white" stroke="#FF4200" stroke-width="0.5" stroke-linecap="round" stroke-linejoin="round"/>
    <path d="M76.8527 21.0371H62.4614V21.9285H76.8527V21.0371Z" fill="white" stroke="#FF4200" stroke-width="0.5" stroke-linecap="round" stroke-linejoin="round"/>
    <path d="M76.8527 23.946H62.4614V24.8375H76.8527V23.946Z" fill="white" stroke="#FF4200" stroke-width="0.5" stroke-linecap="round" stroke-linejoin="round"/>
    <path d="M61.2195 7.0957V8.10338H63.293V12.9093H64.417V8.10338H66.4905V7.0957H61.2195Z" fill="#1C0903" stroke="#FF4200" stroke-width="0.5" stroke-linecap="round" stroke-linejoin="round"/>
    <path d="M48.6944 34.426C48.6944 34.426 50.8131 44.617 54.0171 45.3922C57.221 46.1673 60.0632 41.5077 60.0632 41.5077L58.7713 41.2064L57.2081 41.4131C55.2315 42.1883 52.906 38.08 52.3634 33.4291C51.8208 28.7783 48.2551 27.3442 48.2551 27.3442M30.485 91.8578C30.2552 91.4639 30.4517 90.7488 30.6664 90.2007C29.5128 90.2663 28.4372 90.0721 27.5759 89.2091C26.8426 90.4786 25.5392 92.9344 25.8922 93.7957C26.3767 94.9778 31.5508 97.0901 32.9654 97.2645C34.3801 97.4389 34.942 96.7413 34.5157 96.1793C34.0894 95.6173 30.9888 92.3035 30.485 91.8578Z" fill="white"/>
    <path d="M48.6944 34.426C48.6944 34.426 50.8131 44.617 54.0171 45.3922C57.221 46.1673 60.0632 41.5077 60.0632 41.5077L58.7713 41.2064L57.2081 41.4131C55.2315 42.1883 52.906 38.08 52.3634 33.4291C51.8208 28.7783 48.2551 27.3442 48.2551 27.3442M30.485 91.8578C30.2552 91.4639 30.4517 90.7488 30.6664 90.2007C29.5128 90.2663 28.4372 90.0721 27.5759 89.2091C26.8426 90.4786 25.5392 92.9344 25.8922 93.7957C26.3767 94.9778 31.5508 97.0901 32.9654 97.2645C34.3801 97.4389 34.942 96.7413 34.5157 96.1793C34.0894 95.6173 30.9888 92.3035 30.485 91.8578Z" stroke="#FF4200" stroke-width="0.5" stroke-linecap="round" stroke-linejoin="round"/>
    <path d="M30.6662 90.2004C30.766 89.9456 30.8801 89.6966 31.0079 89.4546L28.043 88.4275C28.043 88.4275 27.8488 88.7361 27.5757 89.2088C28.437 90.0717 29.5126 90.266 30.6662 90.2004ZM54.7151 92.3132C54.4953 91.777 54.3075 91.302 54.3075 91.302L51.2069 92.1805C51.2069 92.1805 51.3263 92.6307 51.5079 93.2762C52.628 93.3647 53.6803 92.8662 54.7151 92.3132Z" fill="#1C0903" stroke="#FF4200" stroke-width="0.5" stroke-linecap="round" stroke-linejoin="round"/>
    <path d="M61.5939 97.6842C61.4647 96.7281 59.0618 95.5913 57.6148 94.8678C56.1679 94.1443 55.5478 94.041 55.3669 93.7826C55.2697 93.6437 54.9708 92.9371 54.7152 92.3134C53.6804 92.8663 52.628 93.3648 51.508 93.2764C51.9118 94.7118 52.6236 97.1138 53.0157 97.6842C53.5841 98.511 61.7231 98.6402 61.5939 97.6842ZM50.2768 43.2432C50.2768 43.2432 50.8711 44.4834 50.7419 46.7572C50.6127 49.0309 48.9591 57.6609 45.8068 63.8103C42.6546 69.9598 32.9653 89.5193 31.415 89.881C29.8647 90.2428 27.2809 88.5891 27.5392 87.9948C27.7976 87.4006 37.1772 62.3634 38.9082 57.325C40.6392 52.2865 42.267 44.4576 42.267 44.4576" fill="white"/>
    <path d="M50.2768 43.2432C50.2768 43.2432 50.8711 44.4834 50.7419 46.7572C50.6127 49.0309 48.9591 57.6609 45.8068 63.8103C42.6546 69.9598 32.9653 89.5193 31.415 89.881C29.8647 90.2428 27.2809 88.5891 27.5392 87.9948C27.7976 87.4006 37.1772 62.3634 38.9082 57.325C40.6392 52.2865 42.267 44.4576 42.267 44.4576M61.5939 97.6842C61.4647 96.7281 59.0618 95.5913 57.6148 94.8678C56.1679 94.1443 55.5478 94.041 55.3669 93.7826C55.2697 93.6437 54.9708 92.9371 54.7152 92.3134C53.6804 92.8663 52.628 93.3648 51.508 93.2764C51.9118 94.7118 52.6236 97.1138 53.0157 97.6842C53.5841 98.511 61.7231 98.6402 61.5939 97.6842Z" stroke="#FF4200" stroke-width="0.5" stroke-linecap="round" stroke-linejoin="round"/>
    <path d="M47.0214 49.0052C47.1764 49.6253 46.9439 50.1421 46.8147 51.6149C46.6855 53.0876 48.9076 64.2755 49.3727 66.4976C49.8377 68.7197 55.2638 89.6615 55.5738 90.5788C55.8839 91.496 54.4757 92.4004 52.6541 92.6846C50.8325 92.9688 50.3287 91.8707 50.0703 91.4056C49.8119 90.9405 34.8258 56.5112 34.2832 52.1704C33.8866 48.9977 34.8565 46.0666 35.4072 44.7188C35.61 44.2225 35.756 43.9409 35.756 43.9409L46.5305 44.6902" fill="white"/>
    <path d="M47.0214 49.0052C47.1764 49.6253 46.9439 50.1421 46.8147 51.6149C46.6855 53.0876 48.9076 64.2755 49.3727 66.4976C49.8377 68.7197 55.2638 89.6615 55.5738 90.5788C55.8839 91.496 54.4757 92.4004 52.6541 92.6846C50.8325 92.9688 50.3287 91.8707 50.0703 91.4056C49.8119 90.9405 34.8258 56.5112 34.2832 52.1704C33.8866 48.9977 34.8565 46.0666 35.4072 44.7188C35.61 44.2225 35.756 43.9409 35.756 43.9409L46.5305 44.6902" stroke="#FF4200" stroke-width="0.5" stroke-linecap="round" stroke-linejoin="round"/>
    <path d="M35.9162 44.6987C35.9162 44.6987 36.1906 45.7954 41.0734 46.4961C45.9562 47.1968 47.5391 45.8993 49.1268 45.5242C49.1268 45.5242 50.7227 44.6437 50.6341 44.3692L50.2767 43.2432L35.7556 43.9408L35.5825 44.3075L35.9162 44.6987Z" fill="#1C0903" stroke="#FF4200" stroke-width="0.5" stroke-linecap="round" stroke-linejoin="round"/>
    <path d="M48.2549 26.1997C48.2549 26.1997 49.7664 26.2805 51.2586 28.761C52.7507 31.2414 52.9833 33.2762 53.0026 33.3343C53.022 33.3924 53.0802 33.78 52.46 34.0901C51.8399 34.4001 50.7547 35.0009 50.7547 35.0009" fill="#FA7F54"/>
    <path d="M48.2549 26.1997C48.2549 26.1997 49.7664 26.2805 51.2586 28.761C52.7507 31.2414 52.9833 33.2762 53.0026 33.3343C53.022 33.3924 53.0802 33.78 52.46 34.0901C51.8399 34.4001 50.7547 35.0009 50.7547 35.0009" stroke="#FF4200" stroke-width="0.5" stroke-linecap="round" stroke-linejoin="round"/>
    <path d="M45.5746 24.4075C45.5746 24.4075 47.8742 24.9759 48.701 26.2937C49.5278 27.6114 51.414 30.6991 51.1039 36.4739C50.7939 42.2487 50.6389 43.4502 50.6389 43.4502C50.6389 43.4502 49.98 45.1555 47.422 45.5818C44.864 46.0082 39.7481 46.9771 36.0274 44.4579C35.4848 43.954 34.5158 43.7215 35.6398 39.8845C36.7638 36.0476 38.3916 28.2574 38.3916 28.2574L40.3553 25.286" fill="#FA7F54"/>
    <path d="M45.5746 24.4075C45.5746 24.4075 47.8742 24.9759 48.701 26.2937C49.5278 27.6114 51.414 30.6991 51.1039 36.4739C50.7939 42.2487 50.6389 43.4502 50.6389 43.4502C50.6389 43.4502 49.98 45.1555 47.422 45.5818C44.864 46.0082 39.7481 46.9771 36.0274 44.4579C35.4848 43.954 34.5158 43.7215 35.6398 39.8845C36.7638 36.0476 38.3916 28.2574 38.3916 28.2574L40.3553 25.286" stroke="#FF4200" stroke-width="0.5" stroke-linecap="round" stroke-linejoin="round"/>
    <path d="M46.2463 21.0743C45.8846 21.7203 45.7037 24.0199 46.2463 25.2859C44.7477 26.8621 41.3112 26.0869 40.3552 25.2859C42.784 22.7796 42.8099 19.4465 42.8099 19.4465C42.8099 19.4465 41.1175 15.7387 43.3008 14.6148C45.4841 13.4908 48.1583 14.6148 48.1583 14.6148C48.1583 14.6148 49.1273 15.5837 48.8172 18.1223C48.5793 20.0703 48.0227 21.0872 46.9569 21.0872C45.8911 21.0872 45.366 20.9797 45.0384 20.8547" fill="white"/>
    <path d="M46.2463 21.0743C45.8846 21.7203 45.7037 24.0199 46.2463 25.2859C44.7477 26.8621 41.3112 26.0869 40.3552 25.2859C42.784 22.7796 42.8099 19.4465 42.8099 19.4465C42.8099 19.4465 41.1175 15.7387 43.3008 14.6148C45.4841 13.4908 48.1583 14.6148 48.1583 14.6148C48.1583 14.6148 49.1273 15.5837 48.8172 18.1223C48.5793 20.0703 48.0227 21.0872 46.9569 21.0872C45.8911 21.0872 45.366 20.9797 45.0384 20.8547" stroke="#FF4200" stroke-width="0.5" stroke-linecap="round" stroke-linejoin="round"/>
    <path d="M44.1535 17.8701C44.1535 17.8701 44.4894 20.1955 43.5593 20.9449C42.6291 21.6942 42.4482 21.7975 41.5956 21.6166C40.7429 21.4358 39.2184 21.4368 39.1668 20.1573C39.1151 18.8778 39.5156 17.9347 40.4458 17.405C40.4458 17.405 39.3606 16.4749 40.0065 14.7954C40.6525 13.1159 41.9702 13.4389 41.9702 13.4389C41.9702 13.4389 41.7118 11.6948 44.076 10.7905C46.4402 9.88612 49.3987 11.3589 49.4116 14.6662C49.2307 15.6222 48.8044 15.6997 48.8044 15.6997C48.8044 15.6997 45.8072 14.8212 45.1095 15.7126C44.8512 16.1519 44.8512 16.0706 44.7349 16.1112C44.6186 16.1519 43.5851 14.3949 42.7454 15.7126C41.9056 17.0304 44.1535 17.8701 44.1535 17.8701Z" fill="#1C0903" stroke="#FF4200" stroke-width="0.5" stroke-linecap="round" stroke-linejoin="round"/>
    <path d="M56.0646 28.9934L50.0959 39.9617L56.8785 43.8296L62.7696 33.2567L56.0646 28.9934Z" fill="white" stroke="#FF4200" stroke-width="0.5" stroke-linecap="round" stroke-linejoin="round"/>
    <path d="M35.2907 37.2493C35.2907 37.2493 35.1752 43.2372 38.7789 43.7605C42.7136 44.3318 47.3054 41.3058 50.1993 37.7919C51.4396 37.9727 52.7831 38.4249 53.3387 38.0502C53.8942 37.6756 54.2172 37.2234 53.5583 36.6937C52.8994 36.1641 51.863 35.4936 50.7548 35.5439C49.9022 35.5827 49.3208 35.4793 47.9902 36.6937C47.9902 36.6937 44.6312 39.3227 42.7321 39.6909C40.833 40.0592 40.4446 37.4042 40.4842 36.9392" fill="white"/>
    <path d="M35.2907 37.2493C35.2907 37.2493 35.1752 43.2372 38.7789 43.7605C42.7136 44.3318 47.3054 41.3058 50.1993 37.7919C51.4396 37.9727 52.7831 38.4249 53.3387 38.0502C53.8942 37.6756 54.2172 37.2234 53.5583 36.6937C52.8994 36.1641 51.863 35.4936 50.7548 35.5439C49.9022 35.5827 49.3208 35.4793 47.9902 36.6937C47.9902 36.6937 44.6312 39.3227 42.7321 39.6909C40.833 40.0592 40.4446 37.4042 40.4842 36.9392" stroke="#FF4200" stroke-width="0.5" stroke-linecap="round" stroke-linejoin="round"/>
    <path d="M40.3551 25.2859C40.3551 25.2859 39.089 26.061 37.5129 27.2754C35.9367 28.4898 34.7999 31.2803 35.2908 37.249C37.4095 37.5849 40.0192 37.4557 40.4843 36.9389C40.6393 34.7943 41.1431 33.1407 41.0656 32.0555" fill="#FA7F54"/>
    <path d="M40.3551 25.2859C40.3551 25.2859 39.089 26.061 37.5129 27.2754C35.9367 28.4898 34.7999 31.2803 35.2908 37.249C37.4095 37.5849 40.0192 37.4557 40.4843 36.9389C40.6393 34.7943 41.1431 33.1407 41.0656 32.0555" stroke="#FF4200" stroke-width="0.5" stroke-linecap="round" stroke-linejoin="round"/>
    <path d="M58.8653 41.4924C57.6318 41.6653 57.6444 40.6979 57.7704 40.1069C57.9272 39.3709 58.4389 38.3143 59.4466 38.4597C59.6369 38.4881 59.8175 38.5617 59.9735 38.6743C60.1266 38.7834 59.8762 37.8243 60.3929 37.8428C61.1004 37.8681 60.74 40.6638 59.9728 41.6491" fill="white"/>
    <path d="M58.8653 41.4924C57.6318 41.6653 57.6444 40.6979 57.7704 40.1069C57.9272 39.3709 58.4389 38.3143 59.4466 38.4597C59.6369 38.4881 59.8175 38.5617 59.9735 38.6743C60.1266 38.7834 59.8762 37.8243 60.3929 37.8428C61.1004 37.8681 60.74 40.6638 59.9728 41.6491" stroke="#FF4200" stroke-width="0.5" stroke-linecap="round" stroke-linejoin="round"/>
    <path d="M102.868 45.258C104.39 45.258 105.624 44.0241 105.624 42.502C105.624 40.98 104.39 39.7461 102.868 39.7461C101.346 39.7461 100.112 40.98 100.112 42.502C100.112 44.0241 101.346 45.258 102.868 45.258Z" stroke="#FF4200" stroke-width="0.5" stroke-linecap="round" stroke-linejoin="round"/>
    <path d="M11.6721 41.6493C13.8504 41.6493 15.6163 39.8834 15.6163 37.705C15.6163 35.5267 13.8504 33.7607 11.6721 33.7607C9.4937 33.7607 7.72778 35.5267 7.72778 37.705C7.72778 39.8834 9.4937 41.6493 11.6721 41.6493Z" fill="white" stroke="#FF4200" stroke-width="0.5" stroke-linecap="round" stroke-linejoin="round"/>
    <path d="M19.5603 59.4573C22.0365 59.4573 24.0438 57.45 24.0438 54.9739C24.0438 52.4978 22.0365 50.4905 19.5603 50.4905C17.0842 50.4905 15.0769 52.4978 15.0769 54.9739C15.0769 57.45 17.0842 59.4573 19.5603 59.4573Z" fill="white" stroke="#FF4200" stroke-width="0.5" stroke-linecap="round" stroke-linejoin="round"/>
    <path d="M20.6568 57.1486C20.2593 57.3583 19.8545 57.4378 19.3703 57.4378C18.1849 57.4378 17.1802 56.5704 17.1802 55.1826C17.1802 53.6937 18.2138 52.4071 19.8184 52.4071C21.0761 52.4071 21.9217 53.2889 21.9217 54.496C21.9217 55.5802 21.3146 56.2162 20.6352 56.2162C20.346 56.2162 20.0786 56.0211 20.1003 55.5802H20.0714C19.8184 56.0066 19.4859 56.2162 19.0522 56.2162C18.633 56.2162 18.2716 55.8765 18.2716 55.3055C18.2708 55.0803 18.3145 54.8572 18.4003 54.649C18.4861 54.4408 18.6123 54.2516 18.7715 54.0924C18.9308 53.9332 19.1199 53.807 19.3281 53.7212C19.5363 53.6354 19.7594 53.5917 19.9846 53.5925C20.2502 53.5886 20.5136 53.6403 20.758 53.7443L20.5123 55.0525C20.4039 55.6019 20.4906 55.8548 20.7291 55.8621C21.0977 55.8693 21.5097 55.3778 21.5097 54.5393C21.5097 53.4913 20.8809 52.7396 19.7606 52.7396C18.5824 52.7396 17.5922 53.672 17.5922 55.1393C17.5922 56.3463 18.38 57.0908 19.4498 57.0908C19.8618 57.0908 20.2448 57.0041 20.5412 56.8378L20.6568 57.1486ZM20.2593 54.0262C20.142 53.9917 20.0202 53.9746 19.8979 53.9756C19.2618 53.9756 18.7487 54.5755 18.7487 55.2766C18.7487 55.5946 18.9077 55.8259 19.2257 55.8259C19.6449 55.8259 20.028 55.2911 20.1075 54.8429L20.2593 54.0262ZM34.6109 12.4087H22.4682C21.9065 12.4087 21.3678 12.6318 20.9706 13.029C20.5734 13.4262 20.3502 13.9649 20.3502 14.5267V17.0771C20.3502 17.6388 20.5734 18.1775 20.9706 18.5747C21.3678 18.9719 21.9065 19.1951 22.4682 19.1951H32.1656C32.591 19.8138 33.309 20.8234 33.9293 21.6903C34.2429 22.1287 34.934 21.8606 34.8705 21.3253L34.6177 19.1949C35.1782 19.1931 35.7152 18.9692 36.1109 18.5722C36.5066 18.1753 36.7288 17.6376 36.7288 17.0771V14.5267C36.7288 13.9649 36.5057 13.4262 36.1085 13.029C35.7113 12.6318 35.1726 12.4087 34.6109 12.4087Z" fill="white" stroke="#FF4200" stroke-width="0.5" stroke-linecap="round" stroke-linejoin="round"/>
    <path d="M33.6698 13.7842H22.8257V14.7428H33.6698V13.7842Z" fill="white" stroke="#FF4200" stroke-width="0.5" stroke-linecap="round" stroke-linejoin="round"/>
    <path d="M33.6698 16.2009H22.8257V17.1595H33.6698V16.2009Z" fill="white" stroke="#FF4200" stroke-width="0.5" stroke-linecap="round" stroke-linejoin="round"/>
</svg>