<svg xmlns="http://www.w3.org/2000/svg" width="100" height="100" viewBox="0 0 138 129" fill="none">
    <g filter="url(#filter0_d_867_762)">
        <path d="M40.0517 25.5676H32.8333V32.786H40.0517V25.5676Z" fill="white" stroke="#1A1A1A" stroke-width="0.5" stroke-linecap="round" stroke-linejoin="round"/>
        <path d="M36.4424 26.8008V31.5526" stroke="#1A1A1A" stroke-width="0.5" stroke-linecap="round" stroke-linejoin="round"/>
        <path d="M34.0754 29.1765H38.7508" stroke="#1A1A1A" stroke-width="0.5" stroke-linecap="round" stroke-linejoin="round"/>
        <path d="M96.6072 50.9949C98.0824 51.8862 99.8046 52.2409 101.485 52.6085C103.165 52.9761 104.884 53.3899 106.3 54.3737C107.716 55.3575 108.782 57.0471 108.55 58.7676C108.293 60.6712 106.604 62.0244 104.933 62.9423C103.398 63.7856 101.74 64.4618 100.443 65.6452C99.147 66.8286 98.2717 68.7135 98.868 70.3725C99.2733 71.5003 100.257 72.2955 101.197 73.0289C102.137 73.7622 103.123 74.5538 103.535 75.6792C103.947 76.8046 103.491 78.3406 102.338 78.6276" stroke="#1A1A1A" stroke-width="0.5" stroke-linecap="round" stroke-linejoin="round"/>
        <path d="M96.5649 48.3499C98.0239 50.3387 100.514 51.2877 102.939 51.6438C105.364 51.9999 107.839 51.8664 110.267 52.2055C112.694 52.5445 115.191 53.4549 116.691 55.4125C117.854 56.9309 118.248 59.1779 117.208 60.7848C116.568 61.7731 115.503 62.3872 114.448 62.8961C113.393 63.405 112.285 63.8611 111.422 64.6576C110.559 65.4542 109.981 66.6993 110.332 67.8257C110.602 68.6907 111.341 69.3024 111.92 69.9961C113.905 72.3777 113.919 76.2038 111.951 78.6003" stroke="#1A1A1A" stroke-width="0.5" stroke-linecap="round" stroke-linejoin="round"/>
        <path d="M81.4889 114.529C92.4127 114.529 101.268 112.193 101.268 109.313C101.268 106.432 92.4127 104.097 81.4889 104.097C70.565 104.097 61.7095 106.432 61.7095 109.313C61.7095 112.193 70.565 114.529 81.4889 114.529Z" fill="white" stroke="#1A1A1A" stroke-width="0.5" stroke-linecap="round" stroke-linejoin="round"/>
        <path d="M97.3465 17.7159C97.3465 17.2974 97.2641 16.8829 97.1039 16.4962C96.9437 16.1095 96.7089 15.7581 96.413 15.4621C96.117 15.1661 95.7656 14.9314 95.3789 14.7712C94.9922 14.611 94.5777 14.5286 94.1591 14.5286H50.1488C49.7302 14.5286 49.3158 14.611 48.929 14.7712C48.5423 14.9314 48.191 15.1661 47.895 15.4621C47.599 15.7581 47.3642 16.1095 47.204 16.4962C47.0439 16.8829 46.9614 17.2974 46.9614 17.7159V18.0837H97.3465V17.7159Z" fill="#1C0903" stroke="#1A1A1A" stroke-width="0.5" stroke-linecap="round" stroke-linejoin="round"/>
        <path d="M46.9614 18.084V52.5093C46.9614 52.9279 47.0439 53.3423 47.204 53.729C47.3642 54.1158 47.599 54.4671 47.895 54.7631C48.191 55.0591 48.5423 55.2939 48.929 55.4541C49.3158 55.6142 49.7302 55.6967 50.1488 55.6967H94.1591C94.5777 55.6967 94.9922 55.6142 95.3789 55.4541C95.7656 55.2939 96.117 55.0591 96.413 54.7631C96.7089 54.4671 96.9437 54.1158 97.1039 53.729C97.2641 53.3423 97.3465 52.9279 97.3465 52.5093V18.084H46.9614Z" fill="white" stroke="#1A1A1A" stroke-width="0.5" stroke-linecap="round" stroke-linejoin="round"/>
        <path d="M69.9167 34.1338V34.6337H69.4167" stroke="#1A1A1A" stroke-width="0.5" stroke-linecap="round" stroke-linejoin="round"/>
        <path d="M68.3862 34.6335H52.4199" stroke="#1A1A1A" stroke-width="0.5" stroke-linecap="round" stroke-linejoin="round" stroke-dasharray="27.83 27.83"/>
        <path d="M51.9052 34.6337H51.4053V34.1338" stroke="#1A1A1A" stroke-width="0.5" stroke-linecap="round" stroke-linejoin="round"/>
        <path d="M51.4053 33.1827V22.2466" stroke="#1A1A1A" stroke-width="0.5" stroke-linecap="round" stroke-linejoin="round" stroke-dasharray="25.69 25.69"/>
        <path d="M51.4053 21.7709V21.271H51.9052" stroke="#1A1A1A" stroke-width="0.5" stroke-linecap="round" stroke-linejoin="round"/>
        <path d="M52.9351 21.271H68.9014" stroke="#1A1A1A" stroke-width="0.5" stroke-linecap="round" stroke-linejoin="round" stroke-dasharray="27.83 27.83"/>
        <path d="M69.4167 21.271H69.9167V21.7709" stroke="#1A1A1A" stroke-width="0.5" stroke-linecap="round" stroke-linejoin="round"/>
        <path d="M69.9165 22.7222V33.6583" stroke="#1A1A1A" stroke-width="0.5" stroke-linecap="round" stroke-linejoin="round" stroke-dasharray="25.69 25.69"/>
        <path d="M92.9023 51.5598V52.0597H92.4023" stroke="#1A1A1A" stroke-width="0.5" stroke-linecap="round" stroke-linejoin="round"/>
        <path d="M91.3726 52.0605H75.4062" stroke="#1A1A1A" stroke-width="0.5" stroke-linecap="round" stroke-linejoin="round" stroke-dasharray="27.83 27.83"/>
        <path d="M74.891 52.0597H74.3911V51.5598" stroke="#1A1A1A" stroke-width="0.5" stroke-linecap="round" stroke-linejoin="round"/>
        <path d="M74.3911 50.5334V22.2852" stroke="#1A1A1A" stroke-width="0.5" stroke-linecap="round" stroke-linejoin="round" stroke-dasharray="27.75 27.75"/>
        <path d="M74.3911 21.7709V21.271H74.891" stroke="#1A1A1A" stroke-width="0.5" stroke-linecap="round" stroke-linejoin="round"/>
        <path d="M75.9211 21.271H91.8875" stroke="#1A1A1A" stroke-width="0.5" stroke-linecap="round" stroke-linejoin="round" stroke-dasharray="27.83 27.83"/>
        <path d="M92.4023 21.271H92.9023V21.7709" stroke="#1A1A1A" stroke-width="0.5" stroke-linecap="round" stroke-linejoin="round"/>
        <path d="M92.9023 22.7986V51.0469" stroke="#1A1A1A" stroke-width="0.5" stroke-linecap="round" stroke-linejoin="round" stroke-dasharray="27.75 27.75"/>
        <path d="M92.0024 21.9514H75.2915V51.3806H92.0024V21.9514Z" fill="white" stroke="#1A1A1A" stroke-width="0.5" stroke-linecap="round" stroke-linejoin="round"/>
        <path d="M69.9167 51.5598V52.0597H69.4167" stroke="#1A1A1A" stroke-width="0.5" stroke-linecap="round" stroke-linejoin="round"/>
        <path d="M68.3862 52.0605H52.4199" stroke="#1A1A1A" stroke-width="0.5" stroke-linecap="round" stroke-linejoin="round" stroke-dasharray="27.83 27.83"/>
        <path d="M51.9052 52.0597H51.4053V51.5598" stroke="#1A1A1A" stroke-width="0.5" stroke-linecap="round" stroke-linejoin="round"/>
        <path d="M51.4053 50.5417V38.8301" stroke="#1A1A1A" stroke-width="0.5" stroke-linecap="round" stroke-linejoin="round" stroke-dasharray="27.51 27.51"/>
        <path d="M51.4053 38.321V37.821H51.9052" stroke="#1A1A1A" stroke-width="0.5" stroke-linecap="round" stroke-linejoin="round"/>
        <path d="M52.9351 37.821H68.9014" stroke="#1A1A1A" stroke-width="0.5" stroke-linecap="round" stroke-linejoin="round" stroke-dasharray="27.83 27.83"/>
        <path d="M69.4167 37.821H69.9167V38.321" stroke="#1A1A1A" stroke-width="0.5" stroke-linecap="round" stroke-linejoin="round"/>
        <path d="M69.9165 39.3394V51.051" stroke="#1A1A1A" stroke-width="0.5" stroke-linecap="round" stroke-linejoin="round" stroke-dasharray="27.51 27.51"/>
        <path d="M69.0038 38.5234H52.3176V51.3586H69.0038V38.5234Z" fill="white" stroke="#1A1A1A" stroke-width="0.5" stroke-linecap="round" stroke-linejoin="round"/>
        <path d="M64.7368 33.9798C62.367 35.0829 60.2415 36.3503 60.2415 36.3503C60.2415 36.3503 58.1169 35.0829 55.7471 33.9798C53.3765 32.8766 53.4178 31.7528 53.4178 31.7528V22.7012C53.4178 20.3315 56.9724 19.678 56.9724 19.678H63.5106C63.5106 19.678 67.0661 20.3315 67.0661 22.7012V31.7528C67.0661 31.7528 67.1065 32.8766 64.7368 33.9798Z" fill="white" stroke="#1A1A1A" stroke-width="0.5" stroke-linecap="round" stroke-linejoin="round"/>
        <path d="M60.2417 34.6623C59.399 34.1853 57.9422 33.3891 56.3641 32.6545C55.289 32.1542 54.9625 31.7317 54.8796 31.5953V22.7011C54.8796 21.8331 56.5231 21.2835 57.127 21.1396H63.3572C63.9542 21.2814 65.6045 21.8315 65.6045 22.7011V31.5948C65.5215 31.7313 65.195 32.1541 64.12 32.6545C62.5419 33.3892 61.0847 34.1853 60.2417 34.6623Z" fill="white" stroke="#1A1A1A" stroke-width="0.5" stroke-linecap="round" stroke-linejoin="round"/>
        <path d="M62.7552 26.6347V25.7229C62.7555 25.3541 62.6831 24.9889 62.5422 24.6481C62.4013 24.3073 62.1946 23.9976 61.9339 23.7367C61.6733 23.4758 61.3638 23.2689 61.0231 23.1277C60.6824 22.9865 60.3172 22.9138 59.9484 22.9138C59.5796 22.9138 59.2145 22.9865 58.8738 23.1277C58.5331 23.2689 58.2236 23.4758 57.9629 23.7367C57.7022 23.9976 57.4955 24.3073 57.3546 24.6481C57.2137 24.9889 57.1413 25.3541 57.1416 25.7229V26.6347C57.1416 26.7715 57.196 26.9027 57.2927 26.9995C57.3895 27.0962 57.5207 27.1506 57.6575 27.1506C57.7943 27.1506 57.9256 27.0962 58.0223 26.9995C58.1191 26.9027 58.1734 26.7715 58.1734 26.6347L58.1734 25.7229C58.1736 25.2523 58.3607 24.801 58.6936 24.4683C59.0264 24.1356 59.4778 23.9487 59.9484 23.9487C60.419 23.9487 60.8704 24.1356 61.2033 24.4683C61.5361 24.801 61.7232 25.2523 61.7235 25.7229V26.6347C61.7235 26.7715 61.7778 26.9027 61.8746 26.9995C61.9713 27.0962 62.1025 27.1506 62.2394 27.1506C62.3762 27.1506 62.5074 27.0962 62.6042 26.9995C62.7009 26.9027 62.7553 26.7715 62.7553 26.6347H62.7552Z" fill="#1C0903" stroke="#1A1A1A" stroke-width="0.5" stroke-linecap="round" stroke-linejoin="round"/>
        <path d="M51.7425 17.1236C52.2841 17.1236 52.7232 16.6845 52.7232 16.1429C52.7232 15.6012 52.2841 15.1621 51.7425 15.1621C51.2008 15.1621 50.7617 15.6012 50.7617 16.1429C50.7617 16.6845 51.2008 17.1236 51.7425 17.1236Z" fill="white" stroke="#1A1A1A" stroke-width="0.5" stroke-linecap="round" stroke-linejoin="round"/>
        <path d="M55.4202 17.1236C55.9618 17.1236 56.4009 16.6845 56.4009 16.1429C56.4009 15.6012 55.9618 15.1621 55.4202 15.1621C54.8785 15.1621 54.4395 15.6012 54.4395 16.1429C54.4395 16.6845 54.8785 17.1236 55.4202 17.1236Z" fill="white" stroke="#1A1A1A" stroke-width="0.5" stroke-linecap="round" stroke-linejoin="round"/>
        <path d="M59.0979 17.1236C59.6396 17.1236 60.0787 16.6845 60.0787 16.1429C60.0787 15.6012 59.6396 15.1621 59.0979 15.1621C58.5563 15.1621 58.1172 15.6012 58.1172 16.1429C58.1172 16.6845 58.5563 17.1236 59.0979 17.1236Z" fill="white" stroke="#1A1A1A" stroke-width="0.5" stroke-linecap="round" stroke-linejoin="round"/>
        <path d="M32.1345 103.189H100.471C109.476 100.96 110.235 92.7844 107.188 87.5848C104.577 83.1285 99.8547 80.6881 92.6316 83.2039C86.3583 75.898 75.8823 72.5513 66.5582 74.721C56.7327 77.0074 52.4087 84.4368 51.7321 85.6481C49.8948 83.6281 43.9035 77.4239 38.951 78.4592C33.4874 79.6015 30.015 89.403 32.1345 103.189Z" stroke="#1A1A1A" stroke-width="0.5" stroke-linecap="round" stroke-linejoin="round"/>
        <path d="M38.7619 103.208H97.2091C99.5653 99.5324 99.3894 95.1285 97.0309 92.5164C95.1592 90.4433 92.514 90.1644 91.6851 90.1108C91.0504 88.3464 89.4872 84.8994 85.983 82.894C80.4619 79.7343 72.3106 81.4051 66.3818 87.527C65.5791 84.597 62.5772 83.0006 60.0559 83.7849C57.9521 84.4394 56.4704 86.6619 56.6703 89.1307C51.2576 85.5273 44.2998 86.3951 40.5438 90.6453C37.6527 93.9169 36.9803 98.8285 38.7619 103.208Z" fill="white" stroke="#1A1A1A" stroke-width="0.5" stroke-linecap="round" stroke-linejoin="round"/>
        <path d="M25.3975 103.208H107.188" stroke="#1A1A1A" stroke-width="0.5" stroke-linecap="round" stroke-linejoin="round"/>
        <path d="M82.2531 104.768C82.0368 104.313 81.8251 103.965 81.8251 103.965L78.7958 104.827C78.7958 104.827 78.5793 105.025 78.2522 105.345C79.4113 106.013 81.0794 105.56 82.2531 104.768Z" fill="#1C0903" stroke="#1A1A1A" stroke-width="0.5" stroke-linecap="round" stroke-linejoin="round"/>
        <path d="M78.2521 105.345C77.1522 106.42 74.7981 108.871 75.1872 109.786C75.6921 110.974 77.4741 110.217 78.7214 109.4C79.9687 108.583 82.7901 106.98 82.701 106.118C82.6581 105.704 82.4536 105.19 82.2529 104.768C81.0793 105.56 79.4112 106.013 78.2521 105.345Z" fill="white" stroke="#1A1A1A" stroke-width="0.5" stroke-linecap="round" stroke-linejoin="round"/>
        <path d="M87.9627 105.079C87.8984 104.588 87.8441 104.257 87.8441 104.257L85.0524 104.792C84.8746 105.013 84.7102 105.245 84.5601 105.487C85.564 106.268 87.0465 105.842 87.9627 105.079Z" fill="#1C0903" stroke="#1A1A1A" stroke-width="0.5" stroke-linecap="round" stroke-linejoin="round"/>
        <path d="M87.9626 105.08C87.0465 105.842 85.564 106.269 84.56 105.487C84.3473 105.827 84.1171 106.256 83.9832 106.693C83.6862 107.663 82.3003 111.94 83.5872 112.276C84.8742 112.613 86.5967 111.484 87.0521 109.96C87.5075 108.435 88.2202 108.158 88.141 106.871C88.1014 106.227 88.027 105.573 87.9626 105.08ZM74.0839 64.2731C74.0839 64.2731 67.1836 75.5884 67.3618 80.3105C67.54 85.0326 77.4891 104.693 78.4988 105.168C79.5086 105.644 81.4687 104.842 82.1221 104.248C82.7755 103.654 81.6766 100.654 81.2014 99.1989C80.7262 97.7437 78.7166 89.0914 75.6675 84.2604C78.281 80.5382 81.2113 75.628 81.6469 72.0245C82.0825 68.4211 82.4538 63.8862 82.4538 63.8862" fill="white"/>
        <path d="M74.0839 64.2731C74.0839 64.2731 67.1836 75.5884 67.3618 80.3105C67.54 85.0326 77.4891 104.693 78.4988 105.168C79.5086 105.644 81.4687 104.842 82.1221 104.248C82.7755 103.654 81.6766 100.654 81.2014 99.1989C80.7262 97.7437 78.7166 89.0914 75.6675 84.2604C78.281 80.5382 81.2113 75.628 81.6469 72.0245C82.0825 68.4211 82.4538 63.8862 82.4538 63.8862M87.9626 105.08C87.0465 105.842 85.564 106.269 84.56 105.487C84.3473 105.827 84.1171 106.256 83.9832 106.693C83.6862 107.663 82.3003 111.94 83.5872 112.276C84.8742 112.613 86.5967 111.484 87.0521 109.96C87.5075 108.435 88.2202 108.158 88.141 106.871C88.1014 106.227 88.027 105.573 87.9626 105.08Z" stroke="#1A1A1A" stroke-width="0.5" stroke-linecap="round" stroke-linejoin="round"/>
        <path d="M80.3401 70.4006C80.3401 70.4006 82.583 84.1412 83.3623 87.7447C83.6268 92.2589 84.102 104.059 84.4584 104.732C84.8147 105.406 87.7846 106 88.2598 103.901C88.735 101.802 89.9229 96.4563 89.5665 91.2689C89.3686 86.9527 91.0713 82.6365 91.4673 80.9734C91.8632 79.3102 94.3975 68.4603 90.9129 62.9165L79.9045 63.0749" fill="white"/>
        <path d="M80.3401 70.4006C80.3401 70.4006 82.583 84.1412 83.3623 87.7447C83.6268 92.2589 84.102 104.059 84.4584 104.732C84.8147 105.406 87.7846 106 88.2598 103.901C88.735 101.802 89.9229 96.4563 89.5665 91.2689C89.3686 86.9527 91.0713 82.6365 91.4673 80.9734C91.8632 79.3102 94.3975 68.4603 90.9129 62.9165L79.9045 63.0749" stroke="#1A1A1A" stroke-width="0.5" stroke-linecap="round" stroke-linejoin="round"/>
        <path d="M78.8847 66.0547C81.4982 65.9314 82.894 66.3868 84.2305 66.2504C85.5669 66.1141 90.7813 65.6852 91.5103 64.0435C91.0513 62.6393 74.2814 63.8858 74.2814 63.8858L73.478 65.2965C73.478 65.2965 73.8953 66.6783 78.8847 66.0547Z" fill="#1C0903" stroke="#1A1A1A" stroke-width="0.5" stroke-linecap="round" stroke-linejoin="round"/>
        <path d="M74.242 56.4227C74.242 56.4227 74.44 59.4718 73.8064 60.8973C73.1728 62.3228 72.4996 65.5699 75.1527 65.4907C77.8058 65.4115 80.4738 65.0629 82.0478 65.4921C83.6218 65.9213 90.3783 65.2234 91.5663 63.0851C92.7542 60.9468 93.7343 54.027 93.4373 52.542C93.1403 51.0571 91.8133 43.9888 89.2545 43.3948C86.6957 42.8009 77.3702 43.9888 77.3702 43.9888" fill="#FF1B6B" fill-opacity="0.4"/>
        <path d="M74.242 56.4227C74.242 56.4227 74.44 59.4718 73.8064 60.8973C73.1728 62.3228 72.4996 65.5699 75.1527 65.4907C77.8058 65.4115 80.4738 65.0629 82.0478 65.4921C83.6218 65.9213 90.3783 65.2234 91.5663 63.0851C92.7542 60.9468 93.7343 54.027 93.4373 52.542C93.1403 51.0571 91.8133 43.9888 89.2545 43.3948C86.6957 42.8009 77.3702 43.9888 77.3702 43.9888" stroke="#1A1A1A" stroke-width="0.5" stroke-linecap="round" stroke-linejoin="round"/>
        <path d="M81.2002 55.9556C90.0207 58.48 94.6253 53.8485 95.2193 48.7403C95.8133 43.6321 91.3288 41.4938 89.7547 40.6029C88.1807 39.7119 86.5473 39.2664 83.9041 39.3258C81.2609 39.3852 78.8355 39.7119 78.8355 39.7119C78.8355 39.7119 70.0842 43.0382 69.6487 51.1558C69.2131 59.2735 78.9543 58.5211 83.7061 54.2445C86.5176 52.1062 86.3988 52.2893 86.577 51.5766C86.7552 50.8638 87.2006 47.2999 85.7454 48.176C84.2902 49.0522 81.7361 52.5121 77.2812 52.1557L75.3211 51.7696C75.3211 51.7696 74.8905 51.8587 75.0241 51.6063C75.1578 51.3538 75.9225 50.9158 76.0265 50.4554C76.1304 49.9951 76.1898 49.1858 75.6627 49.1338C75.9077 48.8517 76.5016 49.0002 77.1847 49.4382C77.8678 49.8763 80.8154 50.8687 81.8153 51.0469" fill="#FF1B6B" fill-opacity="0.4"/>
        <path d="M81.2002 55.9556C90.0207 58.48 94.6253 53.8485 95.2193 48.7403C95.8133 43.6321 91.3288 41.4938 89.7547 40.6029C88.1807 39.7119 86.5473 39.2664 83.9041 39.3258C81.2609 39.3852 78.8355 39.7119 78.8355 39.7119C78.8355 39.7119 70.0842 43.0382 69.6487 51.1558C69.2131 59.2735 78.9543 58.5211 83.7061 54.2445C86.5176 52.1062 86.3988 52.2893 86.577 51.5766C86.7552 50.8638 87.2006 47.2999 85.7454 48.176C84.2902 49.0522 81.7361 52.5121 77.2812 52.1557L75.3211 51.7696C75.3211 51.7696 74.8905 51.8587 75.0241 51.6063C75.1578 51.3538 75.9225 50.9158 76.0265 50.4554C76.1304 49.9951 76.1898 49.1858 75.6627 49.1338C75.9077 48.8517 76.5016 49.0002 77.1847 49.4382C77.8678 49.8763 80.8154 50.8687 81.8153 51.0469" stroke="#1A1A1A" stroke-width="0.5" stroke-linecap="round" stroke-linejoin="round"/>
        <path d="M83.27 37.3166C78.3004 37.2968 81.1317 31.0007 81.1317 31.0007L85.5865 30.8621L86.6953 34.0893L85.6657 35.9307C85.6657 35.9307 85.0123 36.7028 85.1707 37.8908C85.3291 39.0787 86.6953 40.5241 86.6953 40.5241C86.6953 40.5241 83.963 42.0882 80.6367 40.4251C81.1317 39.2767 81.6663 38.1878 81.7773 37.0504" fill="white"/>
        <path d="M83.27 37.3166C78.3004 37.2968 81.1317 31.0007 81.1317 31.0007L85.5865 30.8621L86.6953 34.0893L85.6657 35.9307C85.6657 35.9307 85.0123 36.7028 85.1707 37.8908C85.3291 39.0787 86.6953 40.5241 86.6953 40.5241C86.6953 40.5241 83.963 42.0882 80.6367 40.4251C81.1317 39.2767 81.6663 38.1878 81.7773 37.0504" stroke="#1A1A1A" stroke-width="0.5" stroke-linecap="round" stroke-linejoin="round"/>
        <path d="M81.7037 37.543C81.7037 37.543 82.9733 37.5614 83.2703 37.3164C82.1789 37.2607 81.7631 37.1051 81.7631 37.1051L81.7037 37.543ZM79.6124 28.5008C79.6124 28.5453 78.2017 32.0498 82.3298 32.0943C83.7257 32.1389 84.0227 31.9161 84.3196 31.5746C84.6166 31.2331 85.2552 31.9607 84.78 32.4804C85.2997 32.6289 85.8343 32.4507 85.8194 33.4605C85.8046 34.4702 85.0176 34.5742 84.7057 34.6633C85.0621 35.7324 85.5225 36.2225 85.8937 36.2225C86.6956 36.0591 86.8886 36.074 87.1707 34.1733C87.4529 32.2725 87.8984 31.1588 86.6956 29.9857C85.6115 28.9166 84.7243 28.6196 83.5122 28.9463C82.3001 29.273 81.3201 29.5996 79.9539 28.3226C79.6569 28.085 79.6124 28.5008 79.6124 28.5008Z" fill="#1C0903" stroke="#1A1A1A" stroke-width="0.5" stroke-linecap="round" stroke-linejoin="round"/>
        <path d="M86.5767 51.5768C89.9029 50.4334 89.1902 45.8301 89.1902 45.8301Z" fill="#FF1B6B" fill-opacity="0.4"/>
        <path d="M86.5767 51.5768C89.9029 50.4334 89.1902 45.8301 89.1902 45.8301" stroke="#1A1A1A" stroke-width="0.5" stroke-linecap="round" stroke-linejoin="round"/>
        <path d="M75.7466 49.5425C75.7466 49.5425 74.2319 48.8396 72.8559 49.6316C71.4798 50.4235 71.5293 51.7699 71.9946 52.3143C72.4599 52.8588 73.539 52.2747 73.8557 52.0075C74.1725 51.7402 74.2814 51.5422 74.4794 51.5224C74.6774 51.5026 75.4001 51.5719 75.4001 51.5719C75.4001 51.5719 76.2273 50.8925 76.4593 50.0572C76.5583 49.7008 75.7466 49.5425 75.7466 49.5425Z" fill="white" stroke="#1A1A1A" stroke-width="0.5" stroke-linecap="round" stroke-linejoin="round"/>
        <path d="M63.4382 26.2585H56.459V31.2182H63.4382V26.2585Z" fill="#1C0903" stroke="#1A1A1A" stroke-width="0.5" stroke-linecap="round" stroke-linejoin="round"/>
        <path d="M86.5767 48.4533C86.5767 48.4533 87.9155 47.7504 89.1208 48.4632C88.3192 50.8198 87.6592 51.1675 87.4478 51.1955L86.6558 50.849C86.9189 50.0962 86.8621 49.2928 86.5767 48.4533Z" fill="white" stroke="#1A1A1A" stroke-width="0.5" stroke-linecap="round" stroke-linejoin="round"/>
        <path d="M86.5569 67.8667C86.5569 67.8667 87.4676 70.7178 90.5167 71.0742" stroke="#1A1A1A" stroke-width="0.5" stroke-linecap="round" stroke-linejoin="round"/>
        <path d="M34.0785 45.0098V43.1349H32.1442C32.0686 42.861 31.9594 42.5974 31.8193 42.3502L33.1868 40.9826L31.8608 39.6566L30.4933 41.0242C30.2461 40.884 29.9825 40.7749 29.7085 40.6993V38.7659H27.8345V40.6993C27.5606 40.7749 27.297 40.884 27.0498 41.0242L25.6822 39.6566L24.3562 40.9826L25.7238 42.3502C25.5836 42.5974 25.4745 42.861 25.3989 43.1349H23.4646V45.0098H25.3989C25.4745 45.2838 25.5836 45.5473 25.7238 45.7946L24.3562 47.1621L25.6822 48.4881L27.0498 47.1205C27.297 47.2607 27.5606 47.3699 27.8345 47.4455V49.3789H29.7085V47.4455C29.9825 47.3699 30.2461 47.2607 30.4933 47.1205L31.8608 48.4881L33.1868 47.1621L31.8193 45.7946C31.9594 45.5473 32.0686 45.2838 32.1442 45.0098H34.0785ZM30.3949 45.0098C30.2303 45.2949 29.9936 45.5316 29.7085 45.6961C29.5669 45.7786 29.4148 45.8417 29.2564 45.8836C28.9384 45.9685 28.6038 45.9685 28.2858 45.8836C28.1277 45.8417 27.9759 45.7786 27.8345 45.6961C27.4042 45.4469 27.0898 45.0377 26.9599 44.5576C26.9181 44.3993 26.897 44.2362 26.8971 44.0724C26.8969 43.9085 26.9183 43.7454 26.9607 43.5871C27.0027 43.4287 27.0657 43.2766 27.1482 43.1349C27.313 42.8501 27.5497 42.6134 27.8345 42.4486C27.9759 42.3662 28.1277 42.3031 28.2858 42.2611C28.6038 42.1763 28.9384 42.1763 29.2564 42.2611C29.4148 42.3031 29.5669 42.3661 29.7085 42.4486C29.9934 42.6134 30.23 42.8501 30.3949 43.1349C30.4773 43.2766 30.5404 43.4287 30.5824 43.5871C30.6248 43.7454 30.6462 43.9085 30.646 44.0724C30.646 44.2362 30.6249 44.3993 30.5832 44.5576C30.5406 44.716 30.4773 44.868 30.3949 45.0098Z" fill="white" stroke="#1A1A1A" stroke-width="0.5" stroke-linecap="round" stroke-linejoin="round"/>
        <path d="M36.324 66.0922C39.2882 66.0922 41.6911 63.6893 41.6911 60.7252C41.6911 57.761 39.2882 55.3582 36.324 55.3582C33.3599 55.3582 30.957 57.761 30.957 60.7252C30.957 63.6893 33.3599 66.0922 36.324 66.0922Z" fill="white" stroke="#1A1A1A" stroke-width="0.5" stroke-linecap="round" stroke-linejoin="round"/>
        <path d="M32.8028 60.6003L35.9113 63.3326C35.9769 63.3903 36.0538 63.4335 36.1372 63.4596C36.2205 63.4857 36.3084 63.494 36.3952 63.4841C36.482 63.4741 36.5657 63.446 36.6409 63.4017C36.7162 63.3574 36.7813 63.2978 36.8321 63.2267L41.7523 56.3464C41.8485 56.2116 41.8873 56.0441 41.8601 55.8807C41.8329 55.7173 41.7419 55.5714 41.6072 55.475C41.4724 55.3786 41.3049 55.3397 41.1415 55.3668C40.9781 55.3939 40.8321 55.4848 40.7356 55.6195L36.2174 61.9377L33.6279 59.6616C33.5034 59.5523 33.3406 59.4969 33.1753 59.5077C33.01 59.5184 32.8557 59.5943 32.7463 59.7187C32.637 59.8431 32.5815 60.0059 32.5921 60.1712C32.6027 60.3365 32.6785 60.4909 32.8028 60.6003L32.8028 60.6003Z" fill="#E81CFF"/>
        <path d="M52.5153 90.6837C51.6641 89.89 50.7257 88.8924 50.9251 87.7457C51.0756 86.8804 51.8297 86.275 52.3624 85.5767C53.099 84.6112 53.443 83.3255 53.1648 82.1434C52.8866 80.9613 51.9466 79.9292 50.7637 79.6544C49.5808 79.3797 48.2217 79.9493 47.6838 81.038C47.2622 81.8912 47.3579 82.8944 47.2709 83.8421C47.1839 84.7898 46.7781 85.8535 45.8695 86.1367C45.1106 86.3732 44.307 85.9671 43.6598 85.5056C43.0127 85.0441 42.3703 84.4935 41.5819 84.3924C40.6567 84.2737 39.7312 84.8482 39.2627 85.6548C38.7941 86.4613 38.729 87.4522 38.8932 88.3704C39.0575 89.2886 39.4336 90.1534 39.8067 91.0083L37.3536 93.8185L36.5486 103.189H44.9771C45.8461 102.797 46.6575 102.281 47.4629 101.767C48.1283 101.343 48.7938 100.919 49.4592 100.494C49.9096 100.207 50.409 99.84 50.439 99.3067C50.4998 98.2252 48.6577 97.8069 48.6879 96.7241C48.7002 96.2828 49.0567 95.912 49.463 95.7392C49.8693 95.5665 50.3219 95.5498 50.7625 95.5216C51.4378 95.4785 52.1251 95.3987 52.7388 95.1137C53.3524 94.8287 53.8888 94.3054 54.0345 93.6446C54.2849 92.508 53.3666 91.4774 52.5153 90.6837Z" fill="#1C0903" stroke="#1A1A1A" stroke-width="0.5" stroke-linecap="round" stroke-linejoin="round"/>
        <path d="M48.9477 85.4446C48.9477 85.4446 48.0563 90.6262 45.2859 93.1755C42.5154 95.7247 42.0389 99.1394 42.158 100.648C42.2771 102.157 40.8875 103.189 40.8875 103.189M45.7315 98.4247C45.7315 98.4247 43.2451 97.5694 42.2251 99.0691M42.5154 91.8287C42.5154 91.8287 43.6912 92.3996 43.6195 95.1938M49.2256 90.6027C49.2256 90.6027 48.3864 91.8273 46.2847 92.0488" stroke="white" stroke-width="0.5" stroke-linecap="round" stroke-linejoin="round"/>
        <path d="M40.3056 101.029C41.1803 99.3127 40.3009 97.9503 38.8479 97.0037C37.4129 95.6693 38.4947 94.7935 39.7711 93.9823C42.0647 91.9793 39.7821 88.3306 36.975 89.5292C35.9663 90.0174 34.795 91.4178 33.6186 90.5991C32.9426 90.0639 33.1657 89.0194 33.238 88.1601C33.4626 86.0052 31.8381 82.9337 29.3806 83.3279C28.2861 83.602 27.6623 84.7822 26.644 85.2682C23.6352 86.5749 21.3013 82.3396 18.3683 82.6152C12.6821 83.8902 14.486 93.8329 22.6301 92.6051C23.2808 92.6588 23.9615 92.9049 24.3251 93.4471C25.5073 95.3017 22.4826 97.4977 23.6129 99.3607C24.5983 100.777 26.5547 100.046 27.9858 100.016C29.9938 99.9547 30.795 101.708 29.6845 103.189H37.4847C38.6542 102.792 39.7094 102.154 40.3056 101.029Z" fill="white" stroke="#1A1A1A" stroke-width="0.5" stroke-linecap="round" stroke-linejoin="round"/>
        <path d="M32.341 103.189L32.9664 101.998C35.7061 92.5283 21.3525 87.585 21.3525 87.585M34.2767 94.5533C34.2767 94.5533 34.6057 96.6662 33.121 97.9027ZM28.2216 87.585C28.2613 87.6842 29.4264 89.6379 28.4766 91.4603ZM28.3606 94.355C28.3606 94.355 30.8702 94.0645 31.7793 94.8747ZM21.9878 89.0541C21.9878 89.0541 23.3555 89.4924 24.5875 89.0151Z" fill="white"/>
        <path d="M32.341 103.189L32.9664 101.998C35.7061 92.5283 21.3525 87.585 21.3525 87.585M34.2767 94.5533C34.2767 94.5533 34.6057 96.6662 33.121 97.9027M28.2216 87.585C28.2613 87.6842 29.4264 89.6379 28.4766 91.4603M28.3606 94.355C28.3606 94.355 30.8702 94.0645 31.7793 94.8747M21.9878 89.0541C21.9878 89.0541 23.3555 89.4924 24.5875 89.0151" stroke="#1A1A1A" stroke-width="0.5" stroke-linecap="round" stroke-linejoin="round"/>
        <path d="M109.574 79.3633H99.5227V80.3298H109.574V79.3633Z" fill="#1C0903" stroke="#1A1A1A" stroke-width="0.5" stroke-linecap="round" stroke-linejoin="round"/>
        <path d="M109.574 80.3296H99.5227V89.3674H109.574V80.3296Z" fill="white" stroke="#1A1A1A" stroke-width="0.5" stroke-linecap="round" stroke-linejoin="round"/>
        <path d="M109.574 89.3674H99.5227V103.212H109.574V89.3674Z" fill="white" stroke="#1A1A1A" stroke-width="0.5" stroke-linecap="round" stroke-linejoin="round"/>
        <path d="M109.574 77.6667H99.5227V79.3628H109.574V77.6667Z" fill="white" stroke="#1A1A1A" stroke-width="0.5" stroke-linecap="round" stroke-linejoin="round"/>
        <path d="M101.398 83.8518C101.556 83.8518 101.685 83.7236 101.685 83.5654C101.685 83.4073 101.556 83.2791 101.398 83.2791C101.24 83.2791 101.112 83.4073 101.112 83.5654C101.112 83.7236 101.24 83.8518 101.398 83.8518Z" fill="white" stroke="#1A1A1A" stroke-width="0.5" stroke-linecap="round" stroke-linejoin="round"/>
        <path d="M103.6 83.8518C103.758 83.8518 103.886 83.7236 103.886 83.5654C103.886 83.4073 103.758 83.2791 103.6 83.2791C103.442 83.2791 103.313 83.4073 103.313 83.5654C103.313 83.7236 103.442 83.8518 103.6 83.8518Z" fill="white" stroke="#1A1A1A" stroke-width="0.5" stroke-linecap="round" stroke-linejoin="round"/>
        <path d="M105.801 83.8518C105.959 83.8518 106.088 83.7236 106.088 83.5654C106.088 83.4073 105.959 83.2791 105.801 83.2791C105.643 83.2791 105.515 83.4073 105.515 83.5654C105.515 83.7236 105.643 83.8518 105.801 83.8518Z" fill="white" stroke="#1A1A1A" stroke-width="0.5" stroke-linecap="round" stroke-linejoin="round"/>
        <path d="M108.003 83.8518C108.161 83.8518 108.29 83.7236 108.29 83.5654C108.29 83.4073 108.161 83.2791 108.003 83.2791C107.845 83.2791 107.717 83.4073 107.717 83.5654C107.717 83.7236 107.845 83.8518 108.003 83.8518Z" fill="white" stroke="#1A1A1A" stroke-width="0.5" stroke-linecap="round" stroke-linejoin="round"/>
        <path d="M105.801 87.4043C105.959 87.4043 106.088 87.2761 106.088 87.1179C106.088 86.9597 105.959 86.8315 105.801 86.8315C105.643 86.8315 105.515 86.9597 105.515 87.1179C105.515 87.2761 105.643 87.4043 105.801 87.4043Z" fill="white" stroke="#1A1A1A" stroke-width="0.5" stroke-linecap="round" stroke-linejoin="round"/>
        <path d="M108.003 87.4043C108.161 87.4043 108.29 87.2761 108.29 87.1179C108.29 86.9597 108.161 86.8315 108.003 86.8315C107.845 86.8315 107.717 86.9597 107.717 87.1179C107.717 87.2761 107.845 87.4043 108.003 87.4043Z" fill="white" stroke="#1A1A1A" stroke-width="0.5" stroke-linecap="round" stroke-linejoin="round"/>
        <path d="M108.003 90.8178C108.161 90.8178 108.29 90.6896 108.29 90.5315C108.29 90.3733 108.161 90.2451 108.003 90.2451C107.845 90.2451 107.717 90.3733 107.717 90.5315C107.717 90.6896 107.845 90.8178 108.003 90.8178Z" fill="white" stroke="#1A1A1A" stroke-width="0.5" stroke-linecap="round" stroke-linejoin="round"/>
        <path d="M106.088 90.2952H101.112V90.7677H106.088V90.2952Z" fill="#1C0903" stroke="#1A1A1A" stroke-width="0.5" stroke-linecap="round" stroke-linejoin="round"/>
        <path d="M108.003 93.6389C108.161 93.6389 108.29 93.5107 108.29 93.3525C108.29 93.1944 108.161 93.0662 108.003 93.0662C107.845 93.0662 107.717 93.1944 107.717 93.3525C107.717 93.5107 107.845 93.6389 108.003 93.6389Z" fill="white" stroke="#1A1A1A" stroke-width="0.5" stroke-linecap="round" stroke-linejoin="round"/>
        <path d="M106.088 93.1165H101.112V93.589H106.088V93.1165Z" fill="#1C0903" stroke="#1A1A1A" stroke-width="0.5" stroke-linecap="round" stroke-linejoin="round"/>
        <path d="M108.003 96.4594C108.161 96.4594 108.29 96.3312 108.29 96.1731C108.29 96.0149 108.161 95.8867 108.003 95.8867C107.845 95.8867 107.717 96.0149 107.717 96.1731C107.717 96.3312 107.845 96.4594 108.003 96.4594Z" fill="white" stroke="#1A1A1A" stroke-width="0.5" stroke-linecap="round" stroke-linejoin="round"/>
        <path d="M106.088 95.9368H101.112V96.4093H106.088V95.9368Z" fill="#1C0903" stroke="#1A1A1A" stroke-width="0.5" stroke-linecap="round" stroke-linejoin="round"/>
        <path d="M108.003 99.28C108.161 99.28 108.29 99.1518 108.29 98.9936C108.29 98.8355 108.161 98.7073 108.003 98.7073C107.845 98.7073 107.717 98.8355 107.717 98.9936C107.717 99.1518 107.845 99.28 108.003 99.28Z" fill="white" stroke="#1A1A1A" stroke-width="0.5" stroke-linecap="round" stroke-linejoin="round"/>
        <path d="M106.088 98.7578H101.112V99.2303H106.088V98.7578Z" fill="#1C0903" stroke="#1A1A1A" stroke-width="0.5" stroke-linecap="round" stroke-linejoin="round"/>
        <path d="M120.592 79.3633H110.541V80.3298H120.592V79.3633Z" fill="#1C0903" stroke="#1A1A1A" stroke-width="0.5" stroke-linecap="round" stroke-linejoin="round"/>
        <path d="M120.592 89.3674H110.541V103.212H120.592V89.3674Z" fill="white" stroke="#1A1A1A" stroke-width="0.5" stroke-linecap="round" stroke-linejoin="round"/>
        <path d="M120.592 80.3296H110.541V89.3674H120.592V80.3296Z" fill="white" stroke="#1A1A1A" stroke-width="0.5" stroke-linecap="round" stroke-linejoin="round"/>
        <path d="M120.592 77.6667H110.541V79.3628H120.592V77.6667Z" fill="white" stroke="#1A1A1A" stroke-width="0.5" stroke-linecap="round" stroke-linejoin="round"/>
        <path d="M112.416 83.8518C112.575 83.8518 112.703 83.7236 112.703 83.5654C112.703 83.4073 112.575 83.2791 112.416 83.2791C112.258 83.2791 112.13 83.4073 112.13 83.5654C112.13 83.7236 112.258 83.8518 112.416 83.8518Z" fill="white" stroke="#1A1A1A" stroke-width="0.5" stroke-linecap="round" stroke-linejoin="round"/>
        <path d="M114.618 83.8518C114.776 83.8518 114.904 83.7236 114.904 83.5654C114.904 83.4073 114.776 83.2791 114.618 83.2791C114.46 83.2791 114.332 83.4073 114.332 83.5654C114.332 83.7236 114.46 83.8518 114.618 83.8518Z" fill="white" stroke="#1A1A1A" stroke-width="0.5" stroke-linecap="round" stroke-linejoin="round"/>
        <path d="M116.819 83.8518C116.977 83.8518 117.106 83.7236 117.106 83.5654C117.106 83.4073 116.977 83.2791 116.819 83.2791C116.661 83.2791 116.533 83.4073 116.533 83.5654C116.533 83.7236 116.661 83.8518 116.819 83.8518Z" fill="white" stroke="#1A1A1A" stroke-width="0.5" stroke-linecap="round" stroke-linejoin="round"/>
        <path d="M119.021 83.8518C119.179 83.8518 119.307 83.7236 119.307 83.5654C119.307 83.4073 119.179 83.2791 119.021 83.2791C118.863 83.2791 118.735 83.4073 118.735 83.5654C118.735 83.7236 118.863 83.8518 119.021 83.8518Z" fill="white" stroke="#1A1A1A" stroke-width="0.5" stroke-linecap="round" stroke-linejoin="round"/>
        <path d="M116.819 87.4043C116.977 87.4043 117.106 87.2761 117.106 87.1179C117.106 86.9597 116.977 86.8315 116.819 86.8315C116.661 86.8315 116.533 86.9597 116.533 87.1179C116.533 87.2761 116.661 87.4043 116.819 87.4043Z" fill="white" stroke="#1A1A1A" stroke-width="0.5" stroke-linecap="round" stroke-linejoin="round"/>
        <path d="M119.021 87.4043C119.179 87.4043 119.307 87.2761 119.307 87.1179C119.307 86.9597 119.179 86.8315 119.021 86.8315C118.863 86.8315 118.735 86.9597 118.735 87.1179C118.735 87.2761 118.863 87.4043 119.021 87.4043Z" fill="white" stroke="#1A1A1A" stroke-width="0.5" stroke-linecap="round" stroke-linejoin="round"/>
        <path d="M119.021 90.8178C119.179 90.8178 119.307 90.6896 119.307 90.5315C119.307 90.3733 119.179 90.2451 119.021 90.2451C118.863 90.2451 118.735 90.3733 118.735 90.5315C118.735 90.6896 118.863 90.8178 119.021 90.8178Z" fill="white" stroke="#1A1A1A" stroke-width="0.5" stroke-linecap="round" stroke-linejoin="round"/>
        <path d="M117.106 90.2952H112.13V90.7677H117.106V90.2952Z" fill="#1C0903" stroke="#1A1A1A" stroke-width="0.5" stroke-linecap="round" stroke-linejoin="round"/>
        <path d="M119.021 93.6389C119.179 93.6389 119.307 93.5107 119.307 93.3525C119.307 93.1944 119.179 93.0662 119.021 93.0662C118.863 93.0662 118.735 93.1944 118.735 93.3525C118.735 93.5107 118.863 93.6389 119.021 93.6389Z" fill="white" stroke="#1A1A1A" stroke-width="0.5" stroke-linecap="round" stroke-linejoin="round"/>
        <path d="M117.106 93.1165H112.13V93.589H117.106V93.1165Z" fill="#1C0903" stroke="#1A1A1A" stroke-width="0.5" stroke-linecap="round" stroke-linejoin="round"/>
        <path d="M119.021 96.4594C119.179 96.4594 119.307 96.3312 119.307 96.1731C119.307 96.0149 119.179 95.8867 119.021 95.8867C118.863 95.8867 118.735 96.0149 118.735 96.1731C118.735 96.3312 118.863 96.4594 119.021 96.4594Z" fill="white" stroke="#1A1A1A" stroke-width="0.5" stroke-linecap="round" stroke-linejoin="round"/>
        <path d="M117.106 95.9368H112.13V96.4093H117.106V95.9368Z" fill="#1C0903" stroke="#1A1A1A" stroke-width="0.5" stroke-linecap="round" stroke-linejoin="round"/>
        <path d="M119.021 99.28C119.179 99.28 119.307 99.1518 119.307 98.9936C119.307 98.8355 119.179 98.7073 119.021 98.7073C118.863 98.7073 118.735 98.8355 118.735 98.9936C118.735 99.1518 118.863 99.28 119.021 99.28Z" fill="white" stroke="#1A1A1A" stroke-width="0.5" stroke-linecap="round" stroke-linejoin="round"/>
        <path d="M117.106 98.7578H112.13V99.2303H117.106V98.7578Z" fill="#1C0903" stroke="#1A1A1A" stroke-width="0.5" stroke-linecap="round" stroke-linejoin="round"/>
        <path d="M120.593 103.212H122.77V79.8461L120.593 77.6667V103.212Z" fill="white" stroke="#1A1A1A" stroke-width="0.5" stroke-linecap="round" stroke-linejoin="round"/>
        <path d="M113.316 55.5063C116.7 55.5063 119.444 52.7626 119.444 49.3781C119.444 45.9937 116.7 43.25 113.316 43.25C109.931 43.25 107.188 45.9937 107.188 49.3781C107.188 52.7626 109.931 55.5063 113.316 55.5063Z" fill="#1C0903" stroke="#1A1A1A" stroke-width="0.5" stroke-linecap="round" stroke-linejoin="round"/>
        <path d="M113.886 48.2915C114.101 48.1662 114.269 47.9735 114.364 47.7432C114.458 47.5129 114.475 47.2579 114.41 47.0175C114.345 46.7772 114.202 46.5649 114.005 46.4136C113.807 46.2622 113.565 46.1802 113.316 46.1802C113.067 46.1802 112.825 46.2622 112.627 46.4136C112.43 46.5649 112.288 46.7772 112.223 47.0175C112.158 47.2579 112.174 47.5129 112.268 47.7432C112.363 47.9735 112.531 48.1662 112.746 48.2915C112.252 48.4183 111.814 48.7057 111.502 49.1086C111.189 49.5114 111.02 50.0068 111.02 50.5167V51.6259H115.613V50.5167C115.613 50.0068 115.443 49.5114 115.13 49.1086C114.818 48.7057 114.38 48.4183 113.886 48.2915Z" fill="white" stroke="#1A1A1A" stroke-width="0.5" stroke-linecap="round" stroke-linejoin="round"/>
    </g>
    <defs>
        <filter id="filter0_d_867_762" x="0.814941" y="0.278564" width="136.205" height="128.5" filterUnits="userSpaceOnUse" color-interpolation-filters="sRGB">
            <feFlood flood-opacity="0" result="BackgroundImageFix"/>
            <feColorMatrix in="SourceAlpha" type="matrix" values="0 0 0 0 0 0 0 0 0 0 0 0 0 0 0 0 0 0 127 0" result="hardAlpha"/>
            <feOffset/>
            <feGaussianBlur stdDeviation="7"/>
            <feComposite in2="hardAlpha" operator="out"/>
            <feColorMatrix type="matrix" values="0 0 0 0 0 0 0 0 0 0 0 0 0 0 0 0 0 0 0.25 0"/>
            <feBlend mode="normal" in2="BackgroundImageFix" result="effect1_dropShadow_867_762"/>
            <feBlend mode="normal" in="SourceGraphic" in2="effect1_dropShadow_867_762" result="shape"/>
        </filter>
    </defs>
</svg>