<svg xmlns="http://www.w3.org/2000/svg" width="100" height="100" viewBox="0 0 162 130" fill="none">
    <g filter="url(#filter0_d_867_1022)">
        <path d="M122.935 90.368C123.627 87.2671 126.741 89.166 128.559 89.9516C129.935 90.5089 131.54 89.8721 131.774 88.3363C132.036 86.875 131.84 85.2946 132.532 83.9318C133.926 80.7318 138.34 81.7009 138.279 85.1699C137.438 88.5876 140.804 89.0425 141.206 86.7081C141.348 83.8659 144.656 82.8855 146.199 85.2882C147.577 87.3196 146.993 91.1285 144.432 91.7873C143.698 91.955 142.935 91.7953 142.182 91.7818C138.143 91.9977 141.028 94.8951 140.317 96.9557C139.949 97.7446 138.931 98.0537 138.079 97.8726C136.165 97.6287 134.505 94.1804 132.524 95.9259C132.065 96.5012 132.245 97.3341 132.136 98.0616C131.93 99.4307 130.626 100.424 129.271 100.71C126.534 101.283 123.784 99.6161 121.045 100.123C119.735 100.367 118.348 101.095 117.159 100.497C115.161 99.5986 115.377 94.5476 116.508 93.0789C117.278 92.0777 118.589 91.6961 119.809 91.3726C120.937 91.0737 121.807 90.6669 122.935 90.368Z" fill="#1C0903" stroke="#1A1A1A" stroke-width="0.5" stroke-linecap="round" stroke-linejoin="round"/>
        <path d="M116.079 93.2331C117.12 93.4553 118.173 93.6785 119.237 93.6611C120.302 93.6437 121.396 93.364 122.214 92.6814C123.031 91.9988 123.515 90.8657 123.245 89.8357C122.98 88.8281 122.05 87.966 122.212 86.9366C122.379 85.8661 123.64 85.3404 124.723 85.3197C125.807 85.2989 126.924 85.5734 127.955 85.2427C128.962 84.92 129.75 83.9977 129.912 82.953C130.074 81.9084 129.602 80.7907 128.74 80.1787C128.274 79.8483 127.722 79.6645 127.227 79.3807C126.732 79.0969 126.267 78.6628 126.184 78.0982C126.036 77.0926 127.084 76.3791 127.68 75.5554C128.569 74.326 128.424 72.4952 127.442 71.3392C126.459 70.1831 124.766 69.7346 123.302 70.1317C121.838 70.5287 120.638 71.703 120.084 73.1152C119.661 74.1921 119.588 75.3764 119.222 76.4737C118.344 79.0984 115.644 80.9962 112.877 80.9328C111.704 80.9059 110.459 80.5762 109.403 81.0883C108.069 81.7357 107.641 83.5022 107.959 84.9512C108.29 86.4218 109.189 87.7019 110.46 88.5119C111.445 89.1326 112.041 90.2002 113.09 90.7048C113.902 91.0949 114.804 91.3616 115.447 91.9922C115.794 92.3334 115.956 92.7617 116.079 93.2331ZM125.163 80.713C125.163 80.713 122.952 82.0835 120.987 81.4586Z" fill="white"/>
        <path d="M125.163 80.713C125.163 80.713 122.952 82.0835 120.987 81.4586M116.079 93.2331C117.12 93.4553 118.173 93.6785 119.237 93.6611C120.302 93.6437 121.396 93.364 122.214 92.6814C123.031 91.9988 123.515 90.8657 123.245 89.8357C122.98 88.8281 122.05 87.966 122.212 86.9366C122.379 85.8661 123.64 85.3404 124.723 85.3197C125.807 85.2989 126.924 85.5734 127.955 85.2427C128.962 84.92 129.75 83.9977 129.912 82.953C130.074 81.9084 129.602 80.7907 128.74 80.1787C128.274 79.8483 127.722 79.6645 127.227 79.3807C126.732 79.0969 126.267 78.6628 126.184 78.0982C126.036 77.0926 127.084 76.3791 127.68 75.5554C128.569 74.326 128.424 72.4952 127.442 71.3392C126.459 70.1831 124.766 69.7346 123.302 70.1317C121.838 70.5287 120.638 71.703 120.084 73.1152C119.661 74.1921 119.588 75.3764 119.222 76.4737C118.344 79.0984 115.644 80.9962 112.877 80.9328C111.704 80.9059 110.459 80.5762 109.403 81.0883C108.069 81.7357 107.641 83.5022 107.959 84.9512C108.29 86.4218 109.189 87.7019 110.46 88.5119C111.445 89.1326 112.041 90.2002 113.09 90.7048C113.902 91.0949 114.804 91.3616 115.447 91.9922C115.794 92.3334 115.956 92.7617 116.079 93.2331Z" stroke="#1A1A1A" stroke-width="0.5" stroke-linecap="round" stroke-linejoin="round"/>
        <path d="M118.125 96.9387C118.125 96.9387 131.151 94.8686 137.178 89.8543M135.781 87.0981C135.781 87.0981 136.336 90.1179 134.656 91.5826M137.255 93.1485C137.255 93.1485 135.984 93.9511 132.601 92.65M128.773 91.9685C128.773 91.9685 128.968 93.877 127.727 94.5605M127.898 97.1658C127.898 97.1658 125.041 96.8237 124.907 95.4129" stroke="white" stroke-width="0.5" stroke-linecap="round" stroke-linejoin="round"/>
        <path d="M123.8 72.1055C123.8 72.1055 122.779 78.4237 120.987 81.4585C119.195 84.4933 114.677 87.6144 114.788 89.3203M120.37 86.8704C120.379 87.0088 119.131 88.665 115.983 87.1582ZM116.081 82.2005C116.081 82.2005 115.726 85.3065 116.787 86.2869ZM124.881 73.0996C124.881 73.0996 124.657 74.266 123.322 74.5417Z" fill="white"/>
        <path d="M123.8 72.1055C123.8 72.1055 122.779 78.4237 120.987 81.4585C119.195 84.4933 114.677 87.6144 114.788 89.3203M120.37 86.8704C120.379 87.0088 119.131 88.665 115.983 87.1582M116.081 82.2005C116.081 82.2005 115.726 85.3065 116.787 86.2869M124.881 73.0996C124.881 73.0996 124.657 74.266 123.322 74.5417" stroke="#1A1A1A" stroke-width="0.5" stroke-linecap="round" stroke-linejoin="round"/>
        <path d="M45.1289 115C56.7096 115 66.0977 112.566 66.0977 109.564C66.0977 106.562 56.7096 104.128 45.1289 104.128C33.5482 104.128 24.1602 106.562 24.1602 109.564C24.1602 112.566 33.5482 115 45.1289 115Z" fill="white" stroke="#1A1A1A" stroke-width="0.5" stroke-linecap="round" stroke-linejoin="round"/>
        <path d="M20.9223 101.18H121.077C121.248 100.933 123.054 98.2323 121.928 95.2812C120.93 92.6661 118.056 90.9711 114.925 91.3065C115.754 85.6939 114.436 80.0783 110.856 77.5846C105.568 73.9004 94.6268 76.5314 88.8064 87.048C89.3742 80.1397 84.8318 74.7456 78.8698 72.0958C70.889 69.2568 66.6424 75.522 64.7694 77.2061C62.4541 74.6589 58.7684 71.4755 53.5079 69.73C47.4361 67.7152 36.6942 66.7625 32.5938 72.7583C31.1386 74.8862 30.8923 77.3448 30.985 79.288C25.2299 77.4315 18.9945 79.9972 16.3168 85.1553C13.4486 90.6803 15.3918 97.7739 20.9223 101.18Z" fill="white" stroke="#1A1A1A" stroke-width="0.5" stroke-linecap="round" stroke-linejoin="round"/>
        <path d="M80.3522 62.7585H73.5386V76.9537H80.3522V62.7585Z" fill="white" stroke="#1A1A1A" stroke-width="0.5" stroke-linecap="round" stroke-linejoin="round"/>
        <path d="M81.2609 75.5659H72.6306L47.7144 86.8589H55.17L76.9458 79.4775L98.7215 86.8589H106.177L81.2609 75.5659Z" fill="#1C0903" stroke="#1A1A1A" stroke-width="0.5" stroke-linecap="round" stroke-linejoin="round"/>
        <path d="M113.853 86.8584H33.2246V99.7064H113.853V86.8584Z" fill="white" stroke="#1A1A1A" stroke-width="0.5" stroke-linecap="round" stroke-linejoin="round"/>
        <path d="M97.8496 88.4155V98.2727" stroke="#1A1A1A" stroke-width="0.5" stroke-linecap="round" stroke-linejoin="round"/>
        <path d="M113.853 99.7061H33.2246V101.179H113.853V99.7061Z" fill="#1C0903" stroke="#1A1A1A" stroke-width="0.5" stroke-linecap="round" stroke-linejoin="round"/>
        <path d="M59.407 88.4155V98.2727" stroke="#1A1A1A" stroke-width="0.5" stroke-linecap="round" stroke-linejoin="round"/>
        <path d="M45.7864 88.4155V98.2727" stroke="#1A1A1A" stroke-width="0.5" stroke-linecap="round" stroke-linejoin="round"/>
        <path d="M16.3203 101.18H126.096" stroke="#1A1A1A" stroke-width="0.5" stroke-linecap="round" stroke-linejoin="round"/>
        <path d="M113.879 15H39.1294C38.1334 15 37.3259 15.8075 37.3259 16.8035V61.5229C37.3259 62.519 38.1334 63.3264 39.1294 63.3264H113.879C114.875 63.3264 115.683 62.519 115.683 61.5229V16.8035C115.683 15.8075 114.875 15 113.879 15Z" fill="white" stroke="#1A1A1A" stroke-width="0.5" stroke-linecap="round" stroke-linejoin="round"/>
        <path d="M113.538 20.4924V57.8325C113.538 58.7528 113.172 59.6354 112.522 60.2862C111.871 60.9369 110.988 61.3025 110.068 61.3026H97.3867V17.0232H110.068C110.988 17.0231 111.871 17.3886 112.521 18.0392C113.172 18.6898 113.538 19.5722 113.538 20.4924Z" fill="white" stroke="#1A1A1A" stroke-width="0.5" stroke-linecap="round" stroke-linejoin="round"/>
        <path d="M97.3865 26.0525H39.4709V46.4191H97.3865V26.0525Z" fill="white" stroke="#1A1A1A" stroke-width="0.5" stroke-linecap="round" stroke-linejoin="round"/>
        <path d="M95.5196 27.345H41.395V44.9086H95.5196V27.345Z" stroke="#1A1A1A" stroke-width="0.5" stroke-linecap="round" stroke-linejoin="round" stroke-dasharray="21.86 21.86"/>
        <path d="M97.3864 17.0232V26.052H39.4709V20.4924C39.4709 20.0368 39.5607 19.5857 39.735 19.1648C39.9094 18.7439 40.1649 18.3614 40.487 18.0393C40.8092 17.7171 41.1916 17.4616 41.6125 17.2873C42.0334 17.1129 42.4846 17.0232 42.9402 17.0232L97.3864 17.0232ZM97.3864 46.4186V61.3026H42.9402C42.4845 61.3025 42.0333 61.2128 41.6124 61.0384C41.1914 60.864 40.8089 60.6083 40.4868 60.2861C40.1646 59.9639 39.9091 59.5813 39.7348 59.1603C39.5605 58.7393 39.4708 58.2881 39.4709 57.8325V46.4186H97.3864Z" fill="white" stroke="#1A1A1A" stroke-width="0.5" stroke-linecap="round" stroke-linejoin="round"/>
        <path d="M105.714 35.5671C107.317 35.5671 108.616 34.2678 108.616 32.665C108.616 31.0623 107.317 29.7629 105.714 29.7629C104.112 29.7629 102.812 31.0623 102.812 32.665C102.812 34.2678 104.112 35.5671 105.714 35.5671Z" fill="white" stroke="#1A1A1A" stroke-width="0.5" stroke-linecap="round" stroke-linejoin="round"/>
        <path d="M85.5852 40.0723C87.188 40.0723 88.4873 38.7729 88.4873 37.1702C88.4873 35.5674 87.188 34.2681 85.5852 34.2681C83.9824 34.2681 82.6831 35.5674 82.6831 37.1702C82.6831 38.7729 83.9824 40.0723 85.5852 40.0723Z" fill="white" stroke="#1A1A1A" stroke-width="0.5" stroke-linecap="round" stroke-linejoin="round"/>
        <path d="M74.3752 24.6504C75.978 24.6504 77.2773 23.3511 77.2773 21.7483C77.2773 20.1455 75.978 18.8462 74.3752 18.8462C72.7725 18.8462 71.4731 20.1455 71.4731 21.7483C71.4731 23.3511 72.7725 24.6504 74.3752 24.6504Z" fill="white" stroke="#1A1A1A" stroke-width="0.5" stroke-linecap="round" stroke-linejoin="round"/>
        <path d="M82.312 57.1687C83.9148 57.1687 85.2141 55.8694 85.2141 54.2666C85.2141 52.6638 83.9148 51.3645 82.312 51.3645C80.7092 51.3645 79.4099 52.6638 79.4099 54.2666C79.4099 55.8694 80.7092 57.1687 82.312 57.1687Z" fill="white" stroke="#1A1A1A" stroke-width="0.5" stroke-linecap="round" stroke-linejoin="round"/>
        <path d="M73.731 22.7756V22.6078L73.9453 22.3997C74.4611 21.9087 74.6942 21.6477 74.6973 21.3432C74.6973 21.1381 74.5979 20.9485 74.2965 20.9485C74.1381 20.9544 73.9866 21.0148 73.8676 21.1194L73.7806 20.9268C73.9411 20.7932 74.1436 20.7206 74.3524 20.7217C74.7874 20.7217 74.9707 21.02 74.9707 21.309C74.9707 21.6819 74.7004 21.9833 74.2747 22.3934L74.1131 22.5426V22.5488H75.0205V22.7756H73.731ZM85.0293 37.8664C85.1649 37.9468 85.3191 37.9907 85.4767 37.9938C85.8279 37.9938 85.9366 37.7701 85.9335 37.6023C85.9304 37.3195 85.6756 37.1984 85.4115 37.1984H85.2593V36.9933H85.4115C85.6103 36.9933 85.8621 36.8907 85.8621 36.6515C85.8621 36.4899 85.7595 36.347 85.5078 36.347C85.363 36.3511 85.2226 36.3975 85.1038 36.4806L85.0324 36.2817C85.1895 36.1795 85.3732 36.1254 85.5607 36.1263C85.9584 36.1263 86.1386 36.3625 86.1386 36.608C86.1386 36.8161 86.0143 36.9933 85.7657 37.0834V37.0896C86.0143 37.1393 86.2163 37.3257 86.2163 37.6085C86.2163 37.9317 85.9646 38.2144 85.4798 38.2144C85.2957 38.2168 85.1143 38.1696 84.9547 38.0777L85.0293 37.8664ZM105.788 31.9099H105.782L105.43 32.0995L105.378 31.8913L105.819 31.6551H106.052V33.6748H105.788V31.9099ZM82.5109 55.2769V54.7269H81.5725V54.5467L82.4736 53.2572H82.7688V54.5125H83.0516V54.7269H82.7688V55.2769H82.5109ZM82.5109 54.5125V53.8382C82.5109 53.7326 82.514 53.6269 82.5202 53.5213H82.5109C82.4488 53.6394 82.399 53.7264 82.3431 53.8196L81.8491 54.5063V54.5125H82.5109Z" fill="black"/>
        <path d="M95.5196 48.2898H41.395V59.5496H95.5196V48.2898Z" stroke="#1A1A1A" stroke-width="0.5" stroke-linecap="round" stroke-linejoin="round" stroke-dasharray="21.86 21.86"/>
        <path d="M57.9807 36.1678C57.9807 36.1678 57.3638 35.9151 58.4643 35.3686C59.5649 34.8222 60.7986 36.6725 60.7566 37.3244C60.7145 37.9763 58.8429 39.0699 58.8429 39.0699L57.9807 36.1678Z" fill="#8200FF" fill-opacity="0.81" stroke="#1A1A1A" stroke-width="0.5" stroke-linecap="round" stroke-linejoin="round"/>
        <path d="M61.3626 32.475C61.3626 32.475 60.3322 31.571 59.7433 32.9799C59.1545 34.3889 58.3501 36.1502 58.3501 36.1502C58.3501 36.1502 59.2644 37.5865 59.8533 37.4604C62.6086 36.2352 61.3626 32.475 61.3626 32.475Z" fill="white" stroke="#1A1A1A" stroke-width="0.5" stroke-linecap="round" stroke-linejoin="round"/>
        <path d="M61.6799 26.9028L76.3565 28.1646L74.4638 39.058L60.2898 36.9971L61.6799 26.9028Z" fill="white" stroke="#1A1A1A" stroke-width="0.5" stroke-linecap="round" stroke-linejoin="round"/>
        <path d="M68.9902 32.402L72.7501 30.3201L73.0445 30.7302L68.8911 32.9698C68.8911 32.9698 68.7633 32.7069 68.9902 32.402Z" fill="white" stroke="#1A1A1A" stroke-width="0.5" stroke-linecap="round" stroke-linejoin="round"/>
        <path d="M48.2086 34.6836C48.2086 34.6836 38.5559 44.0839 40.7325 48.6894C42.1204 51.3076 46.3159 48.5317 46.3159 48.5317L48.2086 34.6836Z" fill="#8200FF" fill-opacity="0.81" stroke="#1A1A1A" stroke-width="0.5" stroke-linecap="round" stroke-linejoin="round"/>
        <path d="M52.1814 106.152L52.32 105.47C52.32 105.47 48.8501 105.038 48.4085 105.254C48.4085 105.254 48.2321 105.62 48.0181 106.164C49.2806 106.589 50.814 106.449 52.1814 106.152Z" fill="#1C0903" stroke="#1A1A1A" stroke-width="0.5" stroke-linecap="round" stroke-linejoin="round"/>
        <path d="M55.0537 106.858C53.7709 106.753 52.0675 106.711 52.0675 106.711L52.1812 106.152C50.8138 106.449 49.2804 106.59 48.0179 106.164C47.4602 107.581 46.6468 110.205 48.0297 110.707C49.9434 111.401 54.7803 109.929 56.3365 108.814C56.8412 108.33 56.3365 106.963 55.0537 106.858Z" fill="white" stroke="#1A1A1A" stroke-width="0.5" stroke-linecap="round" stroke-linejoin="round"/>
        <path d="M36.7486 105.565L36.9845 104.505C36.9845 104.505 34.0974 103.493 33.6104 103.561C33.2671 103.966 32.9469 104.391 32.6514 104.832C33.8257 105.767 35.3071 105.855 36.7486 105.565Z" fill="#1C0903" stroke="#1A1A1A" stroke-width="0.5" stroke-linecap="round" stroke-linejoin="round"/>
        <path d="M39.424 107.157C38.2379 106.657 36.6326 106.086 36.6326 106.086L36.7484 105.566C35.3069 105.855 33.8255 105.767 32.6512 104.832C31.8455 106.035 30.9718 107.768 31.9661 108.548C33.568 109.804 38.2066 109.989 40.0328 109.416C40.6632 109.113 40.61 107.657 39.424 107.157ZM60.6683 56.5754C60.6683 56.5754 47.4196 55.5028 45.0537 57.2378C42.6879 58.9728 38.6502 68.1838 40.8583 81.3064C36.5051 88.6878 33.0352 103.955 33.0352 103.955C33.0352 103.955 35.8322 105.575 37.0098 105.196C38.7132 102.673 46.7256 88.8771 50.1324 74.4296C52.9083 65.471 54.7379 61.3701 54.7379 61.3701" fill="white"/>
        <path d="M60.6683 56.5754C60.6683 56.5754 47.4196 55.5028 45.0537 57.2378C42.6879 58.9728 38.6502 68.1838 40.8583 81.3064C36.5051 88.6878 33.0352 103.955 33.0352 103.955C33.0352 103.955 35.8322 105.575 37.0098 105.196C38.7132 102.673 46.7256 88.8771 50.1324 74.4296C52.9083 65.471 54.7379 61.3701 54.7379 61.3701M39.424 107.157C38.2379 106.657 36.6326 106.086 36.6326 106.086L36.7484 105.566C35.3069 105.855 33.8255 105.767 32.6512 104.832C31.8455 106.035 30.9718 107.768 31.9661 108.548C33.568 109.804 38.2066 109.989 40.0328 109.416C40.6632 109.113 40.61 107.657 39.424 107.157Z" stroke="#1A1A1A" stroke-width="0.5" stroke-linecap="round" stroke-linejoin="round"/>
        <path d="M52.6879 55.5981C52.8141 55.5981 62.2509 56.383 62.4692 56.8738C62.6876 57.3646 62.9399 70.5819 61.2365 78.8466C59.5331 87.1113 53.14 105.891 53.14 105.891C53.14 105.891 48.3873 106.438 47.7144 105.47C47.8826 102.736 51.0371 85.0714 52.6353 82.4637C52.0885 79.6457 48.3647 70.9531 50.069 64.6459" fill="white"/>
        <path d="M52.6879 55.5981C52.8141 55.5981 62.2509 56.383 62.4692 56.8738C62.6876 57.3646 62.9399 70.5819 61.2365 78.8466C59.5331 87.1113 53.14 105.891 53.14 105.891C53.14 105.891 48.3873 106.438 47.7144 105.47C47.8826 102.736 51.0371 85.0714 52.6353 82.4637C52.0885 79.6457 48.3647 70.9531 50.069 64.6459" stroke="#1A1A1A" stroke-width="0.5" stroke-linecap="round" stroke-linejoin="round"/>
        <path d="M45.0297 57.928C45.0297 57.928 46.4735 58.7843 50.0877 58.844C53.702 58.9038 58.3319 57.9678 59.9448 57.928C61.5578 57.8882 62.5434 57.5279 62.5434 57.5279V56.2476L45.0297 56.8129L44.6946 57.5472L45.0297 57.928Z" fill="#1C0903" stroke="#1A1A1A" stroke-width="0.5" stroke-linecap="round" stroke-linejoin="round"/>
        <path d="M50.8584 33.5793C50.8584 33.5793 48.1771 32.8222 45.4958 37.617C42.8145 42.4118 43.6031 56.1653 45.0542 57.2378C46.5052 58.3103 52.2148 58.5627 54.3283 58.1526C56.4418 57.7425 60.4795 57.6794 61.7729 57.3955C63.0662 57.1116 63.4132 54.0518 63.2555 51.2759C63.0977 48.4999 63.1184 37.8604 56.4418 34.4626C53.035 32.8853 50.8584 33.5793 50.8584 33.5793Z" fill="#8200FF" fill-opacity="0.81" stroke="#1A1A1A" stroke-width="0.5" stroke-linecap="round" stroke-linejoin="round"/>
        <path d="M52.9399 39.6362C52.9399 39.6362 54.7586 51.9588 64.1068 49.4782C72.1506 47.3436 70.2159 35.2305 70.2159 35.2305C70.2159 35.2305 70.1949 35.0202 69.606 35.0202C69.0172 35.0202 67.4189 34.4103 67.4189 35.3356C67.4189 36.2609 66.9998 41.6303 64.601 42.1894C62.2022 42.7484 61.0941 39.3441 60.6945 38.7343" fill="#8200FF" fill-opacity="0.81"/>
        <path d="M52.9399 39.6362C52.9399 39.6362 54.7586 51.9588 64.1068 49.4782C72.1506 47.3436 70.2159 35.2305 70.2159 35.2305C70.2159 35.2305 70.1949 35.0202 69.606 35.0202C69.0172 35.0202 67.4189 34.4103 67.4189 35.3356C67.4189 36.2609 66.9998 41.6303 64.601 42.1894C62.2022 42.7484 61.0941 39.3441 60.6945 38.7343" stroke="#1A1A1A" stroke-width="0.5" stroke-linecap="round" stroke-linejoin="round"/>
        <path d="M69.7115 35.3883C69.7115 35.3883 71.2046 33.359 70.8891 32.6755C70.5737 31.992 69.0596 31.277 68.681 31.2034C68.3025 31.1298 67.1669 31.992 67.0722 32.2759C66.9776 32.5598 67.1774 33.4957 67.3456 33.7165C67.5139 33.9373 67.8609 35.0729 67.8609 35.1886C67.8609 35.3042 69.7115 35.3883 69.7115 35.3883Z" fill="white" stroke="#1A1A1A" stroke-width="0.5" stroke-linecap="round" stroke-linejoin="round"/>
        <path d="M68.723 32.2229C68.723 32.2229 68.0396 32.9064 68.4602 33.3585C68.8808 33.8106 68.1763 34.1261 68.1763 34.1261" fill="white"/>
        <path d="M68.723 32.2229C68.723 32.2229 68.0396 32.9064 68.4602 33.3585C68.8808 33.8106 68.1763 34.1261 68.1763 34.1261" stroke="#1A1A1A" stroke-width="0.5" stroke-linecap="round" stroke-linejoin="round"/>
        <path d="M67.1331 33.1282L66.2832 33.5901L65.8206 33.9791H66.4935L67.3452 33.7163L67.1331 33.1282Z" fill="white" stroke="#1A1A1A" stroke-width="0.5" stroke-linecap="round" stroke-linejoin="round"/>
        <path d="M52.2146 31.2166C52.2146 31.2166 53.5921 31.3953 54.4543 30.8906C56.2418 29.4606 52.7404 23.73 52.7404 23.73C52.7404 23.73 46.7048 26.8214 46.7048 26.8844C46.7048 26.9475 47.9877 30.9222 48.0718 30.9432C48.1559 30.9642 49.2284 31.3428 49.2284 31.3428C49.2284 31.3428 49.4808 32.92 49.1653 33.9925C49.7752 34.7496 52.5091 35.023 53.9811 34.0977C54.4017 33.8032 54.1178 33.5482 54.1178 33.5482C54.1178 33.5482 53.4544 31.6973 53.3814 31.2136" fill="white"/>
        <path d="M52.2146 31.2166C52.2146 31.2166 53.5921 31.3953 54.4543 30.8906C56.2418 29.4606 52.7404 23.73 52.7404 23.73C52.7404 23.73 46.7048 26.8214 46.7048 26.8844C46.7048 26.9475 47.9877 30.9222 48.0718 30.9432C48.1559 30.9642 49.2284 31.3428 49.2284 31.3428C49.2284 31.3428 49.4808 32.92 49.1653 33.9925C49.7752 34.7496 52.5091 35.023 53.9811 34.0977C54.4017 33.8032 54.1178 33.5482 54.1178 33.5482C54.1178 33.5482 53.4544 31.6973 53.3814 31.2136" stroke="#1A1A1A" stroke-width="0.5" stroke-linecap="round" stroke-linejoin="round"/>
        <path d="M53.4602 31.5503C53.4602 31.5503 52.3351 31.498 52.1111 31.2366C53.4179 31.2815 53.3806 31.274 53.3806 31.274L53.4602 31.5503ZM50.1536 27.8093C50.1536 27.8093 48.1768 26.0007 47.9454 27.9986C47.7141 29.9964 49.3124 29.3655 49.8802 29.3234C49.8802 29.3234 50.1746 30.2908 49.8802 30.9427C49.5858 31.5947 47.7562 33.0036 46.936 32.2676C46.1158 31.5316 44.6017 28.5794 44.7279 27.0588C44.8541 25.5381 45.4849 24.2763 46.5364 23.6875C47.5879 23.0986 51.4574 22.2154 51.8149 20.9326C51.9831 20.2386 52.8243 20.7223 53.2239 21.6055C53.6235 22.4888 54.3385 22.8042 53.6866 23.4561C53.0346 24.1081 50.3849 25.0123 50.0694 25.0965C50.1325 26.5685 51.0368 27.8303 50.8896 27.8724C50.7424 27.9144 50.3428 28.1668 50.1536 27.8093Z" fill="#1C0903" stroke="#1A1A1A" stroke-width="0.5" stroke-linecap="round" stroke-linejoin="round"/>
        <path d="M60.2899 33.5544C60.2899 33.5544 61.3215 33.5488 61.2158 34.3532C61.11 35.1576 60.2899 35.3889 60.2899 35.3889M19.9732 59.9772C19.9732 60.0491 19.9761 60.1195 19.9806 60.1899C19.3238 60.337 18.6375 60.2756 18.0173 60.0144C17.3971 59.7531 16.8737 59.3049 16.5202 58.7322C16.1667 58.1595 16.0005 57.4908 16.0449 56.8193C16.0893 56.1477 16.3419 55.5067 16.7678 54.9855C17.1936 54.4643 17.7713 54.0889 18.4206 53.9115C19.0698 53.7341 19.7582 53.7636 20.3899 53.9958C21.0215 54.2281 21.5651 54.6515 21.9448 55.2072C22.3245 55.7629 22.5214 56.4232 22.5082 57.096C21.8076 57.1859 21.1637 57.528 20.6971 58.0583C20.2305 58.5886 19.9731 59.2708 19.9732 59.9772Z" fill="white"/>
        <path d="M60.2899 33.5544C60.2899 33.5544 61.3215 33.5488 61.2158 34.3532C61.11 35.1576 60.2899 35.3889 60.2899 35.3889M19.9732 59.9772C19.9732 60.0491 19.9761 60.1195 19.9806 60.1899C19.3238 60.337 18.6375 60.2756 18.0173 60.0144C17.3971 59.7531 16.8737 59.3049 16.5202 58.7322C16.1667 58.1595 16.0005 57.4908 16.0449 56.8193C16.0893 56.1477 16.3419 55.5067 16.7678 54.9855C17.1936 54.4643 17.7713 54.0889 18.4206 53.9115C19.0698 53.7341 19.7582 53.7636 20.3899 53.9958C21.0215 54.2281 21.5651 54.6515 21.9448 55.2072C22.3245 55.7629 22.5214 56.4232 22.5082 57.096C21.8076 57.1859 21.1637 57.528 20.6971 58.0583C20.2305 58.5886 19.9731 59.2708 19.9732 59.9772Z" stroke="#1A1A1A" stroke-width="0.5" stroke-linecap="round" stroke-linejoin="round"/>
        <path d="M25.7833 59.9769C25.7832 60.7289 25.4916 61.4516 24.9696 61.993C24.4477 62.5344 23.7361 62.8523 22.9846 62.8798C22.2331 62.9073 21.5002 62.6424 20.94 62.1407C20.3799 61.639 20.0361 60.9396 19.981 60.1896C20.6877 60.031 21.3208 59.64 21.779 59.0791C22.2373 58.5182 22.4942 57.8199 22.5086 57.0957C22.918 57.0431 23.3339 57.0783 23.7285 57.199C24.1232 57.3198 24.4876 57.5232 24.7975 57.7958C25.1073 58.0685 25.3555 58.404 25.5255 58.7801C25.6955 59.1562 25.7834 59.5642 25.7833 59.9769Z" fill="#1C0903" stroke="#1A1A1A" stroke-width="0.5" stroke-linecap="round" stroke-linejoin="round"/>
        <path d="M105.823 49.3426C107.579 49.3426 109.002 47.9193 109.002 46.1636C109.002 44.4079 107.579 42.9846 105.823 42.9846C104.067 42.9846 102.644 44.4079 102.644 46.1636C102.644 47.9193 104.067 49.3426 105.823 49.3426Z" fill="white" stroke="#1A1A1A" stroke-width="0.5" stroke-linecap="round" stroke-linejoin="round"/>
        <path d="M107.531 47.5821H104.116C104.116 47.5821 104.084 47.1869 104.289 47.0918C104.495 46.9971 104.653 45.0527 105.238 44.8156C105.33 44.7784 105.406 44.7471 105.472 44.7209C105.453 44.6757 105.443 44.6273 105.443 44.5784C105.443 44.5224 105.456 44.467 105.479 44.4164C105.503 44.3657 105.538 44.3209 105.581 44.2852C105.625 44.2496 105.675 44.2239 105.729 44.2102C105.784 44.1964 105.84 44.1948 105.895 44.2055C105.95 44.2162 106.002 44.239 106.047 44.2721C106.093 44.3053 106.13 44.348 106.157 44.3973C106.183 44.4466 106.199 44.5011 106.202 44.5571C106.205 44.613 106.196 44.669 106.174 44.7209C106.239 44.7471 106.317 44.7784 106.408 44.8156C106.993 45.0527 107.151 46.9971 107.356 47.0918C107.562 47.1869 107.531 47.5821 107.531 47.5821Z" fill="white" stroke="#1A1A1A" stroke-width="0.5" stroke-linecap="round" stroke-linejoin="round"/>
        <path d="M106.369 47.583C106.369 47.7279 106.312 47.8668 106.209 47.9692C106.107 48.0715 105.968 48.1291 105.823 48.1291C105.678 48.1291 105.539 48.0715 105.437 47.9692C105.334 47.8668 105.277 47.7279 105.276 47.583H106.369Z" fill="#8200FF" stroke="#1A1A1A" stroke-width="0.5" stroke-linecap="round" stroke-linejoin="round"/>
        <path d="M100.269 92.0598H99.7114V94.6883H100.269V92.0598Z" fill="white" stroke="#1A1A1A" stroke-width="0.5" stroke-linecap="round" stroke-linejoin="round"/>
        <path d="M61.226 92.0598H60.6685V94.6883H61.226V92.0598Z" fill="white" stroke="#1A1A1A" stroke-width="0.5" stroke-linecap="round" stroke-linejoin="round"/>
        <path d="M47.1308 92.0598H46.5732V94.6883H47.1308V92.0598Z" fill="white" stroke="#1A1A1A" stroke-width="0.5" stroke-linecap="round" stroke-linejoin="round"/>
        <path d="M110.48 20.7217H100.444V23.1431H110.48V20.7217Z" fill="#1C0903" stroke="#1A1A1A" stroke-width="0.5" stroke-linecap="round" stroke-linejoin="round"/>
        <path d="M110.48 57.1282H100.444V59.5496H110.48V57.1282Z" fill="#1C0903" stroke="#1A1A1A" stroke-width="0.5" stroke-linecap="round" stroke-linejoin="round"/>
        <path d="M110.48 52.0459H100.444V54.4674H110.48V52.0459Z" fill="#1C0903" stroke="#1A1A1A" stroke-width="0.5" stroke-linecap="round" stroke-linejoin="round"/>
        <path d="M129.818 61.2558L128.462 60.872C128.391 60.852 128.317 60.8495 128.244 60.8647C128.172 60.8799 128.105 60.9124 128.048 60.9595L126.963 61.8593C126.898 61.9134 126.819 61.9482 126.735 61.9597C126.651 61.9712 126.566 61.959 126.488 61.9244C126.411 61.8898 126.345 61.8343 126.297 61.7641C126.25 61.6939 126.223 61.6118 126.22 61.5271L126.165 60.1185C126.163 60.0449 126.142 59.9731 126.105 59.9093C126.068 59.8455 126.017 59.7915 125.954 59.7522L124.763 58.9982C124.692 58.9529 124.634 58.8885 124.597 58.8121C124.56 58.7358 124.546 58.6507 124.555 58.5665C124.563 58.4822 124.596 58.4021 124.648 58.3352C124.7 58.2684 124.77 58.2174 124.849 58.1882L126.172 57.7013C126.241 57.6759 126.303 57.634 126.353 57.5794C126.402 57.5247 126.437 57.4588 126.455 57.3875L126.804 56.0217C126.825 55.9396 126.869 55.865 126.93 55.8063C126.991 55.7477 127.068 55.7073 127.151 55.6898C127.234 55.6722 127.32 55.6782 127.399 55.7071C127.479 55.736 127.549 55.7866 127.601 55.8532L128.473 56.961C128.519 57.0188 128.578 57.0648 128.645 57.0948C128.712 57.1248 128.786 57.1381 128.859 57.1333L130.266 57.0432C130.351 57.0377 130.435 57.0561 130.51 57.0961C130.584 57.1362 130.646 57.1963 130.689 57.2698C130.731 57.3432 130.752 57.4271 130.749 57.5118C130.746 57.5965 130.72 57.6787 130.673 57.7491L129.888 58.9206C129.847 58.9818 129.822 59.052 129.814 59.1252C129.806 59.1985 129.817 59.2725 129.844 59.3409L130.364 60.651C130.396 60.7297 130.404 60.8157 130.389 60.8991C130.374 60.9825 130.336 61.0601 130.279 61.123C130.223 61.1859 130.149 61.2317 130.068 61.2552C129.986 61.2786 129.9 61.2788 129.818 61.2558Z" fill="white" stroke="#1A1A1A" stroke-width="0.5" stroke-linecap="round" stroke-linejoin="round"/>
        <path d="M34.003 39.355H26.7429V46.615H34.003V39.355Z" fill="white" stroke="#1A1A1A" stroke-width="0.5" stroke-linecap="round" stroke-linejoin="round"/>
        <path d="M30.3733 40.5955V45.3747" stroke="#1A1A1A" stroke-width="0.5" stroke-linecap="round" stroke-linejoin="round"/>
        <path d="M27.9919 42.9846H32.6943" stroke="#1A1A1A" stroke-width="0.5" stroke-linecap="round" stroke-linejoin="round"/>
        <path d="M128.256 33.0031C130.816 33.0031 132.892 30.9272 132.892 28.3665C132.892 25.8058 130.816 23.73 128.256 23.73C125.695 23.73 123.619 25.8058 123.619 28.3665C123.619 30.9272 125.695 33.0031 128.256 33.0031Z" fill="white" stroke="#1A1A1A" stroke-width="0.5" stroke-linecap="round" stroke-linejoin="round"/>
        <path d="M130.853 27.8562H130.4V30.6803H128.945V29.2769C128.946 29.1937 128.929 29.1113 128.897 29.0345C128.866 28.9576 128.819 28.8877 128.76 28.8289C128.701 28.77 128.632 28.7234 128.555 28.6915C128.478 28.6597 128.396 28.6433 128.312 28.6433C128.229 28.6433 128.147 28.6597 128.07 28.6915C127.993 28.7234 127.923 28.77 127.864 28.8289C127.806 28.8877 127.759 28.9576 127.727 29.0345C127.695 29.1113 127.679 29.1937 127.679 29.2769V30.6803H126.225V27.8562H125.659L128.212 25.3577L130.853 27.8562Z" fill="white" stroke="#1A1A1A" stroke-width="0.5" stroke-linecap="round" stroke-linejoin="round"/>
    </g>
    <defs>
        <filter id="filter0_d_867_1022" x="0.75" y="0.75" width="160.424" height="128.5" filterUnits="userSpaceOnUse" color-interpolation-filters="sRGB">
            <feFlood flood-opacity="0" result="BackgroundImageFix"/>
            <feColorMatrix in="SourceAlpha" type="matrix" values="0 0 0 0 0 0 0 0 0 0 0 0 0 0 0 0 0 0 127 0" result="hardAlpha"/>
            <feOffset/>
            <feGaussianBlur stdDeviation="7"/>
            <feComposite in2="hardAlpha" operator="out"/>
            <feColorMatrix type="matrix" values="0 0 0 0 0 0 0 0 0 0 0 0 0 0 0 0 0 0 0.25 0"/>
            <feBlend mode="normal" in2="BackgroundImageFix" result="effect1_dropShadow_867_1022"/>
            <feBlend mode="normal" in="SourceGraphic" in2="effect1_dropShadow_867_1022" result="shape"/>
        </filter>
    </defs>
</svg>