<svg xmlns="http://www.w3.org/2000/svg" width="100" height="100" viewBox="0 0 165 130" fill="none">
    <g filter="url(#filter0_d_867_870)">
        <path d="M100.797 112.51C99.3452 109.12 102.135 102.749 105.709 100.068C110.126 96.755 118.061 99.4335 118.73 99.8503C118.983 99.2644 122.998 90.3966 131.173 90.0659C137.498 89.81 140.419 92.0382 142.882 100.396C143.091 100.304 146.231 100.506 148.252 102.631C150.676 105.18 150.448 111.025 148.243 114.758H103.361C101.766 114.201 101.102 113.223 100.797 112.51Z" stroke="#FF4200" stroke-width="0.5" stroke-linecap="round" stroke-linejoin="round"/>
        <path d="M123.683 102.179C118.707 98.3601 112.977 99.6049 112.197 99.7883C111.504 94.401 107.645 90.1482 102.81 89.2348C97.3699 88.2073 93.2528 91.889 92.781 92.325C91.1507 88.9593 87.5235 82.672 80.42 77.9816C72.4719 72.7336 57.8169 67.93 47.1852 75.5327C41.504 79.5954 39.1206 85.6638 38.0894 89.5263C31.2508 86.7531 23.3479 89.3765 19.5479 95.6485C15.7943 101.844 17.0432 109.951 22.5215 114.759H128.873C128.918 114.375 129.676 106.777 123.683 102.179Z" fill="white" stroke="#FF4200" stroke-width="0.5" stroke-linecap="round" stroke-linejoin="round"/>
        <path d="M121.389 15H46.7974C45.0794 15 43.6868 16.3927 43.6868 18.1106V66.9891C43.6868 68.707 45.0794 70.0997 46.7974 70.0997H121.389C123.107 70.0997 124.5 68.707 124.5 66.9891V18.1106C124.5 16.3927 123.107 15 121.389 15Z" fill="white" stroke="#FF4200" stroke-width="0.5" stroke-linecap="round" stroke-linejoin="round"/>
        <path d="M122.659 21.2391C122.659 19.917 122.134 18.649 121.199 17.714C120.264 16.7791 118.996 16.2539 117.674 16.2539H50.5123C49.1902 16.2539 47.9221 16.7791 46.9872 17.714C46.0523 18.649 45.5271 19.917 45.5271 21.2391V21.9959H122.659V21.2391Z" fill="#1C0903" stroke="#FF4200" stroke-width="0.5" stroke-linecap="round" stroke-linejoin="round"/>
        <path d="M45.5271 21.9963V63.8593C45.5271 65.1815 46.0523 66.4495 46.9872 67.3844C47.9221 68.3193 49.1902 68.8445 50.5123 68.8445H117.674C118.996 68.8445 120.264 68.3193 121.199 67.3844C122.134 66.4495 122.659 65.1815 122.659 63.8593V21.9963H45.5271Z" fill="white" stroke="#FF4200" stroke-width="0.5" stroke-linecap="round" stroke-linejoin="round"/>
        <path d="M45.5271 28.2942H122.659" stroke="#FF4200" stroke-width="0.5" stroke-linecap="round" stroke-linejoin="round" stroke-dasharray="22.08 22.08"/>
        <path d="M93.7141 24.0952H85.8428V26.3692H93.7141V24.0952Z" fill="#1C0903" stroke="#FF4200" stroke-width="0.5" stroke-linecap="round" stroke-linejoin="round"/>
        <path d="M104.385 24.0952H96.5132V26.3692H104.385V24.0952Z" fill="white" stroke="#FF4200" stroke-width="0.5" stroke-linecap="round" stroke-linejoin="round"/>
        <path d="M115.054 24.0952H107.183V26.3692H115.054V24.0952Z" fill="white" stroke="#FF4200" stroke-width="0.5" stroke-linecap="round" stroke-linejoin="round"/>
        <path d="M64.2061 24.0952H49.2847V42.5492H64.2061V24.0952Z" fill="white" stroke="#FF4200" stroke-width="0.5" stroke-linecap="round" stroke-linejoin="round"/>
        <path d="M60.9558 33.9526H52.7815V34.7014H60.9558V33.9526Z" fill="white" stroke="#FF4200" stroke-width="0.5" stroke-linecap="round" stroke-linejoin="round"/>
        <path d="M62.1419 36.1372H51.5964V36.886H62.1419V36.1372Z" fill="white" stroke="#FF4200" stroke-width="0.5" stroke-linecap="round" stroke-linejoin="round"/>
        <path d="M62.1419 38.0713H51.5964V38.8201H62.1419V38.0713Z" fill="white" stroke="#FF4200" stroke-width="0.5" stroke-linecap="round" stroke-linejoin="round"/>
        <path d="M56.7453 31.5737C58.1824 31.5737 59.3474 30.4087 59.3474 28.9717C59.3474 27.5346 58.1824 26.3696 56.7453 26.3696C55.3083 26.3696 54.1433 27.5346 54.1433 28.9717C54.1433 30.4087 55.3083 31.5737 56.7453 31.5737Z" fill="#1C0903" stroke="#FF4200" stroke-width="0.5" stroke-linecap="round" stroke-linejoin="round"/>
        <path d="M61.6262 65.1311H51.5964V66.8999H61.6262V65.1311Z" fill="#1C0903" stroke="#FF4200" stroke-width="0.5" stroke-linecap="round" stroke-linejoin="round"/>
        <path d="M117.066 68.8447H67.3013V65.1311H122.496C121.476 68.0916 119.446 68.8495 117.066 68.8447Z" fill="#1C0903" stroke="#FF4200" stroke-width="0.5" stroke-linecap="round" stroke-linejoin="round"/>
        <path d="M67.3013 21.9963V68.8445" stroke="#FF4200" stroke-width="0.5" stroke-linecap="round" stroke-linejoin="round" stroke-dasharray="22.08 22.08"/>
        <path d="M82.5219 33.322H70.3625V45.42H82.5219V33.322Z" stroke="#FF4200" stroke-width="0.5" stroke-linecap="round" stroke-linejoin="round" stroke-dasharray="22.08 22.08"/>
        <path d="M99.7939 33.322H87.6345V45.42H99.7939V33.322Z" stroke="#FF4200" stroke-width="0.5" stroke-linecap="round" stroke-linejoin="round" stroke-dasharray="22.08 22.08"/>
        <path d="M117.066 33.322H104.907V45.42H117.066V33.322Z" stroke="#FF4200" stroke-width="0.5" stroke-linecap="round" stroke-linejoin="round" stroke-dasharray="22.08 22.08"/>
        <path d="M82.5219 49.2012H70.3625V61.2992H82.5219V49.2012Z" stroke="#FF4200" stroke-width="0.5" stroke-linecap="round" stroke-linejoin="round" stroke-dasharray="22.08 22.08"/>
        <path d="M99.7939 49.2012H87.6345V61.2992H99.7939V49.2012Z" stroke="#FF4200" stroke-width="0.5" stroke-linecap="round" stroke-linejoin="round" stroke-dasharray="22.08 22.08"/>
        <path d="M117.066 49.2012H104.907V61.2992H117.066V49.2012Z" stroke="#FF4200" stroke-width="0.5" stroke-linecap="round" stroke-linejoin="round" stroke-dasharray="22.08 22.08"/>
        <path d="M81.7664 44.4981C78.3622 44.6923 74.2473 44.3879 73.2489 43.4685C72.2505 42.5491 72.0965 42.0461 71.8083 40.6996C71.4066 38.8224 71.2847 36.4401 71.2209 33.9526H81.7664V44.4981Z" fill="white" stroke="#FF4200" stroke-width="0.5" stroke-linecap="round" stroke-linejoin="round"/>
        <path d="M71.7258 40.2851C72.1371 42.0001 74.4969 42.0333 74.4969 42.0333C74.4969 42.0333 74.5448 43.4898 75.6261 44.2727M98.987 44.4981C95.5828 44.6923 91.4679 44.3879 90.4695 43.4685C89.4711 42.5491 89.3171 42.0461 89.0289 40.6996C88.6272 38.8224 88.5053 36.4401 88.4415 33.9526H98.987V44.4981Z" fill="white"/>
        <path d="M71.7258 40.2851C72.1371 42.0001 74.4969 42.0333 74.4969 42.0333C74.4969 42.0333 74.5448 43.4898 75.6261 44.2727M98.987 44.4981C95.5828 44.6923 91.4679 44.3879 90.4695 43.4685C89.4711 42.5491 89.3171 42.0461 89.0289 40.6996C88.6272 38.8224 88.5053 36.4401 88.4415 33.9526H98.987V44.4981Z" stroke="#FF4200" stroke-width="0.5" stroke-linecap="round" stroke-linejoin="round"/>
        <path d="M88.9458 40.2851C89.3571 42.0001 91.7169 42.0333 91.7169 42.0333C91.7169 42.0333 91.7647 43.4898 92.846 44.2727M116.207 44.4981C112.803 44.6923 108.688 44.3879 107.689 43.4685C106.691 42.5491 106.537 42.0461 106.249 40.6996C105.847 38.8224 105.725 36.4401 105.662 33.9526H116.207V44.4981Z" fill="white"/>
        <path d="M88.9458 40.2851C89.3571 42.0001 91.7169 42.0333 91.7169 42.0333C91.7169 42.0333 91.7647 43.4898 92.846 44.2727M116.207 44.4981C112.803 44.6923 108.688 44.3879 107.689 43.4685C106.691 42.5491 106.537 42.0461 106.249 40.6996C105.847 38.8224 105.725 36.4401 105.662 33.9526H116.207V44.4981Z" stroke="#FF4200" stroke-width="0.5" stroke-linecap="round" stroke-linejoin="round"/>
        <path d="M106.167 40.2859C106.578 42.0008 108.938 42.0341 108.938 42.0341C108.938 42.0341 108.986 43.4906 110.067 44.2735M81.7664 60.4956C78.3622 60.6898 74.2473 60.3854 73.2489 59.466C72.2505 58.5466 72.0965 58.0436 71.8083 56.697C71.4066 54.8199 71.2847 52.4376 71.2209 49.9501H81.7664V60.4956Z" fill="white"/>
        <path d="M106.167 40.2859C106.578 42.0008 108.938 42.0341 108.938 42.0341C108.938 42.0341 108.986 43.4906 110.067 44.2735M81.7664 60.4956C78.3622 60.6898 74.2473 60.3854 73.2489 59.466C72.2505 58.5466 72.0965 58.0436 71.8083 56.697C71.4066 54.8199 71.2847 52.4376 71.2209 49.9501H81.7664V60.4956Z" stroke="#FF4200" stroke-width="0.5" stroke-linecap="round" stroke-linejoin="round"/>
        <path d="M71.7258 56.2822C72.1371 57.9971 74.4969 58.0304 74.4969 58.0304C74.4969 58.0304 74.5448 59.4869 75.6261 60.2698M98.987 60.4952C95.5828 60.6894 91.4679 60.385 90.4695 59.4656C89.4711 58.5462 89.3171 58.0432 89.0289 56.6966C88.6272 54.8195 88.5053 52.4372 88.4415 49.9497H98.987V60.4952Z" fill="white"/>
        <path d="M71.7258 56.2822C72.1371 57.9971 74.4969 58.0304 74.4969 58.0304C74.4969 58.0304 74.5448 59.4869 75.6261 60.2698M98.987 60.4952C95.5828 60.6894 91.4679 60.385 90.4695 59.4656C89.4711 58.5462 89.3171 58.0432 89.0289 56.6966C88.6272 54.8195 88.5053 52.4372 88.4415 49.9497H98.987V60.4952Z" stroke="#FF4200" stroke-width="0.5" stroke-linecap="round" stroke-linejoin="round"/>
        <path d="M88.9458 56.2822C89.3571 57.9971 91.7169 58.0304 91.7169 58.0304C91.7169 58.0304 91.7647 59.4869 92.846 60.2698M116.207 60.4952C112.803 60.6894 108.688 60.385 107.689 59.4656C106.691 58.5462 106.537 58.0432 106.249 56.6966C105.847 54.8195 105.725 52.4372 105.662 49.9497H116.207V60.4952Z" fill="white"/>
        <path d="M88.9458 56.2822C89.3571 57.9971 91.7169 58.0304 91.7169 58.0304C91.7169 58.0304 91.7647 59.4869 92.846 60.2698M116.207 60.4952C112.803 60.6894 108.688 60.385 107.689 59.4656C106.691 58.5462 106.537 58.0432 106.249 56.6966C105.847 54.8195 105.725 52.4372 105.662 49.9497H116.207V60.4952Z" stroke="#FF4200" stroke-width="0.5" stroke-linecap="round" stroke-linejoin="round"/>
        <path d="M106.167 56.2822C106.578 57.9972 108.938 58.0305 108.938 58.0305C108.938 58.0305 108.986 59.4869 110.067 60.2698" fill="white"/>
        <path d="M106.167 56.2822C106.578 57.9972 108.938 58.0305 108.938 58.0305C108.938 58.0305 108.986 59.4869 110.067 60.2698" stroke="#FF4200" stroke-width="0.5" stroke-linecap="round" stroke-linejoin="round"/>
        <path d="M15 114.76H141.292" stroke="#FF4200" stroke-width="0.5" stroke-linecap="round" stroke-linejoin="round"/>
        <path d="M113.975 74.7898C114.646 73.4196 114.384 72.545 113.421 72.72C112.459 72.8949 106.775 75.4604 106.191 76.1309C105.831 76.5448 106.227 78.4197 106.583 79.7941C106.616 79.7773 106.649 79.7617 106.682 79.7487C107.886 79.3721 109.14 79.077 110.4 78.9391C110.334 78.6828 110.266 78.4141 110.199 78.1425C110.387 77.7635 113.305 76.16 113.975 74.7898Z" fill="white" stroke="#FF4200" stroke-width="0.5" stroke-linecap="round" stroke-linejoin="round"/>
        <path d="M106.583 79.7947C106.803 80.6465 107.008 81.3062 107.008 81.3062L110.885 80.7668C110.885 80.7668 110.66 79.9518 110.4 78.9397C109.14 79.0776 107.886 79.3727 106.682 79.7492C106.649 79.7623 106.616 79.7778 106.583 79.7947Z" fill="#1C0903" stroke="#FF4200" stroke-width="0.5" stroke-linecap="round" stroke-linejoin="round"/>
        <path d="M108.757 102.165C108.757 102.165 105.317 97.6755 106.716 80.9416C106.775 80.1253 108.932 79.4839 110.74 79.4839C112.43 81.8745 116.337 97.6172 116.512 99.8329C116.687 102.049 115.929 104.856 115.754 104.852C115.579 104.847 108.757 102.165 108.757 102.165Z" fill="white" stroke="#FF4200" stroke-width="0.5" stroke-linecap="round" stroke-linejoin="round"/>
        <path d="M108.734 82.0938C108.734 82.0938 111.812 102.901 113.808 105.165" stroke="#FF4200" stroke-width="0.5" stroke-linecap="round" stroke-linejoin="round" stroke-dasharray="22.08 22.08"/>
        <path d="M128.147 82.7004C127.918 83.0472 127.782 83.2733 127.782 83.2733C127.782 83.2733 130.534 85.6347 130.622 85.6347C130.688 85.6347 131.303 84.5545 131.876 84.0253C130.999 82.9454 129.594 82.3377 128.147 82.7004Z" fill="#1C0903" stroke="#FF4200" stroke-width="0.5" stroke-linecap="round" stroke-linejoin="round"/>
        <path d="M138.872 84.1186C138.114 83.2149 133.479 79.1043 131.905 79.0751C130.694 79.0527 128.908 81.5464 128.147 82.7003C129.594 82.3376 130.998 82.9453 131.876 84.0252C132.062 83.8536 132.243 83.7396 132.4 83.7396C133.042 83.7396 134.907 85.3139 137.21 85.897C139.514 86.48 139.63 85.0224 138.872 84.1186Z" fill="white" stroke="#FF4200" stroke-width="0.5" stroke-linecap="round" stroke-linejoin="round"/>
        <path d="M128.115 83.0403C116.395 91.145 114.879 103.055 114.879 103.055C114.879 103.055 107.941 100.124 101.585 99.4245C95.2299 98.7248 88.2332 103.642 88.2332 103.642L88.2627 104.346L88.6996 114.759H103.568C106.075 114.759 117.736 115.809 120.185 112.543C122.634 109.278 131.438 85.4309 131.438 84.9062C131.438 84.3814 130.739 82.982 128.115 83.0403Z" fill="white" stroke="#FF4200" stroke-width="0.5" stroke-linecap="round" stroke-linejoin="round"/>
        <path d="M93.4661 109.363C93.4661 109.363 111.437 108.115 115.992 109.363C119.549 102.187 127.005 87.0483 129.829 85.0081" stroke="#FF4200" stroke-width="0.5" stroke-linecap="round" stroke-linejoin="round" stroke-dasharray="22.08 22.08"/>
        <path d="M88.4741 104.527C88.4741 104.527 89.0045 103.656 90.0965 105.854C91.1885 108.052 91.9373 113.333 89.9093 114.92L88.3491 114.808L88.4741 104.527Z" fill="#1C0903" stroke="#FF4200" stroke-width="0.5" stroke-linecap="round" stroke-linejoin="round"/>
        <path d="M54.0981 108.252C54.0981 108.252 59.9549 102.507 61.2303 100.444C62.5385 99.1398 61.7441 94.6032 66.0126 94.0849C66.0126 94.0849 70.8094 92.5392 79.8564 97.7844C87.3028 102.393 88.7297 104.174 89.3845 105.243C90.0393 106.311 91.6442 111.499 89.0171 114.798C80.3147 114.966 66.3939 114.128 64.5832 114.083" fill="#FA7F54"/>
        <path d="M54.0981 108.252C54.0981 108.252 59.9549 102.507 61.2303 100.444C62.5385 99.1398 61.7441 94.6032 66.0126 94.0849C66.0126 94.0849 70.8094 92.5392 79.8564 97.7844C87.3028 102.393 88.7297 104.174 89.3845 105.243C90.0393 106.311 91.6442 111.499 89.0171 114.798C80.3147 114.966 66.3939 114.128 64.5832 114.083" stroke="#FF4200" stroke-width="0.5" stroke-linecap="round" stroke-linejoin="round"/>
        <path d="M54.5032 97.441C54.5032 97.441 55.7138 95.5844 54.7008 94.3114C53.6879 93.0384 53.0678 91.3706 53.6999 90.3829C54.332 89.3952 55.3528 89.3842 55.943 90.2945C56.5332 91.2049 59.3698 94.3317 58.2842 95.6582C57.1986 96.9847 56.2206 99.0656 56.2206 99.0656L54.5032 97.441Z" fill="white" stroke="#FF4200" stroke-width="0.5" stroke-linecap="round" stroke-linejoin="round"/>
        <path d="M57.252 110.01C53.3675 108.609 56.3724 100.46 56.6678 99.4419C56.9632 98.4237 55.2515 97.5575 54.8561 97.1501C54.4608 96.7426 54.0551 97.1816 54.0551 97.1816C54.0551 97.1816 45.7659 107.837 47.0219 111.945C48.2779 116.053 59.3722 114.39 59.3722 114.39C59.3722 114.39 65.7436 114.903 66.0674 114.672C66.3913 114.44 66.0674 111.785 66.0674 111.785" fill="#FA7F54"/>
        <path d="M57.252 110.01C53.3675 108.609 56.3724 100.46 56.6678 99.4419C56.9632 98.4237 55.2515 97.5575 54.8561 97.1501C54.4608 96.7426 54.0551 97.1816 54.0551 97.1816C54.0551 97.1816 45.7659 107.837 47.0219 111.945C48.2779 116.053 59.3722 114.39 59.3722 114.39C59.3722 114.39 65.7436 114.903 66.0674 114.672C66.3913 114.44 66.0674 111.785 66.0674 111.785" stroke="#FF4200" stroke-width="0.5" stroke-linecap="round" stroke-linejoin="round"/>
        <path d="M57.5416 84.2214C57.5416 84.2214 54.0839 89.0258 55.5823 92.9931C57.0808 96.9603 61.6023 93.9812 61.6023 93.9812" fill="white"/>
        <path d="M57.5416 84.2214C57.5416 84.2214 54.0839 89.0258 55.5823 92.9931C57.0808 96.9603 61.6023 93.9812 61.6023 93.9812" stroke="#FF4200" stroke-width="0.5" stroke-linecap="round" stroke-linejoin="round"/>
        <path d="M60.1902 94.6779C60.1902 94.6779 61.0824 99.7545 61.9586 100.969C65.0136 101.666 66.4612 98.0785 66.3783 94.4931C65.1215 93.6965 63.9569 90.7957 63.9569 90.7957" fill="white"/>
        <path d="M60.1902 94.6779C60.1902 94.6779 61.0824 99.7545 61.9586 100.969C65.0136 101.666 66.4612 98.0785 66.3783 94.4931C65.1215 93.6965 63.9569 90.7957 63.9569 90.7957" stroke="#FF4200" stroke-width="0.5" stroke-linecap="round" stroke-linejoin="round"/>
        <path d="M61.4008 94.0823L60.2542 95.2367L60.1902 94.6361L61.4008 94.0823Z" fill="#1C0903" stroke="#FF4200" stroke-width="0.5" stroke-linecap="round" stroke-linejoin="round"/>
        <path d="M57.308 79.9638C56.8269 79.7858 54.5119 84.341 58.6939 86.0726C59.917 86.7538 60.2911 86.6224 59.9142 87.425C59.5374 88.2276 59.6236 89.0411 60.1401 89.1375C60.6566 89.2338 61.5344 88.5573 61.8947 88.0763C62.255 87.5953 63.4847 88.4439 63.2557 89.2955C63.0266 90.147 62.1531 90.5607 62.1954 90.8945C62.6697 91.8241 62.9103 92.7482 64.8128 92.1627C66.7154 91.5771 66.5665 88.1694 66.3341 87.0845C66.1017 85.9995 65.5744 84.0947 62.8069 83.4598C60.0393 82.8248 57.7892 80.1418 57.308 79.9638Z" fill="#1C0903" stroke="#FF4200" stroke-width="0.5" stroke-linecap="round" stroke-linejoin="round"/>
        <path d="M59.5047 111.742C57.8238 112.399 56.6495 114.742 57.4621 114.819C58.0366 114.874 60.8925 114.858 62.5177 114.843C62.3779 113.686 62.138 112.568 61.4315 111.595C60.8684 111.486 60.1902 111.474 59.5047 111.742Z" fill="white" stroke="#FF4200" stroke-width="0.5" stroke-linecap="round" stroke-linejoin="round"/>
        <path d="M72.8625 98.0166C72.8625 98.0166 84.4385 106.357 82.9692 111.273C81.4999 116.188 64.2337 114.832 63.5768 114.82C62.8957 114.197 61.784 110.444 62.2398 110.164C62.6955 109.883 70.0117 110.076 70.5993 109.441C71.187 108.805 71.3917 108.447 69.4002 106.775C67.4087 105.102 65.1897 100.989 68.5607 98.7988C69.4697 98.5442 69.6882 98.5356 69.6882 98.5356M61.4642 102.653C61.4642 102.653 60.6922 105.63 62.0117 107.678Z" fill="#FA7F54"/>
        <path d="M72.8625 98.0166C72.8625 98.0166 84.4385 106.357 82.9692 111.273C81.4999 116.188 64.2337 114.832 63.5768 114.82C62.8957 114.197 61.784 110.444 62.2398 110.164C62.6955 109.883 70.0117 110.076 70.5993 109.441C71.187 108.805 71.3917 108.447 69.4002 106.775C67.4087 105.102 65.1897 100.989 68.5607 98.7988C69.4697 98.5442 69.6882 98.5356 69.6882 98.5356M61.4642 102.653C61.4642 102.653 60.6922 105.63 62.0117 107.678" stroke="#FF4200" stroke-width="0.5" stroke-linecap="round" stroke-linejoin="round"/>
        <path d="M62.823 112.114C62.3912 111.865 61.9207 111.69 61.4309 111.595C62.1374 112.569 62.3773 113.686 62.5172 114.843C63.1912 114.838 63.6539 114.832 63.6539 114.832C63.6539 114.832 63.1532 112.288 62.823 112.114Z" fill="#1C0903" stroke="#FF4200" stroke-width="0.5" stroke-linecap="round" stroke-linejoin="round"/>
        <path d="M44.4447 113.039H32.3752V114.671H44.4447V113.039Z" fill="#1C0903" stroke="#FF4200" stroke-width="0.5" stroke-linecap="round" stroke-linejoin="round"/>
        <path d="M27.8176 102.01C27.905 102.185 33.5127 112.449 33.5127 112.449L32.3174 112.966L26.72 102.736L27.8176 102.01Z" fill="white" stroke="#FF4200" stroke-width="0.5" stroke-linecap="round" stroke-linejoin="round"/>
        <path d="M32.3756 61.6881C35.9311 61.6881 38.8134 58.8058 38.8134 55.2503C38.8134 51.6948 35.9311 48.8125 32.3756 48.8125C28.8201 48.8125 25.9377 51.6948 25.9377 55.2503C25.9377 58.8058 28.8201 61.6881 32.3756 61.6881Z" fill="white" stroke="#FF4200" stroke-width="0.5" stroke-linecap="round" stroke-linejoin="round"/>
        <path d="M33.3223 53.9355C33.6087 53.7686 33.8321 53.5121 33.9581 53.2055C34.084 52.8989 34.1054 52.5593 34.019 52.2393C33.9326 51.9194 33.7432 51.6367 33.48 51.4352C33.2169 51.2337 32.8946 51.1245 32.5632 51.1245C32.2317 51.1245 31.9095 51.2337 31.6463 51.4352C31.3832 51.6367 31.1938 51.9194 31.1073 52.2393C31.0209 52.5593 31.0423 52.8989 31.1683 53.2055C31.2942 53.5121 31.5177 53.7686 31.8041 53.9355C31.1465 54.1042 30.5638 54.4869 30.1477 55.0232C29.7316 55.5596 29.5057 56.2191 29.5056 56.898V58.3747H35.6207V56.898C35.6207 56.2191 35.3948 55.5596 34.9787 55.0232C34.5625 54.4869 33.9798 54.1042 33.3223 53.9355Z" fill="#1C0903" stroke="#FF4200" stroke-width="0.5" stroke-linecap="round" stroke-linejoin="round"/>
        <path d="M132.653 51.4984C134.307 51.4984 135.648 50.1574 135.648 48.5032C135.648 46.849 134.307 45.5081 132.653 45.5081C130.999 45.5081 129.658 46.849 129.658 48.5032C129.658 50.1574 130.999 51.4984 132.653 51.4984Z" fill="#1C0903" stroke="#FF4200" stroke-width="0.5" stroke-linecap="round" stroke-linejoin="round"/>
        <path d="M136.074 65.1509C139.41 65.1509 142.116 62.4459 142.116 59.109C142.116 55.7722 139.41 53.0671 136.074 53.0671C132.737 53.0671 130.032 55.7722 130.032 59.109C130.032 62.4459 132.737 65.1509 136.074 65.1509Z" fill="white" stroke="#FF4200" stroke-width="0.5" stroke-linecap="round" stroke-linejoin="round"/>
        <path d="M33.4146 34.4236H20.7679C20.1829 34.4236 19.6218 34.656 19.2081 35.0697C18.7944 35.4834 18.562 36.0444 18.562 36.6295V39.2858C18.562 39.8708 18.7944 40.4319 19.2081 40.8456C19.6218 41.2593 20.1829 41.4917 20.7679 41.4917H30.8679C31.311 42.1361 32.0587 43.1876 32.7048 44.0906C33.0314 44.5471 33.7512 44.2679 33.6851 43.7104L33.4218 41.4915C34.0056 41.4896 34.5648 41.2564 34.977 40.843C35.3891 40.4295 35.6205 39.8696 35.6205 39.2858V36.6295C35.6205 36.3398 35.5635 36.053 35.4526 35.7853C35.3418 35.5177 35.1793 35.2745 34.9744 35.0697C34.7696 34.8648 34.5264 34.7024 34.2588 34.5915C33.9912 34.4806 33.7043 34.4236 33.4146 34.4236Z" fill="white" stroke="#FF4200" stroke-width="0.5" stroke-linecap="round" stroke-linejoin="round"/>
        <path d="M32.4341 35.8557H21.1399V36.8541H32.4341V35.8557Z" fill="white" stroke="#FF4200" stroke-width="0.5" stroke-linecap="round" stroke-linejoin="round"/>
        <path d="M32.4341 38.3728H21.1399V39.3712H32.4341V38.3728Z" fill="white" stroke="#FF4200" stroke-width="0.5" stroke-linecap="round" stroke-linejoin="round"/>
        <path d="M59.5544 59.4928V58.5441H58.5757C58.5375 58.4055 58.4823 58.2722 58.4113 58.1471L59.1033 57.4551L58.4324 56.7842L57.7404 57.4762C57.6153 57.4052 57.482 57.35 57.3434 57.3118V56.3335H56.3951V57.3118C56.2565 57.35 56.1232 57.4052 55.9981 57.4762L55.3061 56.7842L54.6352 57.4551L55.3272 58.1471C55.2562 58.2722 55.201 58.4055 55.1628 58.5441H54.1841V59.4928H55.1628C55.201 59.6314 55.2562 59.7647 55.3272 59.8898L54.6352 60.5818L55.3061 61.2527L55.9981 60.5607C56.1232 60.6317 56.2565 60.6869 56.3951 60.7252V61.7034H57.3434V60.7252C57.482 60.6869 57.6153 60.6317 57.7404 60.5607L58.4324 61.2527L59.1033 60.5818L58.4113 59.8898C58.4823 59.7647 58.5375 59.6314 58.5757 59.4928H59.5544ZM57.6906 59.4928C57.6074 59.637 57.4876 59.7568 57.3434 59.84C57.2717 59.8818 57.1947 59.9137 57.1146 59.9349C56.9537 59.9778 56.7844 59.9778 56.6235 59.9349C56.5435 59.9137 56.4667 59.8818 56.3951 59.84C56.1774 59.7139 56.0183 59.5069 55.9526 59.264C55.9315 59.1838 55.9208 59.1013 55.9208 59.0185C55.9207 58.9355 55.9316 58.853 55.953 58.7729C55.9743 58.6928 56.0062 58.6158 56.0479 58.5441C56.1313 58.4 56.251 58.2803 56.3951 58.1969C56.4667 58.1551 56.5435 58.1232 56.6235 58.102C56.7844 58.0591 56.9537 58.0591 57.1146 58.102C57.1947 58.1232 57.2717 58.1551 57.3434 58.1969C57.4875 58.2803 57.6072 58.4 57.6906 58.5441C57.7323 58.6158 57.7643 58.6928 57.7855 58.7729C57.807 58.853 57.8178 58.9355 57.8177 59.0185C57.8177 59.1013 57.807 59.1838 57.7859 59.264C57.7643 59.3441 57.7323 59.421 57.6906 59.4928Z" fill="#1C0903" stroke="#FF4200" stroke-width="0.5" stroke-linecap="round" stroke-linejoin="round"/>
    </g>
    <defs>
        <filter id="filter0_d_867_870" x="0.75" y="0.75" width="163.485" height="128.5" filterUnits="userSpaceOnUse" color-interpolation-filters="sRGB">
            <feFlood flood-opacity="0" result="BackgroundImageFix"/>
            <feColorMatrix in="SourceAlpha" type="matrix" values="0 0 0 0 0 0 0 0 0 0 0 0 0 0 0 0 0 0 127 0" result="hardAlpha"/>
            <feOffset/>
            <feGaussianBlur stdDeviation="7"/>
            <feComposite in2="hardAlpha" operator="out"/>
            <feColorMatrix type="matrix" values="0 0 0 0 0 0 0 0 0 0 0 0 0 0 0 0 0 0 0.25 0"/>
            <feBlend mode="normal" in2="BackgroundImageFix" result="effect1_dropShadow_867_870"/>
            <feBlend mode="normal" in="SourceGraphic" in2="effect1_dropShadow_867_870" result="shape"/>
        </filter>
    </defs>
</svg>