<svg xmlns="http://www.w3.org/2000/svg" width="100" height="100" viewBox="0 0 107 102" fill="none">
    <path d="M98.8782 92.4199C98.8782 92.4199 91.6106 99.5424 74.4107 97.808C57.2109 96.0736 55.0689 93.9368 44.339 98.7053C42.811 99.3843 41.1652 99.826 39.5119 100.154C37.5754 100.537 35.603 100.76 33.6284 100.883C31.5065 101.012 29.3795 101.034 27.2554 100.95C25.1492 100.869 23.046 100.694 20.9601 100.411C19.0562 100.152 17.1619 99.8069 15.3094 99.3222C13.7853 98.9234 12.2691 98.4352 10.8702 97.7404C9.86933 97.2432 8.84579 96.6153 8.20965 95.7219C7.83389 95.1942 7.60586 94.5302 7.74545 93.8979C7.86007 93.3787 8.2458 92.8867 8.50879 92.4199H98.8782Z" fill="white" stroke="#1A1A1A" stroke-width="0.5" stroke-linecap="round" stroke-linejoin="round"/>
    <path d="M50.2742 92.3425H1.58279C1.51009 91.488 1.0665 85.2199 5.16728 81.7951C9.78077 77.9422 18.7339 78.8674 24.7085 85.8421C33.2304 88.0089 41.7523 90.1757 50.2742 92.3425Z" stroke="#1A1A1A" stroke-width="0.5" stroke-linecap="round" stroke-linejoin="round"/>
    <path d="M99.0734 92.4203H8.58424C9.9191 89.7617 12.305 85.7633 16.3598 81.9334C18.777 79.6502 27.2736 71.8711 40.1371 71.7914C49.0014 71.7365 55.6009 75.3645 58.6181 77.3131C61.5695 74.6653 65.8819 74.2214 69.2109 76.1863C72.2951 78.0066 73.9959 81.5762 73.4931 85.2014C75.4363 83.4539 79.4617 80.3513 85.3254 79.3416C88.8848 78.7286 94.2326 77.8078 97.4958 81.2573C101.293 85.2708 99.2175 91.9769 99.0734 92.4203Z" fill="white" stroke="#1A1A1A" stroke-width="0.5" stroke-linecap="round" stroke-linejoin="round"/>
    <path d="M29.2861 4.25344V6.32425H88.532V4.25344C88.532 3.94827 88.4719 3.64608 88.3552 3.36413C88.2384 3.08219 88.0672 2.826 87.8515 2.61022C87.6357 2.39443 87.3795 2.22326 87.0975 2.1065C86.8156 1.98973 86.5134 1.92965 86.2082 1.92969H31.6107C31.3054 1.92957 31.0032 1.98959 30.7211 2.10632C30.4391 2.22304 30.1828 2.39419 29.967 2.60999C29.7511 2.82578 29.5799 3.08199 29.463 3.36398C29.3462 3.64597 29.2861 3.94821 29.2861 4.25344Z" fill="#1C0903" stroke="#1A1A1A" stroke-width="0.5" stroke-linecap="round" stroke-linejoin="round"/>
    <path d="M29.2861 6.32422V34.4264C29.2861 34.7317 29.3462 35.0339 29.4631 35.3159C29.5799 35.5979 29.7511 35.8541 29.967 36.0699C30.1828 36.2857 30.4391 36.4568 30.7211 36.5736C31.0032 36.6903 31.3054 36.7503 31.6107 36.7502H86.2082C86.5134 36.7502 86.8156 36.6901 87.0975 36.5734C87.3795 36.4566 87.6357 36.2854 87.8515 36.0697C88.0672 35.8539 88.2384 35.5977 88.3552 35.3157C88.4719 35.0338 88.532 34.7316 88.532 34.4264V6.32422H29.2861Z" fill="white" stroke="#1A1A1A" stroke-width="0.5" stroke-linecap="round" stroke-linejoin="round"/>
    <path d="M27.1734 1H91.8286V3.28194H27.1734V1Z" fill="white" stroke="#1A1A1A" stroke-width="0.5" stroke-linecap="round" stroke-linejoin="round"/>
    <path d="M88.5322 11.0571H29.286" stroke="#1A1A1A" stroke-width="0.5" stroke-linecap="round" stroke-linejoin="round" stroke-dasharray="27.12 27.12"/>
    <path d="M50.0067 13.6775H85.0669V20.4388H50.0067V13.6775Z" stroke="#1A1A1A" stroke-width="0.5" stroke-linecap="round" stroke-linejoin="round" stroke-dasharray="27.12 27.12"/>
    <path d="M50.0067 22.2141H85.0669V34.3845H50.0067V22.2141Z" stroke="#1A1A1A" stroke-width="0.5" stroke-linecap="round" stroke-linejoin="round" stroke-dasharray="27.12 27.12"/>
    <path d="M45.72 6.6626V50.9955" stroke="#1A1A1A" stroke-width="0.5" stroke-linecap="round" stroke-linejoin="round" stroke-dasharray="27.12 27.12"/>
    <path d="M44.7245 10.2966H46.6965V11.987H44.7245V10.2966Z" fill="#1C0903" stroke="#1A1A1A" stroke-width="0.5" stroke-linecap="round" stroke-linejoin="round"/>
    <path d="M103.266 92.4199H0.944357" stroke="#1A1A1A" stroke-width="0.5" stroke-linecap="round" stroke-linejoin="round"/>
    <path d="M19.8726 89.449L18.8609 92.3424H17.8749L16.7199 89.449H19.8726Z" fill="#1C0903" stroke="#1A1A1A" stroke-width="0.5" stroke-linecap="round" stroke-linejoin="round"/>
    <path d="M32.9282 89.449L31.9166 92.3424H30.9306L29.7755 89.449H32.9282Z" fill="#1C0903" stroke="#1A1A1A" stroke-width="0.5" stroke-linecap="round" stroke-linejoin="round"/>
    <path d="M25.2854 72.2089C25.2854 72.2089 17.0592 70.5472 13.7912 73.8151C10.5232 77.0829 11.0866 84.0617 11.4247 85.7787C11.7628 87.4957 12.1572 89.6437 15.6505 89.8436C19.1439 90.0435 29.0605 91.0404 34.2724 89.0465C37.6812 85.391 38.2822 74.2061 38.2822 74.2061C38.2822 74.2061 36.066 71.1056 31.2579 71.7864C26.4499 72.4673 25.2854 72.2089 25.2854 72.2089ZM23.6601 72.131C23.6601 72.131 21.285 72.9882 21.116 74.3017ZM29.0042 72.8458C29.0042 72.8458 30.1029 73.2889 30.1311 74.452Z" fill="white"/>
    <path d="M23.6601 72.131C23.6601 72.131 21.285 72.9882 21.116 74.3017M29.0042 72.8458C29.0042 72.8458 30.1029 73.2889 30.1311 74.452M25.2854 72.2089C25.2854 72.2089 17.0592 70.5472 13.7912 73.8151C10.5232 77.0829 11.0866 84.0617 11.4247 85.7787C11.7628 87.4957 12.1572 89.6437 15.6505 89.8436C19.1439 90.0435 29.0605 91.0404 34.2724 89.0465C37.6812 85.391 38.2822 74.2061 38.2822 74.2061C38.2822 74.2061 36.066 71.1056 31.2579 71.7864C26.4499 72.4673 25.2854 72.2089 25.2854 72.2089Z" stroke="#1A1A1A" stroke-width="0.5" stroke-linecap="round" stroke-linejoin="round"/>
    <path d="M37.0334 74.4526C37.0334 74.5357 34.5534 76.2958 31.1455 75.4496C27.7375 74.6034 25.7082 75.865 25.1448 76.3081C24.5813 76.7512 17.8482 77.5543 16.017 76.1142L14.1858 74.6742" fill="white"/>
    <path d="M37.0334 74.4526C37.0334 74.5357 34.5534 76.2958 31.1455 75.4496C27.7375 74.6034 25.7082 75.865 25.1448 76.3081C24.5813 76.7512 17.8482 77.5543 16.017 76.1142L14.1858 74.6742" stroke="#1A1A1A" stroke-width="0.5" stroke-linecap="round" stroke-linejoin="round"/>
    <path d="M21.4169 46.6387L23.8204 45.4745C23.8204 45.4745 25.4099 44.2636 26.9235 43.1238C26.8323 43.0229 26.7463 42.9174 26.6658 42.8077C28.015 41.683 28.4561 40.005 28.5967 39.051C29.1413 38.4843 28.8544 37.3801 28.5114 36.5534C27.7368 36.5249 27.1306 36.2151 27.2294 35.4824C27.3282 34.7505 28.0601 34.6232 28.328 34.8343C28.596 34.5387 28.441 34.2715 28.1873 33.5104C29.4014 33.3238 29.6985 32.0402 29.7705 31.4846C29.8392 31.4467 29.8772 31.4261 29.8772 31.4261C29.8772 31.4261 30.666 31.257 31.5678 32.3833C31.782 32.6512 32.0768 33.033 32.389 33.4748C32.7408 33.0733 33.2585 32.2102 32.4602 31.1819C31.352 29.7544 29.6993 30.5622 29.4923 30.7124C27.9526 30.4863 25.3981 30.8246 24.7223 34.5813C24.0457 38.3373 21.8295 40.7416 20.402 41.7928C18.9746 42.8448 19.3879 45.6246 21.4169 46.6387Z" fill="#1C0903" stroke="#1A1A1A" stroke-width="0.5" stroke-linecap="round" stroke-linejoin="round"/>
    <path d="M34.2725 44.5259C34.2725 44.5259 38.9209 48.1216 41.5128 52.6203C42.0199 49.2871 43.7666 41.4552 44.33 41.7369C45.5696 42.8638 46.5274 42.6384 46.6965 43.2019C46.8655 43.7653 46.8655 56.8372 44.499 57.5697C42.1326 58.3022 33.7373 57.9078 33.7373 57.9078L32.8816 54.4707" fill="#FF1B6B" fill-opacity="0.4"/>
    <path d="M34.2725 44.5259C34.2725 44.5259 38.9209 48.1216 41.5128 52.6203C42.0199 49.2871 43.7666 41.4552 44.33 41.7369C45.5696 42.8638 46.5274 42.6384 46.6965 43.2019C46.8655 43.7653 46.8655 56.8372 44.499 57.5697C42.1326 58.3022 33.7373 57.9078 33.7373 57.9078L32.8816 54.4707" stroke="#1A1A1A" stroke-width="0.5" stroke-linecap="round" stroke-linejoin="round"/>
    <path d="M46.4825 43.3766C46.4825 43.3766 46.497 43.7664 45.6442 43.6725C44.7914 43.5785 44.1194 42.7764 44.2061 42.1838C44.2928 41.5912 44.8637 41.4755 45.2612 41.6056C45.6587 41.7357 46.6776 42.4302 46.4825 43.3766ZM34.3235 87.6925C34.5164 87.333 34.6578 87.0946 34.6578 87.0946C34.6578 87.0946 37.6064 87.5078 37.7304 87.5642C37.7939 87.593 37.745 87.9033 37.7024 88.2493C36.6299 88.7498 35.215 88.4197 34.3235 87.6925Z" fill="#1C0903" stroke="#1A1A1A" stroke-width="0.5" stroke-linecap="round" stroke-linejoin="round"/>
    <path d="M34.3233 87.6919C35.2148 88.4191 36.6297 88.7492 37.7022 88.2487C37.6617 88.5778 37.6269 88.9393 37.7001 89.1224C38.6956 89.3666 41.2498 90.8315 41.9635 91.2823C42.554 91.6552 43.4911 92.4526 39.7379 92.4186C38.9549 92.4115 33.2114 91.6204 33.2489 90.5123C33.2744 89.7596 33.9149 88.4531 34.3233 87.6919Z" fill="white" stroke="#1A1A1A" stroke-width="0.5" stroke-linecap="round" stroke-linejoin="round"/>
    <path d="M55.4306 88.2998C54.4584 88.8338 53.3587 89.0918 52.2505 89.0459C52.3173 88.7231 52.4005 88.4039 52.4999 88.0895C52.4999 88.0895 54.1526 87.4322 54.979 87.4885C55.0166 87.6453 55.2203 87.907 55.5308 88.2068C55.5029 88.2433 55.469 88.2747 55.4306 88.2998Z" fill="#1C0903" stroke="#1A1A1A" stroke-width="0.5" stroke-linecap="round" stroke-linejoin="round"/>
    <path d="M52.2503 89.0461C53.3585 89.092 54.4583 88.834 55.4304 88.3C55.4689 88.2749 55.5028 88.2435 55.5306 88.207C56.1499 88.805 57.1959 89.555 58.2093 89.9303C59.7306 90.4938 61.2706 91.5831 60.6509 92.3156C60.0311 93.048 57.9088 92.879 56.6504 92.5597C55.392 92.2404 54.0022 92.1841 52.8753 91.9024C51.7484 91.6206 52.1241 89.9115 52.1992 89.3481C52.2123 89.2499 52.2301 89.1478 52.2503 89.0461ZM34.0751 60.3495C34.0751 60.3495 43.879 59.5606 47.5602 64.4814C51.2413 69.4021 54.5469 79.3939 55.3733 87.1694C55.5611 88.1836 52.9317 88.4841 52.4433 88.3715C51.2038 87.4324 45.081 75.6752 43.1653 73.5716C41.2496 71.4681 38.7516 65.4862 38.7516 65.4862L30.6608 64.303L31.8203 60.303" fill="white"/>
    <path d="M34.0751 60.3495C34.0751 60.3495 43.879 59.5606 47.5602 64.4814C51.2413 69.4021 54.5469 79.3939 55.3733 87.1694C55.5611 88.1836 52.9317 88.4841 52.4433 88.3715C51.2038 87.4324 45.081 75.6752 43.1653 73.5716C41.2496 71.4681 38.7516 65.4862 38.7516 65.4862L30.6608 64.303L31.8203 60.303M52.2503 89.0461C53.3585 89.092 54.4583 88.834 55.4304 88.3C55.4689 88.2749 55.5028 88.2435 55.5306 88.207C56.1499 88.805 57.1959 89.555 58.2093 89.9303C59.7306 90.4938 61.2706 91.5831 60.6509 92.3156C60.0311 93.048 57.9088 92.879 56.6504 92.5597C55.392 92.2404 54.0022 92.1841 52.8753 91.9024C51.7484 91.6206 52.1241 89.9115 52.1992 89.3481C52.2123 89.2499 52.2301 89.1478 52.2503 89.0461Z" stroke="#1A1A1A" stroke-width="0.5" stroke-linecap="round" stroke-linejoin="round"/>
    <path d="M18.9751 62.7539C18.9751 62.7539 15.9325 68.2381 22.7314 71.7314C29.5303 75.2248 39.1465 68.5386 39.1465 68.5386C39.1465 68.5386 33.7374 79.4318 34.2727 87.151C34.6952 87.8835 37.8505 88.1089 38.2449 87.6581C38.6394 87.2074 47.8798 71.7127 44.6682 66.3036C41.4566 60.8945 32.6105 60.6128 32.6105 60.6128L18.9751 62.7539Z" fill="white" stroke="#1A1A1A" stroke-width="0.5" stroke-linecap="round" stroke-linejoin="round"/>
    <path d="M33.8838 61.2694C33.8838 61.2694 27.1418 64.2978 23.1882 63.8903C19.2346 63.4828 19.8349 62.4642 19.8349 62.4642L33.8838 60.2288L34.6821 60.8308L33.8838 61.2694Z" fill="#1C0903" stroke="#1A1A1A" stroke-width="0.5" stroke-linecap="round" stroke-linejoin="round"/>
    <path d="M34.9765 45.9064C34.9765 45.9064 37.9064 48.8926 37.1739 54.9215C36.7232 59.0346 34.9765 60.6123 34.9765 60.6123C34.9765 60.6123 24.0457 63.8239 21.5665 63.4295C19.0874 63.0351 19.6347 60.9503 19.5582 59.1473C19.4818 57.3443 21.2566 45.0612 23.9612 43.9343C26.6657 42.8074 27.7644 42.582 27.7644 42.582L32.1029 43.8216L34.1566 44.582" fill="#FF1B6B" fill-opacity="0.4"/>
    <path d="M34.9765 45.9064C34.9765 45.9064 37.9064 48.8926 37.1739 54.9215C36.7232 59.0346 34.9765 60.6123 34.9765 60.6123C34.9765 60.6123 24.0457 63.8239 21.5665 63.4295C19.0874 63.0351 19.6347 60.9503 19.5582 59.1473C19.4818 57.3443 21.2566 45.0612 23.9612 43.9343C26.6657 42.8074 27.7644 42.582 27.7644 42.582L32.1029 43.8216L34.1566 44.582" stroke="#1A1A1A" stroke-width="0.5" stroke-linecap="round" stroke-linejoin="round"/>
    <path d="M26.8172 42.675C26.8172 42.675 22.7502 43.286 19.6231 47.6527C16.496 52.0194 16.4396 60.7246 18.5244 62.8657C20.6091 65.0068 26.4408 67.1761 30.5539 59.5414C31.0047 57.8792 29.9341 56.6397 29.2016 56.696C28.1874 56.7523 25.3984 57.3158 23.4263 59.6823C22.1022 59.4005 21.1913 58.0003 22.0928 52.6199" fill="#FF1B6B" fill-opacity="0.4"/>
    <path d="M26.8172 42.675C26.8172 42.675 22.7502 43.286 19.6231 47.6527C16.496 52.0194 16.4396 60.7246 18.5244 62.8657C20.6091 65.0068 26.4408 67.1761 30.5539 59.5414C31.0047 57.8792 29.9341 56.6397 29.2016 56.696C28.1874 56.7523 25.3984 57.3158 23.4263 59.6823C22.1022 59.4005 21.1913 58.0003 22.0928 52.6199" stroke="#1A1A1A" stroke-width="0.5" stroke-linecap="round" stroke-linejoin="round"/>
    <path d="M28.8775 57.0486C28.8775 57.0486 29.7911 56.1471 31.8205 56.9782C33.0611 57.4853 33.0329 58.2037 33.0329 58.2037L28.3563 58.26C28.3563 58.26 28.5535 57.4008 28.8775 57.0486Z" fill="white" stroke="#1A1A1A" stroke-width="0.5" stroke-linecap="round" stroke-linejoin="round"/>
    <path d="M35.0145 56.8677H47.0347V58.0182H35.0145V56.8677Z" fill="white" stroke="#1A1A1A" stroke-width="0.5" stroke-linecap="round" stroke-linejoin="round"/>
    <path d="M45.7198 58.0144H46.364L50.0068 49.1558H49.3634L45.7198 58.0144Z" fill="#1C0903" stroke="#1A1A1A" stroke-width="0.5" stroke-linecap="round" stroke-linejoin="round"/>
    <path d="M46.3639 58.0144H60.6747L64.4314 49.1558H50.0068L46.3639 58.0144Z" fill="white" stroke="#1A1A1A" stroke-width="0.5" stroke-linecap="round" stroke-linejoin="round"/>
    <path d="M26.5816 58.0183H70.0232V59.739H26.5816V58.0183Z" fill="#1C0903" stroke="#1A1A1A" stroke-width="0.5" stroke-linecap="round" stroke-linejoin="round"/>
    <path d="M44.5273 42.1597C44.5273 42.1597 44.0202 39.596 44.4569 38.9622C44.8936 38.3283 45.4288 37.8494 45.781 37.8494C46.1331 37.8494 47.1755 38.6945 47.1755 39.3425C47.1755 39.9905 47.26 41.2716 46.9501 41.7297C46.6402 42.1879 46.274 42.7654 46.274 43.1598C46.274 43.5542 44.8513 43.512 44.5273 42.1597Z" fill="white" stroke="#1A1A1A" stroke-width="0.5" stroke-linecap="round" stroke-linejoin="round"/>
    <path d="M45.1189 39.4158C45.1189 39.4158 44.6133 41.6108 45.3479 41.7467C46.0824 41.8826 46.364 41.6513 46.364 41.6513M28.5969 39.0514C29.1415 38.4847 28.8546 37.3805 28.5115 36.5538C27.737 36.5253 27.1307 36.2155 27.2295 35.4828C27.3283 34.7509 28.0602 34.6236 28.3282 34.8347C28.5961 34.5391 28.4412 34.2719 28.1875 33.5108C29.4015 33.3242 29.6987 32.0406 29.7706 31.485C29.8394 31.4471 29.8773 31.4265 29.8773 31.4265C29.8773 31.4265 30.6661 31.2574 31.568 32.3837C31.7822 32.6516 32.077 33.0334 32.3892 33.4752C33.3914 34.8932 34.5667 36.9268 33.7937 37.7646C33.3171 38.2829 32.6715 38.6143 31.9726 38.6997L31.9062 39.6529C31.8217 41.5403 33.1171 43.5123 34.2727 44.5264C31.0155 46.1419 28.1211 44.4561 26.9236 43.1242C26.8325 43.0233 26.7465 42.9178 26.666 42.8081C28.0152 41.6834 28.4562 40.0054 28.5969 39.0514Z" fill="white"/>
    <path d="M45.1189 39.4158C45.1189 39.4158 44.6133 41.6108 45.3479 41.7467C46.0824 41.8826 46.364 41.6513 46.364 41.6513M28.5969 39.0514C29.1415 38.4847 28.8546 37.3805 28.5115 36.5538C27.737 36.5253 27.1307 36.2155 27.2295 35.4828C27.3283 34.7509 28.0602 34.6236 28.3282 34.8347C28.5961 34.5391 28.4412 34.2719 28.1875 33.5108C29.4015 33.3242 29.6987 32.0406 29.7706 31.485C29.8394 31.4471 29.8773 31.4265 29.8773 31.4265C29.8773 31.4265 30.6661 31.2574 31.568 32.3837C31.7822 32.6516 32.077 33.0334 32.3892 33.4752C33.3914 34.8932 34.5667 36.9268 33.7937 37.7646C33.3171 38.2829 32.6715 38.6143 31.9726 38.6997L31.9062 39.6529C31.8217 41.5403 33.1171 43.5123 34.2727 44.5264C31.0155 46.1419 28.1211 44.4561 26.9236 43.1242C26.8325 43.0233 26.7465 42.9178 26.666 42.8081C28.0152 41.6834 28.4562 40.0054 28.5969 39.0514Z" stroke="#1A1A1A" stroke-width="0.5" stroke-linecap="round" stroke-linejoin="round"/>
    <path d="M30.907 38.5471C30.907 38.5471 31.7067 39.2519 31.9573 39.1363V38.7701L30.907 38.5471Z" fill="#1C0903" stroke="#1A1A1A" stroke-width="0.5" stroke-linecap="round" stroke-linejoin="round"/>
    <path d="M30.892 38.4939C31.233 38.6405 31.6019 38.7106 31.9728 38.6992ZM89.7778 73.8344C90.3501 73.024 91.2576 72.3841 92.2496 72.3932C93.4989 72.4047 94.5148 73.3918 95.7145 73.7405C97.3273 74.2091 99.1977 73.3469 99.9584 71.8496C100.719 70.3523 100.348 68.3865 99.1491 67.2107C98.5268 66.6005 97.6556 66.0854 97.5489 65.2203C97.4617 64.5137 97.9496 63.8588 98.5101 63.4199C99.0707 62.9809 99.7308 62.6664 100.229 62.1573C101.227 61.1356 101.331 59.3654 100.459 58.2339C99.586 57.1024 97.8474 56.7531 96.6055 57.4598C95.9479 57.8339 95.4404 58.4514 94.7448 58.7488C93.7344 59.1807 92.5737 58.8469 91.5429 58.4662C90.5121 58.0854 89.4154 57.6531 88.3461 57.9061C87.9282 58.005 87.5411 58.205 87.2187 58.4886C86.8963 58.7722 86.6485 59.1307 86.4972 59.5326C86.3459 59.9344 86.2957 60.3673 86.3509 60.7931C86.4062 61.2189 86.5653 61.6246 86.8141 61.9745C87.2809 62.6308 88.0807 63.1484 88.116 63.953C88.152 64.773 87.3247 65.391 86.5192 65.5486C85.7138 65.7063 84.8759 65.5655 84.0643 65.6881C83.2528 65.8108 82.389 66.3378 82.3185 67.1556C82.2086 68.4303 84.0265 69.275 83.8765 70.5456C83.8068 71.1368 83.3239 71.5766 82.9573 72.0456C82.5237 72.6004 82.2223 73.2763 82.1998 73.9802C82.1773 74.684 82.4585 75.4119 83.0118 75.8476C83.7093 76.3969 84.6757 76.4054 85.5634 76.3888C86.327 76.3746 87.8117 76.652 88.4973 76.2625C89.1644 75.8835 89.3071 74.4621 89.7778 73.8344Z" fill="white"/>
    <path d="M30.892 38.4939C31.233 38.6405 31.6019 38.7106 31.9728 38.6992M89.7778 73.8344C90.3501 73.024 91.2576 72.3841 92.2496 72.3932C93.4989 72.4047 94.5148 73.3918 95.7145 73.7405C97.3273 74.2091 99.1977 73.3469 99.9584 71.8496C100.719 70.3523 100.348 68.3865 99.1491 67.2107C98.5268 66.6005 97.6556 66.0854 97.5489 65.2203C97.4617 64.5137 97.9496 63.8588 98.5101 63.4199C99.0707 62.9809 99.7308 62.6664 100.229 62.1573C101.227 61.1356 101.331 59.3654 100.459 58.2339C99.586 57.1024 97.8474 56.7531 96.6055 57.4598C95.9479 57.8339 95.4404 58.4514 94.7448 58.7488C93.7344 59.1807 92.5737 58.8469 91.5429 58.4662C90.5121 58.0854 89.4154 57.6531 88.3461 57.9061C87.9282 58.005 87.5411 58.205 87.2187 58.4886C86.8963 58.7722 86.6485 59.1307 86.4972 59.5326C86.3459 59.9344 86.2957 60.3673 86.3509 60.7931C86.4062 61.2189 86.5653 61.6246 86.8141 61.9745C87.2809 62.6308 88.0807 63.1484 88.116 63.953C88.152 64.773 87.3247 65.391 86.5192 65.5486C85.7138 65.7063 84.8759 65.5655 84.0643 65.6881C83.2528 65.8108 82.389 66.3378 82.3185 67.1556C82.2086 68.4303 84.0265 69.275 83.8765 70.5456C83.8068 71.1368 83.3239 71.5766 82.9573 72.0456C82.5237 72.6004 82.2223 73.2763 82.1998 73.9802C82.1773 74.684 82.4585 75.4119 83.0118 75.8476C83.7093 76.3969 84.6757 76.4054 85.5634 76.3888C86.327 76.3746 87.8117 76.652 88.4973 76.2625C89.1644 75.8835 89.3071 74.4621 89.7778 73.8344Z" stroke="#1A1A1A" stroke-width="0.5" stroke-linecap="round" stroke-linejoin="round"/>
    <path d="M90.7585 53.5409C90.8462 52.4687 90.2889 51.2613 89.2513 50.9775C88.5504 50.7859 87.6757 50.9984 87.1808 50.4665C86.5877 49.829 87.1173 48.7862 86.9353 47.9347C86.82 47.3955 86.4021 46.9501 85.9006 46.7207C85.3992 46.4914 84.8244 46.4597 84.2793 46.5435C83.7141 46.6304 83.1736 46.8354 82.6929 47.1452C82.2123 47.455 81.8023 47.8627 81.4898 48.3415C81.1772 48.8204 80.9692 49.3598 80.8791 49.9245C80.789 50.4892 80.8189 51.0666 80.9669 51.6189C81.2338 52.6145 81.8834 53.5818 81.6622 54.5885C81.416 55.7085 80.1766 56.3889 79.8944 57.5003C79.7086 58.2321 79.9793 58.9999 80.3135 59.677C80.6476 60.354 81.0558 61.0164 81.1691 61.7629C81.313 62.7106 80.9637 63.6533 80.6934 64.573C80.4231 65.4927 80.2375 66.5245 80.6757 67.3771C81.0173 68.0417 81.7005 68.4861 82.4248 68.67C83.1491 68.8539 83.9137 68.8033 84.6496 68.6735C85.7074 68.487 86.7498 68.1322 87.6285 67.5144C88.5072 66.8967 89.2133 65.9995 89.4789 64.9587C89.7551 63.8767 89.5336 62.761 89.1471 61.7357C88.8407 60.9229 88.2249 60.0595 88.2639 59.1566C88.3039 58.2319 89.0208 57.3659 89.4777 56.6067C90.0476 55.6598 90.666 54.6702 90.7585 53.5409ZM96.8057 60.9131C96.8057 60.9131 91.0961 62.7912 89.556 67.3739C88.0159 71.9566 86.4902 76.0956 84.1397 76.3171M91.021 61.4577C91.021 61.5516 91.6952 62.8604 91.1703 64.6194ZM92.6913 69.0079C92.6913 69.0079 89.6745 71.2262 88.4414 70.5396ZM95.9229 63.242C95.9229 63.242 93.4413 64.4595 92.6913 63.184ZM84.4099 50.9956C84.4099 50.9956 86.6261 61.6268 84.6728 66.6226ZM83.4708 53.585C83.4708 53.585 84.2585 55.2569 85.1606 55.85ZM87.5652 56.1801C87.5276 56.3304 86.8459 58.5082 85.4777 58.8091ZM85.4777 51.5974C85.4777 51.5974 85.4946 52.925 84.8105 53.263Z" fill="white"/>
    <path d="M96.8057 60.9131C96.8057 60.9131 91.0961 62.7912 89.556 67.3739C88.0159 71.9566 86.4902 76.0956 84.1397 76.3171M91.021 61.4577C91.021 61.5516 91.6952 62.8604 91.1703 64.6194M92.6913 69.0079C92.6913 69.0079 89.6745 71.2262 88.4414 70.5396M95.9229 63.242C95.9229 63.242 93.4413 64.4595 92.6913 63.184M84.4099 50.9956C84.4099 50.9956 86.6261 61.6268 84.6728 66.6226M83.4708 53.585C83.4708 53.585 84.2585 55.2569 85.1606 55.85M87.5652 56.1801C87.5276 56.3304 86.8459 58.5082 85.4777 58.8091M85.4777 51.5974C85.4777 51.5974 85.4946 52.925 84.8105 53.263M90.7585 53.5409C90.8462 52.4687 90.2889 51.2613 89.2513 50.9775C88.5504 50.7859 87.6757 50.9984 87.1808 50.4665C86.5877 49.829 87.1173 48.7862 86.9353 47.9347C86.82 47.3955 86.4021 46.9501 85.9006 46.7207C85.3992 46.4914 84.8244 46.4597 84.2793 46.5435C83.7141 46.6304 83.1736 46.8354 82.6929 47.1452C82.2123 47.455 81.8023 47.8627 81.4898 48.3415C81.1772 48.8204 80.9692 49.3598 80.8791 49.9245C80.789 50.4892 80.8189 51.0666 80.9669 51.6189C81.2338 52.6145 81.8834 53.5818 81.6622 54.5885C81.416 55.7085 80.1766 56.3889 79.8944 57.5003C79.7086 58.2321 79.9793 58.9999 80.3135 59.677C80.6476 60.354 81.0558 61.0164 81.1691 61.7629C81.313 62.7106 80.9637 63.6533 80.6934 64.573C80.4231 65.4927 80.2375 66.5245 80.6757 67.3771C81.0173 68.0417 81.7005 68.4861 82.4248 68.67C83.1491 68.8539 83.9137 68.8033 84.6496 68.6735C85.7074 68.487 86.7498 68.1322 87.6285 67.5144C88.5072 66.8967 89.2133 65.9995 89.4789 64.9587C89.7551 63.8767 89.5336 62.761 89.1471 61.7357C88.8407 60.9229 88.2249 60.0595 88.2639 59.1566C88.3039 58.2319 89.0208 57.3659 89.4777 56.6067C90.0476 55.6598 90.666 54.6702 90.7585 53.5409Z" stroke="#1A1A1A" stroke-width="0.5" stroke-linecap="round" stroke-linejoin="round"/>
    <path d="M78.9137 77.065C79.127 75.8367 78.1632 74.6808 77.0565 74.1068C75.9498 73.5328 74.6833 73.3496 73.5285 72.8798C71.2412 71.9492 69.4755 69.8323 68.9705 67.4151C68.7398 66.3108 68.8138 65.0238 69.6295 64.2445C69.9169 63.97 70.2749 63.7805 70.5765 63.5218C70.8781 63.263 71.1325 62.8952 71.0962 62.4995C71.0584 62.0881 70.7208 61.7685 70.368 61.5537C70.0152 61.3388 69.6193 61.1817 69.3252 60.8916C68.7639 60.3381 68.7162 59.4309 68.9377 58.6744C69.4355 56.9737 71.2034 55.7393 72.9714 55.858C74.7395 55.9766 76.3266 57.4362 76.5927 59.1881C76.665 59.6644 76.6637 60.1899 76.9697 60.562C77.4243 61.1149 78.3008 61.0278 78.9603 60.7495C79.6198 60.4712 80.2611 60.0452 80.9763 60.0753C82.1002 60.1226 82.8365 61.2328 83.3806 62.2175C84.1701 63.6464 84.9648 65.0873 85.4542 66.6448C85.9436 68.2022 86.1122 69.9038 85.6351 71.465C85.0071 73.5198 83.366 75.0791 81.7892 76.5387C80.8437 76.3881 79.7377 76.5778 78.9137 77.065ZM81.0105 75.9384C81.0105 75.9384 81.0105 69.6278 74.0238 62.472ZM72.108 62.965C72.108 62.965 71.9537 64.0192 75.2284 63.7738ZM77.5875 63.5003C77.5875 63.5003 78.4358 65.5125 77.1947 66.2742ZM74.3759 67.9515C74.3759 67.9515 77.8634 69.3399 78.9158 69.0965ZM81.1513 69.1251C81.1513 69.1251 79.8177 70.8699 80.1602 71.9544Z" fill="white"/>
    <path d="M81.0105 75.9384C81.0105 75.9384 81.0105 69.6278 74.0238 62.472M72.108 62.965C72.108 62.965 71.9537 64.0192 75.2284 63.7738M77.5875 63.5003C77.5875 63.5003 78.4358 65.5125 77.1947 66.2742M74.3759 67.9515C74.3759 67.9515 77.8634 69.3399 78.9158 69.0965M81.1513 69.1251C81.1513 69.1251 79.8177 70.8699 80.1602 71.9544M78.9137 77.065C79.127 75.8367 78.1632 74.6808 77.0565 74.1068C75.9498 73.5328 74.6833 73.3496 73.5285 72.8798C71.2412 71.9492 69.4755 69.8323 68.9705 67.4151C68.7398 66.3108 68.8138 65.0238 69.6295 64.2445C69.9169 63.97 70.2749 63.7805 70.5765 63.5218C70.8781 63.263 71.1325 62.8952 71.0962 62.4995C71.0584 62.0881 70.7208 61.7685 70.368 61.5537C70.0152 61.3388 69.6193 61.1817 69.3252 60.8916C68.7639 60.3381 68.7162 59.4309 68.9377 58.6744C69.4355 56.9737 71.2034 55.7393 72.9714 55.858C74.7395 55.9766 76.3266 57.4362 76.5927 59.1881C76.665 59.6644 76.6637 60.1899 76.9697 60.562C77.4243 61.1149 78.3008 61.0278 78.9603 60.7495C79.6198 60.4712 80.2611 60.0452 80.9763 60.0753C82.1002 60.1226 82.8365 61.2328 83.3806 62.2175C84.1701 63.6464 84.9648 65.0873 85.4542 66.6448C85.9436 68.2022 86.1122 69.9038 85.6351 71.465C85.0071 73.5198 83.366 75.0791 81.7892 76.5387C80.8437 76.3881 79.7377 76.5778 78.9137 77.065Z" stroke="#1A1A1A" stroke-width="0.5" stroke-linecap="round" stroke-linejoin="round"/>
    <path d="M77.2352 75.3184L89.8 75.6001L89.6006 76.727H77.3902L77.2352 75.3184Z" fill="white" stroke="#1A1A1A" stroke-width="0.5" stroke-linecap="round" stroke-linejoin="round"/>
    <path d="M89.4817 77.3997L87.7063 87.4325H78.5685L77.4643 77.3997H89.4817Z" fill="white" stroke="#1A1A1A" stroke-width="0.5" stroke-linecap="round" stroke-linejoin="round"/>
    <path d="M77.3904 76.7271H89.6008L89.4818 77.3997H77.4645L77.3904 76.7271Z" fill="#1C0903" stroke="#1A1A1A" stroke-width="0.5" stroke-linecap="round" stroke-linejoin="round"/>
    <path d="M87.7058 87.4326L86.5879 93.75H79.2632L78.5679 87.4326H87.7058Z" fill="#1C0903" stroke="#1A1A1A" stroke-width="0.5" stroke-linecap="round" stroke-linejoin="round"/>
    <path d="M82.7927 7.98682H84.2987C84.5052 7.98682 84.6726 8.15422 84.6726 8.36072V9.30324C84.6726 9.50974 84.5052 9.67714 84.2987 9.67714H82.7927C82.5862 9.67714 82.4188 9.50974 82.4188 9.30324V8.36072C82.4188 8.15422 82.5862 7.98682 82.7927 7.98682Z" fill="white" stroke="#1A1A1A" stroke-width="0.5" stroke-linecap="round" stroke-linejoin="round"/>
    <path d="M64.8437 8.12769H78.7796C78.9689 8.12769 79.1223 8.28114 79.1223 8.47044V9.33439C79.1223 9.52369 78.9689 9.67714 78.7796 9.67714H64.8437C64.6544 9.67714 64.5009 9.52369 64.5009 9.33439V8.47044C64.5009 8.28114 64.6544 8.12769 64.8437 8.12769Z" fill="white" stroke="#1A1A1A" stroke-width="0.5" stroke-linecap="round" stroke-linejoin="round"/>
    <path d="M93.7082 47.7772C91.9211 47.7772 90.4724 46.3284 90.4724 44.5413C90.4724 42.7542 91.9211 41.3054 93.7082 41.3054C95.4953 41.3054 96.9441 42.7542 96.9441 44.5413C96.9441 46.3284 95.4953 47.7772 93.7082 47.7772Z" fill="white" stroke="#1A1A1A" stroke-width="0.5" stroke-linecap="round" stroke-linejoin="round"/>
    <path d="M95.842 36.2962C95.0537 36.2962 94.4147 35.6572 94.4147 34.8689C94.4147 34.0807 95.0537 33.4417 95.842 33.4417C96.6303 33.4417 97.2693 34.0807 97.2693 34.8689C97.2693 35.6572 96.6303 36.2962 95.842 36.2962Z" fill="white" stroke="#1A1A1A" stroke-width="0.5" stroke-linecap="round" stroke-linejoin="round"/>
    <path d="M22.3878 11.9082C20.6887 11.9082 19.3113 10.5308 19.3113 8.83165C19.3113 7.13254 20.6887 5.75513 22.3878 5.75513C24.0869 5.75513 25.4644 7.13254 25.4644 8.83165C25.4644 10.5308 24.0869 11.9082 22.3878 11.9082Z" fill="white" stroke="#1A1A1A" stroke-width="0.5" stroke-linecap="round" stroke-linejoin="round"/>
    <path d="M20.7356 10.2045H24.0405C24.0405 10.2045 24.0712 9.82201 23.8724 9.72997C23.6732 9.63834 23.5206 7.75662 22.954 7.52713C22.8657 7.49112 22.7912 7.46085 22.7282 7.4355C22.7463 7.39179 22.7556 7.34494 22.7556 7.29763C22.7557 7.24341 22.7437 7.18984 22.7206 7.14079C22.6975 7.09173 22.6639 7.04839 22.622 7.01389C22.5802 6.97939 22.5313 6.95457 22.4787 6.94123C22.4261 6.92788 22.3713 6.92634 22.3181 6.93671C22.2648 6.94708 22.2146 6.9691 22.1709 7.0012C22.1272 7.03329 22.0911 7.07467 22.0653 7.12235C22.0395 7.17003 22.0245 7.22284 22.0215 7.27698C22.0185 7.33112 22.0275 7.38526 22.0479 7.4355C21.9854 7.46085 21.9105 7.49112 21.8221 7.52713C21.256 7.75662 21.103 9.63834 20.9042 9.72997C20.7054 9.82201 20.7356 10.2045 20.7356 10.2045ZM21.8594 10.2045C21.8594 10.3448 21.9151 10.4793 22.0143 10.5785C22.1135 10.6777 22.248 10.7334 22.3883 10.7334C22.5286 10.7334 22.6631 10.6777 22.7623 10.5785C22.8615 10.4793 22.9172 10.3448 22.9172 10.2045H21.8594Z" fill="#FF1B6B" stroke="#1A1A1A" stroke-width="0.5" stroke-linecap="round" stroke-linejoin="round"/>
    <path d="M45.72 42.0168V50.7468" stroke="#1A1A1A" stroke-width="0.5" stroke-linecap="round" stroke-linejoin="round" stroke-dasharray="27.12 27.12"/>
    <path d="M97.7661 23.1333L98.4074 24.0484C99.1809 23.5066 100.106 23.2236 101.05 23.2401C101.994 23.2565 102.909 23.5715 103.663 24.1398L104.335 23.2471C103.393 22.5364 102.25 22.1426 101.069 22.1222C99.889 22.1017 98.7327 22.4557 97.7661 23.1333Z" fill="white" stroke="#1A1A1A" stroke-width="0.5" stroke-linecap="round" stroke-linejoin="round"/>
    <path d="M96.1015 20.7103L97.0678 22.0893C98.2332 21.2729 99.6272 20.8465 101.05 20.8712C102.473 20.8959 103.851 21.3705 104.987 22.227L106 20.8817C104.58 19.811 102.857 19.2176 101.079 19.1868C99.3003 19.156 97.5579 19.6894 96.1015 20.7103ZM99.049 24.9643L99.6909 25.8804C100.078 25.6093 100.54 25.4676 101.012 25.4758C101.484 25.4839 101.942 25.6415 102.319 25.9258L102.991 25.0327C102.425 24.6064 101.739 24.3701 101.031 24.3579C100.323 24.3456 99.629 24.5579 99.049 24.9643ZM99.9052 28.0385C99.9569 28.2071 100.048 28.3612 100.17 28.488C100.293 28.6149 100.444 28.7109 100.61 28.7683C100.777 28.8257 100.955 28.8427 101.13 28.8181C101.305 28.7935 101.471 28.728 101.615 28.6268C101.76 28.5255 101.878 28.3916 101.961 28.2358C102.044 28.0801 102.088 27.9069 102.091 27.7306C102.095 27.5542 102.056 27.3797 101.978 27.2212C101.901 27.0627 101.787 26.9247 101.646 26.8186H101.646C101.458 26.6766 101.229 26.5979 100.993 26.5939C100.757 26.5898 100.526 26.6606 100.332 26.796C100.139 26.9315 99.9937 27.1247 99.9169 27.3479C99.8402 27.5711 99.8361 27.8128 99.9052 28.0385Z" fill="white" stroke="#1A1A1A" stroke-width="0.5" stroke-linecap="round" stroke-linejoin="round"/>
</svg>